<svg width="44" height="44" viewBox="0 0 44 44" fill="none" xmlns="http://www.w3.org/2000/svg">
<path fill-rule="evenodd" clip-rule="evenodd" d="M0 22C0 34.1503 9.84974 44 22 44C34.1503 44 44 34.1503 44 22C44 9.84974 34.1503 0 22 0C9.84974 0 0 9.84974 0 22ZM41.8 22C41.8 32.9352 32.9352 41.8 22 41.8C11.0648 41.8 2.2 32.9352 2.2 22C2.2 11.0648 11.0648 2.2 22 2.2C32.9352 2.2 41.8 11.0648 41.8 22Z" fill="#E4E4E4"/>
<path fill-rule="evenodd" clip-rule="evenodd" d="M11 21.5C11 26.6722 14.931 31 20.1379 31C23.4828 31 25.6207 29.5222 27.4138 27.4815L25.6552 25.8278C24.2414 27.3759 22.5517 28.5722 20.2759 28.5722C16.5517 28.5722 13.7241 25.4407 13.7241 21.5C13.7241 17.5241 16.4828 14.3926 20.1034 14.3926C22.5172 14.3926 24.1724 15.5537 25.5862 17.0667L27.2759 15.237C25.6207 13.4426 23.5172 12 20.1379 12C14.931 12 11 16.363 11 21.5ZM31.7672 17.3833V20.6819H35V22.881H31.7672V26.1796H29.6121V22.881H26.3793V20.6819H29.6121V17.3833H31.7672Z" fill="url(#paint0_radial)"/>
<defs>
<radialGradient id="paint0_radial" cx="0" cy="0" r="1" gradientUnits="userSpaceOnUse" gradientTransform="translate(9.72461 12) rotate(28.9715) scale(28.8908 15.5106)">
<stop stop-color="#4297FE"/>
<stop offset="1" stop-color="#DD61B9"/>
</radialGradient>
</defs>
</svg>
