<svg width="44" height="44" viewBox="0 0 44 44" fill="none" xmlns="http://www.w3.org/2000/svg">
    <path d="M22 44C9.84974 44 0 34.1503 0 22C0 9.84974 9.84974 0 22 0C34.1503 0 44 9.84974 44 22C44 34.1503 34.1503 44 22 44Z" fill="url(#paint0_radial)"/>
    <path d="M23.1893 35C16.2437 35 11 29.0778 11 22C11 14.9704 16.2437 9 23.1893 9C27.697 9 30.5029 10.9741 32.7107 13.4296L30.4569 15.9333C28.571 13.863 26.3631 12.2741 23.1433 12.2741C18.3136 12.2741 14.6338 16.5593 14.6338 22C14.6338 27.3926 18.4056 31.6778 23.3733 31.6778C26.4091 31.6778 28.663 30.0407 30.5489 27.9222L32.8947 30.1852C30.5029 32.9778 27.651 35 23.1893 35Z" fill="white"/>
    <defs>
        <radialGradient id="paint0_radial" cx="0" cy="0" r="1" gradientUnits="userSpaceOnUse" gradientTransform="translate(-2.33822) rotate(34.9673) scale(56.546 33.6455)">
            <stop stop-color="#4297FE"/>
            <stop offset="1" stop-color="#DD61B9"/>
        </radialGradient>
    </defs>
</svg>
