<svg xmlns="http://www.w3.org/2000/svg" xmlns:xlink="http://www.w3.org/1999/xlink" width="20" height="20" viewBox="0 0 20 20"><defs><path id="fwzna" d="M741.957 186.017a3.94 3.94 0 0 1-3.94 3.94h-8.07a3.94 3.94 0 0 1-3.939-3.94v-8.07a3.94 3.94 0 0 1 3.94-3.939h8.07a3.94 3.94 0 0 1 3.939 3.94v8.07zM738.017 172h-8.07a5.954 5.954 0 0 0-5.947 5.948v8.07a5.954 5.954 0 0 0 5.948 5.947h8.07a5.954 5.954 0 0 0 5.947-5.948v-8.07a5.954 5.954 0 0 0-5.948-5.947z"/><path id="fwznc" d="M733.982 185.138a3.155 3.155 0 1 1 0-6.31 3.155 3.155 0 0 1 0 6.31zm0-8.32a5.17 5.17 0 0 0-5.163 5.164 5.17 5.17 0 0 0 5.163 5.164 5.17 5.17 0 0 0 5.164-5.164 5.17 5.17 0 0 0-5.163-5.163z"/><path id="fwzne" d="M737.919 176.858a1.237 1.237 0 1 1 2.474 0 1.237 1.237 0 0 1-2.474 0z"/><linearGradient id="fwznb" x1="733.98" x2="733.98" y1="191.91" y2="172.16" gradientUnits="userSpaceOnUse"><stop offset="0" stop-color="#e09b3d"/><stop offset=".3" stop-color="#c74c4d"/><stop offset=".6" stop-color="#c21975"/><stop offset="1" stop-color="#7024c4"/></linearGradient><linearGradient id="fwznd" x1="733.98" x2="733.98" y1="191.91" y2="172.16" gradientUnits="userSpaceOnUse"><stop offset="0" stop-color="#e09b3d"/><stop offset=".3" stop-color="#c74c4d"/><stop offset=".6" stop-color="#c21975"/><stop offset="1" stop-color="#7024c4"/></linearGradient><linearGradient id="fwznf" x1="739.16" x2="739.16" y1="191.91" y2="172.16" gradientUnits="userSpaceOnUse"><stop offset="0" stop-color="#e09b3d"/><stop offset=".3" stop-color="#c74c4d"/><stop offset=".6" stop-color="#c21975"/><stop offset="1" stop-color="#7024c4"/></linearGradient></defs><g><g transform="translate(-724 -172)"><g><g><use fill="url(#fwznb)" xlink:href="#fwzna"/></g><g><use fill="url(#fwznd)" xlink:href="#fwznc"/></g><g><use fill="url(#fwznf)" xlink:href="#fwzne"/></g></g></g></g></svg>