<svg width="44" height="44" viewBox="0 0 44 44" fill="none" xmlns="http://www.w3.org/2000/svg">
    <path d="M22 44C9.85 44 0 34.15 0 22C0 9.85 9.85 0 22 0C34.15 0 44 9.85 44 22C44 34.15 34.15 44 22 44Z" fill="url(#paint0_radial)"/>
    <path d="M21.8706 20.8584C24.7273 20.8584 27.1106 18.8419 27.6669 16.1532C27.7583 15.7549 27.7998 15.3483 27.7998 14.9334C27.7998 11.6638 25.1425 9 21.8706 9C18.5988 9 15.9414 11.6638 15.9414 14.9334C15.9414 15.3483 15.9829 15.7549 16.0743 16.1532C16.6307 18.8419 19.014 20.8584 21.8706 20.8584Z" fill="white"/>
    <path d="M32.7223 29.0329C32.1607 25.1799 30.2674 22.0704 27.3868 20.3033L27.1875 20.1777L27.0245 20.3612C25.6657 21.8773 23.8359 22.7174 21.8702 22.7174C19.9045 22.7174 18.0747 21.8773 16.7159 20.3612L16.5529 20.1777L16.3536 20.3033C13.4639 22.0704 11.5797 25.1799 11.0181 29.0329L11 29.1778L11.0906 29.2936C13.9621 32.9728 17.7939 35.0007 21.8702 35.0007C25.9465 35.0007 29.7783 32.9728 32.6498 29.2936L32.7404 29.1778L32.7223 29.0329Z" fill="white"/>
    <defs>
        <radialGradient id="paint0_radial" cx="0" cy="0" r="1" gradientUnits="userSpaceOnUse" gradientTransform="translate(-2.33886 0.00111597) rotate(34.9673) scale(56.546 33.6455)">
            <stop stop-color="#4297FE"/>
            <stop offset="1" stop-color="#DD61B9"/>
        </radialGradient>
    </defs>
</svg>
