<svg width="727" height="133" xmlns="http://www.w3.org/2000/svg"><defs><radialGradient cx="139.791%" fx="139.791%" fy="50%" r="199.265%" gradientTransform="matrix(1 0 0 .28636 0 .357)" id="a"><stop stop-color="#4297FE" offset="0%"/><stop stop-color="#DD61B9" offset="100%"/></radialGradient></defs><g fill="none" fill-rule="evenodd"><g fill="#231F20"><path d="M291.703 133C254.923 133 225 103.169 225 66.5 225 29.832 254.923 0 291.703 0c17.173 0 33.485 6.491 45.932 18.279L319.796 37c-7.611-7.208-17.589-11.178-28.093-11.178-22.498 0-40.801 18.248-40.801 40.677 0 22.43 18.303 40.677 40.801 40.677 13.146 0 25.566-6.377 33.224-17.059L346 105.133C333.49 122.583 313.193 133 291.703 133"/><path d="M346 105.945L320 106V59h25.86z"/><path d="M289 85h57V59h-57z"/></g><path d="M659.762 0c-36.727 0-66.5 29.773-66.5 66.5 0 36.727 29.773 66.5 66.5 66.5 36.727 0 66.5-29.773 66.5-66.5 0-36.727-29.773-66.5-66.5-66.5m0 25.861c22.408 0 40.639 18.23 40.639 40.639 0 22.408-18.231 40.639-40.64 40.639-22.407 0-40.638-18.23-40.638-40.639 0-22.408 18.23-40.639 40.639-40.639" fill="#231F20"/><path d="M538.08 84.796l23.182 11.458A66.119 66.119 0 0 1 501.983 133c-36.514 0-66.115-29.55-66.115-66s29.6-66 66.115-66a66.118 66.118 0 0 1 59.247 36.682l-23.17 11.483a40.25 40.25 0 0 0-36.077-22.342c-22.228 0-40.247 17.988-40.247 40.177 0 22.19 18.02 40.177 40.247 40.177a40.25 40.25 0 0 0 36.097-22.381z" fill="#231F20" fill-rule="nonzero"/><path fill="#231F20" d="M167 133h26V0h-26zM378 133h25.868V0H378z"/><path d="M134 66.5c0 36.727-29.773 66.5-66.5 66.5C30.773 133 1 103.227 1 66.5 1 29.773 30.773 0 67.5 0 104.227 0 134 29.773 134 66.5" fill="#262626"/><path d="M67.026 96.076l-1.572-.013c-1.024-.059-2.536-.125-4.424-.487a29.837 29.837 0 0 1-6.603-2.085 29.478 29.478 0 0 1-7.551-4.884 30.405 30.405 0 0 1-6.571-8.388c-1.784-3.357-3.02-7.272-3.343-11.425a30.353 30.353 0 0 1 1.646-12.635c1.468-4.123 3.905-7.967 7.036-11.13 3.164-3.13 7.013-5.564 11.14-7.031a30.44 30.44 0 0 1 12.64-1.645 29.398 29.398 0 0 1 11.44 3.34 30.42 30.42 0 0 1 8.396 6.566 29.449 29.449 0 0 1 4.889 7.545 29.746 29.746 0 0 1 2.086 6.597c.362 1.888.429 3.398.487 4.42l.013 1.572-.07-1.57c-.092-1.018-.229-2.516-.633-4.38a29.461 29.461 0 0 0-2.24-6.472c-1.144-2.386-2.786-4.91-4.974-7.312a29.74 29.74 0 0 0-8.31-6.28c-3.301-1.684-7.128-2.8-11.146-3.11a29.468 29.468 0 0 0-12.243 1.66c-3.983 1.439-7.685 3.815-10.725 6.849-3.039 3.036-5.415 6.736-6.857 10.716a29.399 29.399 0 0 0-1.66 12.228c.311 4.024 1.425 7.84 3.112 11.142a29.72 29.72 0 0 0 6.286 8.302c2.404 2.186 4.93 3.828 7.318 4.97a29.549 29.549 0 0 0 6.478 2.239c1.867.403 3.365.54 4.385.63l1.57.071" fill="#E0E0E0"/><path d="M87.36 66.388c0 11.223-9.106 20.32-20.338 20.32-11.233 0-20.338-9.097-20.338-20.32s9.105-20.32 20.338-20.32c11.232 0 20.338 9.097 20.338 20.32" fill="#FFF"/><path d="M68.684 66.388a1.662 1.662 0 1 1-3.323-.001 1.662 1.662 0 0 1 3.323.001" fill="#E0E0E0"/><path d="M67.022 130.318l-3.386-.062c-2.202-.145-5.45-.33-9.505-1.134-4.05-.791-8.901-2.197-14.146-4.58-5.242-2.374-10.829-5.84-16.127-10.57-5.26-4.754-10.207-10.796-13.985-18.015a63.802 63.802 0 0 1-4.694-11.592 63.16 63.16 0 0 1-2.37-12.848c-.718-8.854.397-18.174 3.553-26.972 3.147-8.797 8.36-16.992 15.049-23.729C28.152 14.131 36.355 8.924 45.16 5.78c8.802-3.154 18.14-4.267 26.99-3.55a63.296 63.296 0 0 1 12.865 2.366 63.879 63.879 0 0 1 11.602 4.69c7.225 3.776 13.272 8.72 18.03 13.974 4.733 5.294 8.204 10.876 10.58 16.113 2.384 5.242 3.791 10.089 4.583 14.135.805 4.052.99 7.297 1.134 9.497l.062 3.383-.118-3.38c-.178-2.197-.43-5.43-1.277-9.46-.839-4.023-2.3-8.832-4.736-14.011-1.236-2.577-2.676-5.268-4.473-7.925-1.778-2.667-3.818-5.36-6.188-7.959-4.755-5.172-10.778-10.018-17.946-13.694-7.148-3.685-15.439-6.156-24.179-6.83-8.75-.687-17.935.435-26.6 3.562-8.664 3.118-16.723 8.268-23.344 14.86-6.598 6.613-11.752 14.666-14.872 23.322-3.13 8.655-4.252 17.841-3.566 26.573.676 8.743 3.146 17.02 6.836 24.164 3.68 7.162 8.53 13.18 13.706 17.93 2.602 2.37 5.298 4.407 7.966 6.184 2.66 1.796 5.353 3.234 7.932 4.47 5.184 2.432 9.997 3.893 14.024 4.731 4.033.845 7.268 1.098 9.467 1.275l3.384.118" fill="#E0E0E0"/><path d="M100.153 66.388l.015.585.017.702.009.445a360.497 360.497 0 0 1-.06 1.69l-.127 1.39c-.045.497-.14 1.019-.214 1.575-.073.555-.218 1.127-.332 1.732-.13.601-.304 1.22-.467 1.864-.1.316-.2.639-.304.966-.102.328-.208.66-.337.989-.466 1.336-1.082 2.698-1.789 4.073-.74 1.357-1.565 2.729-2.53 4.038a37.35 37.35 0 0 1-3.206 3.737 37.152 37.152 0 0 1-3.74 3.204c-1.31.965-2.683 1.79-4.041 2.529-1.376.705-2.74 1.322-4.077 1.787-.33.13-.662.235-.99.337l-.967.304c-.645.163-1.263.336-1.865.466-.606.114-1.178.258-1.734.332-.556.074-1.08.168-1.577.213l-1.39.126-1.184.043-.506.017-.447-.009-.703-.017-.585-.014.584-.044c.38-.038.938-.05 1.643-.146l1.166-.138 1.364-.224c.969-.179 2.053-.42 3.22-.736.582-.16 1.18-.362 1.8-.554.608-.234 1.252-.428 1.885-.704.32-.132.642-.267.969-.403.324-.142.644-.303.972-.456.66-.299 1.304-.665 1.97-1.01a39.01 39.01 0 0 0 3.874-2.53 36.535 36.535 0 0 0 3.601-3.13 36.245 36.245 0 0 0 3.134-3.598 38.76 38.76 0 0 0 2.533-3.87c.344-.667.712-1.309 1.01-1.968.153-.328.314-.648.457-.972l.403-.967c.276-.634.47-1.277.705-1.884.192-.62.394-1.217.554-1.8.316-1.165.558-2.248.736-3.217l.224-1.362.138-1.163c.095-.703.109-1.266.146-1.645l.043-.583" fill="#E0E0E0"/><path d="M105.545 67.068l.014.815.007.518-.024.587-.058 1.375-.15 1.568-.016.157c-.03.307-.08.622-.13.948-.033.22-.068.446-.1.676a13.68 13.68 0 0 1-.05.321c-.054.34-.129.684-.204 1.038-.043.199-.085.4-.126.605-.034.16-.07.321-.11.484-.083.37-.188.743-.287 1.126-.045.165-.088.332-.132.5l-.202.67-.136.424c-.08.256-.162.514-.252.773-.04.115-.081.23-.124.346l-.088.253a44.882 44.882 0 0 1-.729 1.851c-.175.413-.364.825-.557 1.24l-.3.633c-.102.212-.211.423-.32.636a39.491 39.491 0 0 1-3.002 4.868c-.122.167-.247.334-.373.5a43.208 43.208 0 0 1-3.463 3.996 43.032 43.032 0 0 1-4.498 3.833 39.262 39.262 0 0 1-4.874 3c-.206.105-.41.21-.617.31a44.557 44.557 0 0 1-1.844.845c-.41.174-.819.34-1.224.496-.202.078-.402.156-.603.227l-.357.124-.24.087c-.297.105-.594.2-.887.292l-.289.091-.814.247-.338.088c-.381.098-.754.203-1.123.289-.221.052-.44.103-.656.15a41.11 41.11 0 0 0-.427.087c-.354.075-.699.151-1.038.209-.17.03-.338.057-.504.08l-.476.07c-.323.049-.635.1-.94.134-.127.015-.252.028-.375.04l-1.328.127-.252.02-1.193.05-.155.007-.458.018-.12.003a288.942 288.942 0 0 1-1.278-.02h-.033l-.67-.013.678-.046c.218-.018.485-.033.798-.053.16-.01.33-.023.512-.038a3762.893 3762.893 0 0 0 1.96-.218l1.586-.252c.281-.046.57-.105.866-.165.297-.06.602-.125.915-.193.313-.067.633-.144.96-.225.329-.081.666-.167 1.01-.257.335-.086.673-.195 1.018-.3.353-.109.713-.223 1.08-.335.35-.132.71-.256 1.075-.385.183-.065.367-.131.552-.2.19-.07.38-.15.57-.23l1.129-.467c.377-.164.751-.351 1.133-.529.19-.086.38-.176.569-.269.19-.093.378-.192.568-.291.383-.201.769-.408 1.16-.61a45.004 45.004 0 0 0 4.516-2.942 42.48 42.48 0 0 0 4.197-3.644 42.303 42.303 0 0 0 3.649-4.193 44.621 44.621 0 0 0 2.944-4.512c.202-.391.41-.777.611-1.16.1-.192.2-.382.295-.574.091-.187.18-.374.266-.561.178-.382.364-.756.53-1.133l.467-1.128c.08-.188.157-.375.228-.564.07-.188.137-.375.203-.561.128-.362.252-.72.384-1.07.113-.367.226-.727.336-1.08.105-.345.213-.682.299-1.017.09-.34.175-.675.256-1.003.082-.327.159-.647.226-.962.068-.313.133-.62.194-.918.06-.296.118-.583.165-.864l.252-1.586a2436.818 2436.818 0 0 0 .216-1.941c.016-.185.028-.357.039-.519.02-.317.035-.587.053-.806l.046-.678.012.68" fill="#E0E0E0"/><path d="M110.923 67.162l.01.93c.003.183.004.38.006.59l-.03.669-.075 1.566-.173 1.745-.018.178c-.033.343-.091.694-.146 1.057-.038.246-.077.496-.114.753-.018.12-.036.24-.057.361-.057.38-.142.766-.228 1.161-.047.221-.095.446-.141.674l-.122.543c-.09.414-.213.83-.323 1.257l-.148.557-.22.748a261.691 261.691 0 0 1-.432 1.334c-.044.13-.089.258-.135.388l-.097.285c-.08.228-.169.454-.255.683a68.58 68.58 0 0 1-.55 1.383c-.192.462-.404.922-.616 1.388-.107.234-.216.47-.327.706-.112.237-.234.47-.353.707-.22.421-.445.845-.673 1.271a46.354 46.354 0 0 1-2.8 4.427c-.143.197-.287.392-.434.587a49.166 49.166 0 0 1-4.035 4.666 48.996 48.996 0 0 1-4.67 4.033c-.194.146-.389.29-.585.432a45.994 45.994 0 0 1-4.433 2.8c-.427.228-.851.452-1.273.672-.232.116-.46.236-.692.346l-.695.321c-.463.21-.92.42-1.377.613-.462.189-.92.37-1.373.545-.227.086-.45.175-.675.253-.134.047-.268.092-.401.136-.09.033-.18.064-.271.096-.333.115-.666.221-.994.326l-.323.103-.916.268-.375.1c-.428.11-.843.232-1.256.323a46.002 46.002 0 0 1-1.212.265c-.396.085-.782.171-1.163.232-.19.032-.38.063-.566.09-.181.026-.359.053-.534.08-.361.055-.71.114-1.052.149-.142.016-.282.032-.42.045-.525.053-1.02.102-1.487.147l-.283.021-1.337.063a120.678 120.678 0 0 0-.689.031c-.046 0-.092.002-.137.003l-.471-.005h-.1c-.336-.005-.624-.009-.862-.011h-.037l-.756-.01.773-.049c.25-.018.556-.035.916-.057.181-.01.376-.024.585-.04.212-.02.44-.043.679-.07l1.548-.167 1.81-.28c.322-.05.651-.118.99-.186.34-.069.688-.14 1.045-.217.359-.072.723-.16 1.096-.252.375-.093.759-.19 1.15-.29.386-.093.772-.221 1.168-.338.402-.124.812-.251 1.228-.378.403-.148.815-.29 1.232-.438.21-.074.42-.15.632-.227.216-.08.43-.17.646-.259l1.288-.531c.432-.188.858-.4 1.295-.602.217-.1.434-.202.652-.307.218-.105.432-.22.65-.332.436-.229.876-.463 1.322-.693a50.953 50.953 0 0 0 5.159-3.352 48.494 48.494 0 0 0 4.793-4.159 48.424 48.424 0 0 0 4.163-4.789 50.614 50.614 0 0 0 3.355-5.154c.23-.445.465-.885.693-1.322.114-.218.23-.435.337-.654.103-.215.205-.43.304-.645.202-.437.415-.863.602-1.294l.531-1.287c.09-.215.18-.427.259-.641.078-.214.154-.427.229-.639.147-.416.29-.826.438-1.227l.377-1.23c.118-.394.245-.78.34-1.165.1-.39.195-.77.287-1.144.093-.373.181-.738.254-1.097.077-.359.15-.708.218-1.048.067-.339.136-.667.185-.988l.281-1.81.166-1.545c.027-.235.05-.457.07-.667.015-.21.029-.407.04-.59.022-.363.039-.672.057-.922l.049-.773.009.774" fill="#E0E0E0"/><path d="M116.3 67.257l.009 1.044.003.662-.038.75-.09 1.756-.196 1.925-.02.197c-.035.38-.101.767-.163 1.167a191.713 191.713 0 0 0-.19 1.23c-.062.423-.157.849-.252 1.286a67.145 67.145 0 0 1-.292 1.344c-.096.458-.236.917-.357 1.389l-.165.612-.237.828-.167.52a81.338 81.338 0 0 1-.563 1.697c-.086.252-.186.5-.28.753-.194.504-.393 1.014-.598 1.528-.211.51-.446 1.018-.676 1.534l-.354.78c-.121.262-.258.518-.388.778-.25.484-.503.97-.76 1.46-.949 1.703-1.999 3.414-3.184 5.07-.163.225-.327.45-.494.673a55.106 55.106 0 0 1-4.607 5.338 55.017 55.017 0 0 1-5.341 4.603c-.223.166-.446.33-.67.49-1.658 1.188-3.372 2.237-5.079 3.186-.49.257-.977.51-1.46.759-.257.128-.51.262-.768.382l-.772.35c-.514.23-1.02.463-1.528.673-.512.204-1.02.402-1.52.595-.251.094-.499.194-.748.28l-.445.148a46.936 46.936 0 0 1-1.404.463l-.356.115-1.018.291-.413.11c-.472.121-.93.262-1.389.358a92.963 92.963 0 0 1-1.34.293c-.438.094-.865.191-1.287.254-.212.036-.422.069-.63.1l-.592.09c-.399.062-.785.129-1.163.165a2668.934 2668.934 0 0 1-2.11.218l-.316.021-1.48.075-.197.01-.567.028-.154.002a918 918 0 0 1-1.59-.011h-.04l-.842-.008.868-.051c.281-.018.627-.037 1.033-.06l.658-.041c.237-.023.49-.048.756-.077l1.74-.18 2.034-.31c.362-.05.732-.13 1.113-.206.382-.076.774-.156 1.176-.24.403-.079.813-.177 1.232-.281l1.29-.32c.436-.103.87-.25 1.317-.38.45-.137.91-.278 1.378-.419.454-.164.917-.326 1.388-.492.235-.083.473-.167.711-.253.242-.087.48-.19.721-.289l1.45-.595c.484-.21.964-.448 1.455-.674.244-.113.49-.228.735-.344.246-.118.486-.25.73-.375.491-.256.986-.516 1.485-.775a56.98 56.98 0 0 0 5.802-3.763 54.445 54.445 0 0 0 5.39-4.673 54.31 54.31 0 0 0 4.676-5.385 56.56 56.56 0 0 0 3.767-5.795c.26-.5.52-.994.776-1.484.127-.246.258-.488.377-.734.117-.244.231-.487.344-.73.226-.49.464-.97.674-1.455l.595-1.448c.099-.24.2-.477.288-.717.087-.24.172-.479.256-.716.165-.47.327-.932.491-1.385l.42-1.377c.13-.447.277-.88.379-1.316.11-.437.216-.866.32-1.285.103-.419.203-.829.282-1.232.083-.403.164-.795.24-1.178.076-.38.155-.75.207-1.112l.309-2.032a3231.424 3231.424 0 0 0 .256-2.484c.015-.236.03-.456.042-.662.023-.408.041-.756.06-1.037l.05-.868.007.87" fill="#E0E0E0"/><path d="M121.678 67.352l.006 1.158v.733l-.044.833-.105 1.946-.22 2.103-.023.217c-.036.416-.111.84-.178 1.277a323.131 323.131 0 0 0-.211 1.348c-.065.463-.17.93-.276 1.408l-.174.81-.146.661c-.102.504-.26 1.004-.392 1.521l-.18.668-.255.908c-.06.188-.122.376-.184.566a142.539 142.539 0 0 1-.495 1.51l-.116.35c-.093.277-.204.548-.307.824-.21.551-.427 1.109-.647 1.673-.228.56-.486 1.115-.734 1.682l-.382.854c-.13.286-.28.564-.421.848l-.846 1.647c-1.063 1.918-2.24 3.846-3.57 5.713-.182.255-.367.509-.554.76a61.2 61.2 0 0 1-5.178 6.009 61.056 61.056 0 0 1-6.013 5.174c-.25.186-.503.37-.756.55-1.87 1.332-3.802 2.508-5.723 3.571-.554.285-1.103.567-1.649.845-.282.14-.558.288-.842.418l-.85.38c-.566.248-1.12.504-1.678.732-.563.22-1.12.435-1.67.645-.275.102-.545.213-.82.306l-.489.161-.33.11c-.408.136-.812.267-1.212.395l-.39.126-1.12.314-.45.121c-.518.132-1.017.29-1.52.392a142.3 142.3 0 0 1-.902.199l-.57.122c-.478.105-.946.21-1.409.277-.234.038-.464.075-.693.11l-.65.1c-.437.068-.86.143-1.275.18-.173.02-.344.038-.512.056l-1.802.188-.347.021c-.583.032-1.126.06-1.623.088l-.218.011-.623.033h-.865l-1.051-.006h-.045l-.927-.005.963-.053 1.15-.063.731-.043c.262-.025.54-.053.834-.083l1.93-.193 2.258-.338c.403-.054.814-.144 1.238-.228.423-.084.859-.172 1.306-.263.448-.084.903-.195 1.368-.31.466-.114.943-.231 1.43-.352.486-.11.968-.277 1.466-.419l1.526-.46c.506-.18 1.022-.361 1.545-.546l.792-.28c.266-.096.529-.21.796-.318l1.61-.659c.538-.233 1.07-.496 1.616-.747.272-.126.544-.253.818-.383.274-.129.54-.276.812-.415l1.647-.859a62.95 62.95 0 0 0 6.444-4.173 60.453 60.453 0 0 0 5.985-5.187 60.31 60.31 0 0 0 5.192-5.98 62.564 62.564 0 0 0 4.178-6.438c.288-.554.575-1.102.859-1.645.14-.273.287-.54.418-.814l.382-.815c.25-.545.514-1.077.747-1.616l.659-1.607c.108-.267.222-.528.318-.794.095-.267.189-.531.281-.794.185-.522.365-1.037.546-1.543l.46-1.525c.143-.498.31-.98.42-1.465l.351-1.427c.116-.464.227-.919.311-1.367.092-.447.18-.883.264-1.306.084-.424.173-.834.227-1.237l.338-2.256a2515.786 2515.786 0 0 1 .276-2.755l.043-.733.063-1.153.053-.963.005.964" fill="#E0E0E0"/><path d="M127.056 67.447l.002 1.271v.806l-.051.914-.121 2.137-.243 2.281-.026.238c-.039.451-.121.91-.195 1.386l-.155.982-.076.483c-.07.503-.184 1.011-.3 1.532l-.19.877-.158.722c-.107.547-.283 1.09-.426 1.652l-.197.723-.273.987a844.902 844.902 0 0 1-.567 1.746l-.168.51c-.04.127-.083.254-.125.382-.1.3-.221.593-.333.893l-.695 1.818c-.246.608-.526 1.211-.793 1.828l-.41.929c-.14.31-.303.611-.455.919l-.932 1.835c-1.177 2.132-2.48 4.277-3.956 6.356-.2.284-.405.566-.613.847a67.186 67.186 0 0 1-5.75 6.679 67.099 67.099 0 0 1-6.684 5.745c-.28.207-.56.41-.841.61-2.082 1.476-4.233 2.779-6.369 3.956-.617.314-1.229.624-1.836.931-.307.152-.608.314-.917.455l-.928.408c-.617.267-1.22.546-1.829.792l-1.817.695c-.3.11-.594.232-.893.332l-.533.174-.36.118-1.32.429-.424.138-1.221.336-.489.132c-.562.144-1.105.319-1.653.426l-.983.215-.617.134c-.52.115-1.029.23-1.533.3a164.915 164.915 0 0 1-1.464.23c-.475.074-.935.157-1.386.196l-.559.06-1.96.208-.378.023-1.767.099-.239.013-.678.037-.187.001-.623.001h-.133l-1.145-.003h-.05l-1.012-.002 1.058-.056 1.268-.067.804-.044.911-.088 2.121-.208 2.482-.367c.443-.056.895-.156 1.361-.247l1.437-.287c.493-.09.993-.212 1.503-.339l1.57-.383c.537-.118 1.067-.305 1.617-.46l1.674-.5a1029.051 1029.051 0 0 1 2.573-.907c.292-.105.579-.232.871-.348l1.77-.723c.592-.255 1.179-.544 1.778-.819l.9-.42c.302-.142.595-.305.895-.458l1.808-.94a68.91 68.91 0 0 0 7.087-4.585 66.466 66.466 0 0 0 6.582-5.701 66.267 66.267 0 0 0 5.706-6.576 68.483 68.483 0 0 0 4.589-7.08l.942-1.807c.153-.3.315-.593.458-.894.142-.3.282-.6.42-.899.276-.6.565-1.185.82-1.776l.724-1.769c.116-.292.243-.578.348-.87l.307-.87.6-1.701.501-1.673c.155-.55.342-1.08.46-1.616l.383-1.567c.127-.51.25-1.01.34-1.503l.287-1.436c.092-.466.191-.917.247-1.36.132-.885.254-1.714.367-2.48a3535.005 3535.005 0 0 0 .296-3.026l.044-.805.067-1.269.055-1.057.003 1.059M29.315 65.723a1377.51 1377.51 0 0 0-.021-1.305l.024-.575.057-1.346.146-1.534.016-.154c.03-.3.079-.609.127-.927a55.2 55.2 0 0 0 .098-.662c.015-.105.03-.21.049-.315.052-.332.126-.67.2-1.016.041-.194.083-.392.122-.592.034-.157.07-.314.108-.473.082-.362.185-.728.282-1.102l.128-.49.199-.655.132-.416c.079-.25.16-.503.247-.756.04-.113.08-.226.122-.34l.086-.247a42.988 42.988 0 0 1 .713-1.812 44.181 44.181 0 0 1 .839-1.833c.1-.208.207-.414.313-.622a38.653 38.653 0 0 1 2.938-4.765c.12-.164.242-.327.366-.49a42.366 42.366 0 0 1 3.39-3.91 42.118 42.118 0 0 1 4.402-3.753 38.412 38.412 0 0 1 4.77-2.937c.202-.103.403-.206.605-.304.202-.096.403-.192.605-.286.402-.186.8-.37 1.2-.54.402-.17.802-.332 1.198-.486.198-.076.393-.152.59-.221.117-.042.233-.082.35-.122a18.522 18.522 0 0 1 1.103-.37l.283-.09.796-.242.33-.086c.375-.096.74-.198 1.1-.282.217-.052.43-.102.643-.148.14-.027.28-.056.417-.085.347-.073.684-.148 1.017-.204.166-.03.33-.056.493-.08.157-.021.313-.044.466-.067.316-.048.622-.098.92-.13.124-.016.246-.03.367-.04l1.3-.124.246-.02c.42-.019.81-.035 1.168-.05.052-.001.102-.004.152-.006l.448-.018.118-.003.411.006h.087a726.408 726.408 0 0 0 1.44.026l-.664.046c-.212.018-.474.032-.78.052-.156.01-.323.022-.501.037-.185.017-.382.038-.59.064l-1.328.15c-.48.075-.999.158-1.553.246-.275.045-.557.103-.848.162-.29.059-.59.122-.895.188-.307.066-.62.14-.939.22-.323.08-.653.164-.989.252-.329.085-.66.19-.997.293-.346.107-.698.219-1.057.329-.343.129-.695.25-1.052.376-.18.064-.36.129-.54.196-.187.07-.373.146-.559.225l-1.104.457c-.37.161-.736.344-1.11.518-.186.085-.371.173-.556.263-.186.091-.37.189-.556.286-.376.196-.753.399-1.137.597a44.135 44.135 0 0 0-4.42 2.879 41.654 41.654 0 0 0-4.108 3.567 41.417 41.417 0 0 0-3.57 4.104 43.7 43.7 0 0 0-2.883 4.416c-.198.384-.4.761-.598 1.136-.098.188-.196.374-.289.562-.09.183-.176.366-.26.549-.174.374-.357.74-.518 1.109l-.458 1.103a14.35 14.35 0 0 0-.422 1.102c-.125.355-.247.706-.376 1.047-.11.36-.222.712-.329 1.058-.102.337-.208.667-.292.995-.088.334-.171.66-.25.981-.08.32-.156.634-.222.942-.067.307-.13.607-.19.898-.059.29-.116.572-.161.847l-.247 1.552-.149 1.325c-.025.203-.045.394-.063.575-.015.18-.027.35-.037.507-.021.31-.035.576-.053.79l-.045.663-.011-.665" fill="#E0E0E0"/><path d="M24.05 65.63l-.01-.91-.005-.576.03-.656.072-1.532.17-1.709.018-.173c.032-.336.089-.68.143-1.035.037-.241.075-.487.111-.737.017-.117.036-.235.055-.354.057-.373.14-.75.224-1.137l.139-.658c.038-.176.078-.354.119-.532.088-.406.208-.813.316-1.231l.144-.545.216-.732.147-.462c.09-.28.18-.561.276-.844l.132-.38.095-.279c.078-.223.165-.444.25-.668.172-.448.35-.9.537-1.354.189-.452.397-.902.603-1.358l.32-.691c.11-.232.23-.46.347-.692.215-.413.435-.828.658-1.245a45.233 45.233 0 0 1 2.741-4.333c.14-.193.281-.384.425-.574a48.144 48.144 0 0 1 3.95-4.568 47.917 47.917 0 0 1 4.57-3.947c.19-.143.381-.283.572-.423a44.965 44.965 0 0 1 4.34-2.74c.418-.223.833-.443 1.246-.658.227-.114.45-.232.677-.34l.681-.314c.453-.205.9-.411 1.348-.6.451-.184.9-.362 1.344-.533.221-.084.44-.171.66-.248.131-.045.262-.09.392-.133a42.938 42.938 0 0 1 1.24-.412l.315-.1.897-.264.367-.097c.418-.107.824-.228 1.23-.317a49.328 49.328 0 0 1 1.185-.26c.388-.082.765-.166 1.138-.226.187-.032.372-.061.555-.088l.523-.079c.353-.053.695-.11 1.029-.145.139-.016.276-.032.412-.045l1.454-.144.278-.02 1.308-.061.173-.009.501-.022c.046 0 .09-.002.134-.003l.461.004.098.002.845.01h.036l.74.01-.758.048c-.243.017-.543.033-.895.055-.178.011-.37.023-.573.038-.208.02-.43.044-.664.07l-1.516.163-1.772.275c-.315.048-.637.115-.969.181-.332.068-.673.138-1.023.213-.35.07-.708.157-1.072.247-.368.09-.743.185-1.126.283-.378.092-.755.217-1.143.332-.394.12-.795.245-1.203.37-.394.144-.797.284-1.205.428a64.16 64.16 0 0 0-.62.222c-.21.078-.42.166-.63.254l-1.262.52c-.423.183-.84.39-1.268.589-.212.097-.425.198-.637.3-.214.103-.424.216-.636.326-.428.223-.859.452-1.295.678a49.893 49.893 0 0 0-5.049 3.28 47.412 47.412 0 0 0-4.692 4.071 47.282 47.282 0 0 0-4.074 4.688 49.432 49.432 0 0 0-3.284 5.045c-.227.436-.456.866-.68 1.294-.11.214-.224.425-.328.64a37.29 37.29 0 0 0-.298.631c-.199.427-.406.845-.59 1.267l-.52 1.26c-.087.21-.175.418-.253.627l-.224.626c-.144.406-.284.808-.428 1.2-.125.409-.25.81-.37 1.204-.115.387-.24.764-.332 1.14-.098.382-.192.755-.281 1.12-.091.366-.178.723-.25 1.075-.074.35-.145.692-.212 1.025-.067.332-.134.653-.182.967l-.275 1.771-.162 1.513c-.026.23-.05.448-.069.653-.015.205-.028.398-.039.577-.021.355-.037.658-.055.903l-.048.756-.01-.757" fill="#E0E0E0"/><path d="M18.787 65.538a3692.546 3692.546 0 0 1-.01-1.67c.01-.23.023-.475.036-.734l.087-1.72.193-1.883.02-.193c.034-.371.099-.75.159-1.142l.125-.811.061-.394c.06-.413.154-.83.247-1.258l.155-.725.13-.59c.094-.45.232-.897.35-1.36l.161-.599.232-.81a305.422 305.422 0 0 1 .468-1.44c.046-.14.094-.28.143-.42l.104-.31c.084-.247.182-.49.275-.737.189-.494.384-.993.585-1.496.206-.5.436-.997.661-1.502.114-.254.23-.509.347-.764.118-.256.252-.506.38-.761.244-.473.491-.95.742-1.428a51.81 51.81 0 0 1 3.118-4.963c.159-.22.32-.44.483-.66a53.97 53.97 0 0 1 4.51-5.224 53.936 53.936 0 0 1 5.228-4.506c.217-.162.436-.322.656-.48a51.655 51.655 0 0 1 4.97-3.118c.48-.25.957-.499 1.43-.742.251-.126.5-.257.751-.375.253-.115.505-.23.757-.343.503-.224.997-.452 1.494-.658.502-.2.999-.394 1.49-.582.245-.092.486-.19.731-.274l.436-.145.294-.101a73.566 73.566 0 0 1 1.428-.465c.336-.096.669-.19.997-.285l.404-.108c.462-.118.91-.255 1.359-.35a85.594 85.594 0 0 1 1.313-.287c.428-.092.846-.186 1.258-.248.208-.035.414-.068.617-.098l.58-.09c.39-.059.768-.124 1.138-.16l.457-.05 1.609-.163.308-.021 1.45-.073a181.831 181.831 0 0 0 .748-.037l.15-.002.51.002.11.001.936.008h.04l.824.007-.85.05c-.275.018-.613.036-1.01.059l-.645.04c-.233.022-.48.048-.74.075-.515.054-1.083.113-1.703.176l-1.991.304c-.355.05-.717.127-1.09.202-.374.074-.757.153-1.15.234a25.13 25.13 0 0 0-1.207.276c-.411.101-.832.206-1.262.314-.427.1-.852.243-1.29.37-.441.135-.89.272-1.347.41-.445.161-.9.32-1.36.482l-.696.248c-.236.086-.47.187-.706.283l-1.418.582c-.474.206-.944.438-1.425.66-.24.11-.479.223-.72.338-.24.114-.475.243-.715.366l-1.453.76a55.703 55.703 0 0 0-5.678 3.682 53.393 53.393 0 0 0-5.276 4.574 53.1 53.1 0 0 0-4.578 5.27 55.345 55.345 0 0 0-3.686 5.673c-.254.49-.51.973-.76 1.453-.124.24-.253.477-.369.718-.114.239-.226.477-.336.715-.222.48-.455.95-.66 1.424l-.583 1.417c-.096.235-.196.467-.282.702-.085.235-.168.469-.25.7-.162.46-.32.913-.481 1.357l-.41 1.347c-.128.437-.272.862-.372 1.288-.107.428-.212.848-.312 1.258-.102.41-.2.811-.277 1.206-.082.394-.16.778-.236 1.152-.074.373-.151.735-.202 1.09l-.302 1.989-.176 1.699c-.028.258-.052.502-.075.732l-.04.647c-.023.4-.041.74-.059 1.016l-.05.85-.007-.851" fill="#E0E0E0"/><path d="M13.523 65.445l-.005-1.133-.001-.718.044-.815.102-1.905.215-2.059.023-.213c.036-.406.109-.82.175-1.249l.138-.886.069-.434c.063-.452.166-.91.269-1.378a146.72 146.72 0 0 1 .314-1.44c.099-.493.253-.982.383-1.489l.177-.653.25-.889.179-.554a152.34 152.34 0 0 1 .485-1.479l.113-.342c.091-.27.2-.535.3-.806.207-.54.418-1.085.634-1.637.223-.548.475-1.092.719-1.646l.373-.837c.128-.28.275-.552.413-.83l.827-1.612c1.041-1.878 2.193-3.765 3.495-5.592.178-.25.358-.498.542-.745a59.889 59.889 0 0 1 5.069-5.88 59.797 59.797 0 0 1 5.885-5.065c.246-.182.492-.362.74-.539 1.83-1.303 3.722-2.454 5.602-3.495.542-.279 1.08-.555 1.613-.827.277-.137.547-.282.825-.41l.832-.37c.554-.243 1.096-.494 1.642-.717.552-.215 1.096-.426 1.634-.631.27-.1.535-.21.803-.3l.479-.158.323-.108c.4-.132.795-.26 1.186-.386l.382-.124 1.096-.307.441-.119c.507-.129.996-.283 1.489-.383a164.947 164.947 0 0 1 1.439-.314c.469-.102.927-.206 1.38-.271l.678-.108.636-.099c.428-.065.842-.138 1.248-.176l.502-.054 1.763-.183.34-.022 1.589-.085.213-.011.61-.032.167-.001h.68l1.028.006h.044l.908.005-.943.052c-.306.019-.683.038-1.126.062l-.715.042c-.256.024-.529.051-.817.08l-1.889.19-2.21.331c-.394.053-.796.14-1.211.222l-1.279.258c-.438.083-.884.19-1.338.304l-1.4.344c-.476.108-.948.271-1.436.41-.489.148-.987.299-1.493.45-.496.178-1 .354-1.513.535l-.774.274c-.262.094-.518.206-.78.312l-1.575.645c-.527.227-1.049.485-1.582.73l-.8.375c-.269.127-.53.27-.796.407l-1.612.84a61.627 61.627 0 0 0-6.307 4.085 59.208 59.208 0 0 0-5.86 5.077 59.072 59.072 0 0 0-5.081 5.854 61.205 61.205 0 0 0-4.089 6.301l-.841 1.61c-.137.268-.28.53-.41.797-.125.267-.25.533-.372.798-.246.533-.504 1.054-.732 1.581l-.645 1.574c-.105.26-.218.517-.312.777l-.275.777c-.18.511-.357 1.016-.534 1.51l-.45 1.493c-.14.487-.303.959-.411 1.434-.118.475-.233.941-.344 1.396-.113.455-.222.9-.305 1.339l-.258 1.279c-.082.414-.17.816-.222 1.21l-.331 2.208a3809.285 3809.285 0 0 1-.27 2.697c-.015.255-.03.495-.042.718-.024.444-.044.822-.062 1.128l-.052.942-.005-.943" fill="#E0E0E0"/><path d="M8.26 65.352l-.003-1.245.001-.788.05-.895.118-2.092.238-2.232.025-.233c.038-.442.119-.892.191-1.357l.152-.961.075-.472c.067-.494.18-.99.292-1.5l.187-.858c.051-.233.102-.47.155-.707.105-.536.276-1.067.417-1.617l.193-.708c.087-.32.176-.641.266-.966a811.084 811.084 0 0 1 .555-1.71 176.675 176.675 0 0 1 .287-.873c.098-.292.217-.58.326-.873l.68-1.78c.242-.595.515-1.186.777-1.79l.4-.908c.137-.304.298-.598.446-.9L15 38.091c1.153-2.087 2.429-4.187 3.872-6.221a54.3 54.3 0 0 1 .6-.83 65.83 65.83 0 0 1 5.63-6.537 65.735 65.735 0 0 1 6.541-5.624c.274-.201.548-.4.824-.596 2.037-1.445 4.143-2.72 6.233-3.873l1.798-.91c.3-.15.595-.308.897-.446l.909-.4c.603-.26 1.194-.534 1.79-.775l1.779-.68c.293-.109.58-.227.874-.325a171.296 171.296 0 0 1 .873-.286l1.293-.42.415-.134c.403-.111.802-.22 1.195-.33l.479-.13c.55-.14 1.081-.31 1.618-.416l.961-.21.604-.132c.51-.112 1.008-.225 1.5-.293l.74-.117.694-.109c.465-.072.915-.153 1.357-.191l.547-.059 1.918-.204.37-.022 1.73-.097.234-.012.663-.037.183-.001a252.952 252.952 0 0 0 .74 0l1.122.002h.047l.992.003-1.036.054-1.24.066-.788.043a819.952 819.952 0 0 0-2.968.29l-2.429.358c-.434.055-.876.153-1.332.243l-1.406.28c-.483.089-.972.208-1.473.332l-1.536.375c-.525.115-1.044.298-1.582.45l-1.639.49-1.666.587-.852.3c-.286.103-.567.227-.854.341l-1.732.707c-.58.25-1.153.533-1.74.802l-.882.412c-.295.138-.582.298-.875.447l-1.77.922a67.29 67.29 0 0 0-6.936 4.487 65.075 65.075 0 0 0-6.443 5.58 64.826 64.826 0 0 0-5.585 6.436 67.056 67.056 0 0 0-4.492 6.93l-.922 1.769c-.15.293-.309.58-.449.875l-.411.88c-.27.587-.553 1.16-.802 1.74-.24.583-.475 1.16-.708 1.73-.114.286-.239.566-.341.852-.102.286-.202.57-.301.853l-.587 1.664-.491 1.637c-.152.538-.334 1.056-.45 1.581l-.375 1.535c-.124.5-.244.988-.332 1.47l-.281 1.406c-.09.456-.187.898-.242 1.332l-.36 2.427-.203 2.072c-.03.314-.06.61-.086.89l-.043.788-.065 1.241-.055 1.035-.002-1.036" fill="#E0E0E0"/><path d="M69.25 66.388a2.227 2.227 0 1 1-4.454-.002 2.227 2.227 0 0 1 4.454.002" fill="#333"/><path fill="url(#a)" d="M0 133h67V0H0z"/></g></svg>
