<svg xmlns="http://www.w3.org/2000/svg" xmlns:xlink="http://www.w3.org/1999/xlink" width="14" height="22" viewBox="0 0 14 22"><defs><path id="h87ia" d="M882.921 173.82a3.29 3.29 0 0 1 3.288 3.291 3.29 3.29 0 1 1-3.288-3.29zm0 9.402a6.111 6.111 0 1 0-6.111-6.11 6.119 6.119 0 0 0 6.111 6.11z"/><path id="h87ib" d="M888.805 185.931a2.222 2.222 0 0 0 1.047-1.87 1.61 1.61 0 0 0-.94-1.473 1.809 1.809 0 0 0-1.846.168 7.239 7.239 0 0 1-8.279 0 1.818 1.818 0 0 0-1.847-.168 1.612 1.612 0 0 0-.94 1.473 2.225 2.225 0 0 0 1.046 1.87c.837.536 1.748.955 2.706 1.246.163.049.33.094.503.135l-2.79 2.631a1.736 1.736 0 0 0-.04 2.518 1.896 1.896 0 0 0 2.657-.005l2.844-2.839 2.85 2.844c.71.706 1.879.724 2.611.04a1.736 1.736 0 0 0-.003-2.561l-2.787-2.629c.173-.042.342-.088.506-.136.957-.29 1.867-.708 2.702-1.244z"/></defs><g><g transform="translate(-876 -171)"><g><use fill="#ff9800" xlink:href="#h87ia"/></g><g><use fill="#ff9800" xlink:href="#h87ib"/></g></g></g></svg>
