<svg width="728" height="96" viewBox="0 0 728 96" fill="none" xmlns="http://www.w3.org/2000/svg">
    <g opacity="0.298363">
        <mask id="mask0" mask-type="alpha" maskUnits="userSpaceOnUse" x="0" y="64" width="728" height="32">
            <rect y="64" width="728" height="32" fill="white"/>
        </mask>
        <g mask="url(#mask0)">
            <path fill-rule="evenodd" clip-rule="evenodd" d="M133.896 96H136.656V32H133.896V96ZM44.8619 93.4902H47.6227V34.5098H44.8619V93.4902ZM20.7055 91.817H17.9448V35.7647H20.7055V91.817ZM13.8037 80.9412H16.5644V46.6405H13.8037V80.9412ZM11.7331 73.8301H8.97238V53.7516H11.7331V73.8301ZM4.83128 70.4837H7.59202V57.5163H4.83128V70.4837ZM0 66.7189H2.76073V61.281H0V66.7189ZM22.0859 76.7582H24.8466V50.8235H22.0859V76.7582ZM29.6779 82.1961H26.9171V45.8039H29.6779V82.1961ZM31.0583 82.6144H33.819V45.3856H31.0583V82.6144ZM38.6503 87.634H35.8895V40.366H38.6503V87.634ZM40.0306 91.817H42.7914V35.7647H40.0306V91.817ZM87.6533 73.4118H84.8925V54.1699H87.6533V73.4118ZM80.0613 71.7386H82.822V56.2614H80.0613V71.7386ZM78.6809 74.2484H75.9202V53.7516H78.6809V74.2484ZM71.0889 75.085H73.8496V52.915H71.0889V75.085ZM69.7085 70.902H66.9478V57.098H69.7085V70.902ZM62.1165 67.9739H64.8772V60.0261H62.1165V67.9739ZM60.7361 72.1569H57.9754V55.8431H60.7361V72.1569ZM53.8343 76.3399H56.595V51.6601H53.8343V76.3399ZM51.7638 89.7255H49.003V38.2745H51.7638V89.7255ZM91.7944 73.4118H89.0337V54.1699H91.7944V73.4118ZM93.8649 85.9608H96.6257V42.0392H93.8649V85.9608ZM100.767 70.4837H98.006V57.5163H100.767V70.4837ZM102.147 87.2157H104.908V40.7843H102.147V87.2157ZM109.739 91.3987H106.978V36.183H109.739V91.3987ZM111.12 91.817H113.88V36.183H111.12V91.817ZM118.712 90.9804H115.951V37.0196H118.712V90.9804ZM120.092 77.1765H122.853V50.8235H120.092V77.1765ZM127.684 79.268H124.923V48.732H127.684V79.268ZM129.064 76.7582H131.825V51.2418H129.064V76.7582ZM176.687 66.3006H173.926V61.281H176.687V66.3006ZM169.095 68.3922H171.856V59.6078H169.095V68.3922ZM167.715 72.5752H164.954V55.4248H167.715V72.5752ZM160.123 80.9412H162.883V46.6405H160.123V80.9412ZM158.742 83.451H155.981V44.549H158.742V83.451ZM151.15 85.9608H153.911V42.0392H151.15V85.9608ZM149.77 88.4706H147.009V39.5294H149.77V88.4706ZM142.868 80.9412H145.629V47.0588H142.868V80.9412ZM140.797 84.2876H138.037V43.7124H140.797V84.2876ZM180.828 65.8823H178.067V61.6993H180.828V65.8823ZM182.899 70.0654H185.659V57.9346H182.899V70.0654ZM189.8 73.8301H187.04V53.7516H189.8V73.8301ZM191.181 77.1765H193.942V50.4052H191.181V77.1765ZM198.773 79.6863H196.012V47.8954H198.773V79.6863ZM200.153 83.0327H202.914V44.9673H200.153V83.0327ZM207.745 75.5033H204.984V52.4967H207.745V75.5033ZM209.126 74.6667H211.886V53.3333H209.126V74.6667ZM216.718 84.7059H213.957V43.2941H216.718V84.7059ZM218.098 87.634H220.859V39.9477H218.098V87.634ZM265.721 73.4118H262.96V54.1699H265.721V73.4118ZM258.129 83.8693H260.889V43.7124H258.129V83.8693ZM256.748 90.1438H253.987V37.4379H256.748V90.1438ZM249.156 70.4837H251.917V57.098H249.156V70.4837ZM247.776 72.5752H245.015V55.4248H247.776V72.5752ZM240.184 73.8301H242.945V54.1699H240.184V73.8301ZM238.803 80.5229H236.043V47.4771H238.803V80.5229ZM231.211 93.9085H233.972V34.0915H231.211V93.9085ZM229.831 84.7059H227.07V42.8758H229.831V84.7059ZM222.929 82.1961H225.69V45.8039H222.929V82.1961ZM269.862 73.4118H267.101V54.1699H269.862V73.4118ZM271.242 75.9216H274.003V51.6601H271.242V75.9216ZM278.834 78.4314H276.073V49.1503H278.834V78.4314ZM280.214 70.4837H282.975V57.098H280.214V70.4837ZM287.806 83.451H285.046V44.549H287.806V83.451ZM289.187 80.9412H291.948V46.6405H289.187V80.9412ZM296.779 71.7386H294.018V55.8431H296.779V71.7386ZM298.159 74.2484H300.92V53.3333H298.159V74.2484ZM305.751 80.9412H302.99V47.0588H305.751V80.9412Z" fill="url(#paint0_radial)"/>
            <path fill-rule="evenodd" clip-rule="evenodd" d="M307.131 74.6667H309.892V52.915H307.131V74.6667Z" fill="#313131"/>
            <path fill-rule="evenodd" clip-rule="evenodd" d="M351.994 67.9741H354.755V60.0264H351.994V67.9741Z" fill="#313131"/>
            <path fill-rule="evenodd" clip-rule="evenodd" d="M347.162 75.9216H349.923V51.6602H347.162V75.9216Z" fill="#313131"/>
            <path fill-rule="evenodd" clip-rule="evenodd" d="M343.021 78.4314H345.782V49.1504H343.021V78.4314Z" fill="#313131"/>
            <path fill-rule="evenodd" clip-rule="evenodd" d="M338.189 74.6668H340.95V53.3335H338.189V74.6668Z" fill="#313131"/>
            <path fill-rule="evenodd" clip-rule="evenodd" d="M334.049 83.4508H336.81V44.5488H334.049V83.4508Z" fill="#313131"/>
            <path fill-rule="evenodd" clip-rule="evenodd" d="M329.217 82.1959H331.978V45.8037H329.217V82.1959Z" fill="#313131"/>
            <path fill-rule="evenodd" clip-rule="evenodd" d="M325.076 75.0848H327.837V52.4966H325.076V75.0848Z" fill="#313131"/>
            <path fill-rule="evenodd" clip-rule="evenodd" d="M320.244 81.7776H323.005V45.8037H320.244V81.7776Z" fill="#313131"/>
            <path fill-rule="evenodd" clip-rule="evenodd" d="M316.104 81.3596H318.864V46.6406H316.104V81.3596Z" fill="#313131"/>
            <path fill-rule="evenodd" clip-rule="evenodd" d="M311.273 70.0651H314.034V57.5161H311.273V70.0651Z" fill="#313131"/>
            <path fill-rule="evenodd" clip-rule="evenodd" d="M356.135 73.4118H358.895V54.1699H356.135V73.4118Z" fill="#313131"/>
            <path fill-rule="evenodd" clip-rule="evenodd" d="M360.275 67.1373H363.036V60.8628H360.275V67.1373Z" fill="#313131"/>
            <path fill-rule="evenodd" clip-rule="evenodd" d="M365.107 66.7192H367.868V61.2812H365.107V66.7192Z" fill="#313131"/>
            <path fill-rule="evenodd" clip-rule="evenodd" d="M369.248 70.4834H372.009V57.5161H369.248V70.4834Z" fill="#313131"/>
            <path fill-rule="evenodd" clip-rule="evenodd" d="M374.08 73.8299H376.841V53.7515H374.08V73.8299Z" fill="#313131"/>
            <path fill-rule="evenodd" clip-rule="evenodd" d="M378.221 80.9413H380.981V46.6406H378.221V80.9413Z" fill="#313131"/>
            <path fill-rule="evenodd" clip-rule="evenodd" d="M383.051 91.8169H385.812V35.7646H383.051V91.8169Z" fill="#313131"/>
            <path fill-rule="evenodd" clip-rule="evenodd" d="M387.193 76.7584H389.954V50.8237H387.193V76.7584Z" fill="#313131"/>
            <path fill-rule="evenodd" clip-rule="evenodd" d="M392.023 82.1959H394.784V45.8037H392.023V82.1959Z" fill="#313131"/>
            <path fill-rule="evenodd" clip-rule="evenodd" d="M396.166 73.4119H398.927V54.5884H396.166V73.4119Z" fill="#313131"/>
            <path fill-rule="evenodd" clip-rule="evenodd" d="M400.307 87.6342H403.067V40.3662H400.307V87.6342Z" fill="#313131"/>
            <path fill-rule="evenodd" clip-rule="evenodd" d="M405.137 91.8169H407.897V35.7646H405.137V91.8169Z" fill="#313131"/>
            <path fill-rule="evenodd" clip-rule="evenodd" d="M449.309 73.4118H452.069V54.1699H449.309V73.4118Z" fill="#313131"/>
            <path fill-rule="evenodd" clip-rule="evenodd" d="M445.168 71.7384H447.929V56.2612H445.168V71.7384Z" fill="#313131"/>
            <path fill-rule="evenodd" clip-rule="evenodd" d="M440.338 74.2482H443.099V53.7515H440.338V74.2482Z" fill="#313131"/>
            <path fill-rule="evenodd" clip-rule="evenodd" d="M436.195 75.085H438.956V52.915H436.195V75.085Z" fill="#313131"/>
            <path fill-rule="evenodd" clip-rule="evenodd" d="M432.055 70.9021H434.815V57.0981H432.055V70.9021Z" fill="#313131"/>
            <path fill-rule="evenodd" clip-rule="evenodd" d="M427.223 67.9741H429.983V60.0264H427.223V67.9741Z" fill="#313131"/>
            <path fill-rule="evenodd" clip-rule="evenodd" d="M423.082 72.157H425.843V55.8433H423.082V72.157Z" fill="#313131"/>
            <path fill-rule="evenodd" clip-rule="evenodd" d="M418.252 76.3399H421.013V51.6602H418.252V76.3399Z" fill="#313131"/>
            <path fill-rule="evenodd" clip-rule="evenodd" d="M414.109 89.7254H416.87V38.2744H414.109V89.7254Z" fill="#313131"/>
            <path fill-rule="evenodd" clip-rule="evenodd" d="M409.279 93.4902H412.04V34.5098H409.279V93.4902Z" fill="#313131"/>
            <path fill-rule="evenodd" clip-rule="evenodd" d="M454.141 73.4118H456.901V54.1699H454.141V73.4118Z" fill="#313131"/>
            <path fill-rule="evenodd" clip-rule="evenodd" d="M458.281 85.9606H461.042V42.0391H458.281V85.9606Z" fill="#313131"/>
            <path fill-rule="evenodd" clip-rule="evenodd" d="M463.113 70.4834H465.874V57.5161H463.113V70.4834Z" fill="#313131"/>
            <path fill-rule="evenodd" clip-rule="evenodd" d="M467.254 87.2156H470.015V40.7842H467.254V87.2156Z" fill="#313131"/>
            <path fill-rule="evenodd" clip-rule="evenodd" d="M472.086 91.3988H474.847V36.1831H472.086V91.3988Z" fill="#313131"/>
            <path fill-rule="evenodd" clip-rule="evenodd" d="M476.227 76.7584H478.987V50.8237H476.227V76.7584Z" fill="#313131"/>
            <path fill-rule="evenodd" clip-rule="evenodd" d="M480.367 90.9803H483.128V37.0195H480.367V90.9803Z" fill="#313131"/>
            <path fill-rule="evenodd" clip-rule="evenodd" d="M485.199 77.1767H487.96V50.8237H485.199V77.1767Z" fill="#313131"/>
            <path fill-rule="evenodd" clip-rule="evenodd" d="M489.34 79.2679H492.101V48.7319H489.34V79.2679Z" fill="#313131"/>
            <path fill-rule="evenodd" clip-rule="evenodd" d="M494.172 76.758H496.933V51.2417H494.172V76.758Z" fill="#313131"/>
            <path fill-rule="evenodd" clip-rule="evenodd" d="M538.344 66.3009H541.104V61.2812H538.344V66.3009Z" fill="#313131"/>
            <path fill-rule="evenodd" clip-rule="evenodd" d="M534.201 68.3922H536.962V59.6079H534.201V68.3922Z" fill="#313131"/>
            <path fill-rule="evenodd" clip-rule="evenodd" d="M529.371 72.5751H532.132V55.4248H529.371V72.5751Z" fill="#313131"/>
            <path fill-rule="evenodd" clip-rule="evenodd" d="M525.23 80.9413H527.991V46.6406H525.23V80.9413Z" fill="#313131"/>
            <path fill-rule="evenodd" clip-rule="evenodd" d="M520.398 83.4508H523.159V44.5488H520.398V83.4508Z" fill="#313131"/>
            <path fill-rule="evenodd" clip-rule="evenodd" d="M516.258 85.9606H519.019V42.0391H516.258V85.9606Z" fill="#313131"/>
            <path fill-rule="evenodd" clip-rule="evenodd" d="M512.115 88.4705H514.876V39.5293H512.115V88.4705Z" fill="#313131"/>
            <path fill-rule="evenodd" clip-rule="evenodd" d="M507.285 80.9409H510.046V47.0586H507.285V80.9409Z" fill="#313131"/>
            <path fill-rule="evenodd" clip-rule="evenodd" d="M503.145 84.2876H505.905V43.7124H503.145V84.2876Z" fill="#313131"/>
            <path fill-rule="evenodd" clip-rule="evenodd" d="M498.312 96H501.073V32H498.312V96Z" fill="#313131"/>
            <path fill-rule="evenodd" clip-rule="evenodd" d="M543.174 65.8822H545.935V61.6992H543.174V65.8822Z" fill="#313131"/>
            <path fill-rule="evenodd" clip-rule="evenodd" d="M547.314 70.0653H550.075V57.9346H547.314V70.0653Z" fill="#313131"/>
            <path fill-rule="evenodd" clip-rule="evenodd" d="M552.146 73.8299H554.907V53.7515H552.146V73.8299Z" fill="#313131"/>
            <path fill-rule="evenodd" clip-rule="evenodd" d="M556.287 77.1765H559.048V50.4053H556.287V77.1765Z" fill="#313131"/>
            <path fill-rule="evenodd" clip-rule="evenodd" d="M560.43 79.6864H563.19V47.8955H560.43V79.6864Z" fill="#313131"/>
            <path fill-rule="evenodd" clip-rule="evenodd" d="M565.26 83.0326H568.021V44.9673H565.26V83.0326Z" fill="#313131"/>
            <path fill-rule="evenodd" clip-rule="evenodd" d="M569.4 75.5031H572.161V52.4966H569.4V75.5031Z" fill="#313131"/>
            <path fill-rule="evenodd" clip-rule="evenodd" d="M574.232 74.6668H576.993V53.3335H574.232V74.6668Z" fill="#313131"/>
            <path fill-rule="evenodd" clip-rule="evenodd" d="M578.373 84.7057H581.134V43.2939H578.373V84.7057Z" fill="#313131"/>
            <path fill-rule="evenodd" clip-rule="evenodd" d="M583.205 87.634H585.966V39.9478H583.205V87.634Z" fill="#313131"/>
            <path fill-rule="evenodd" clip-rule="evenodd" d="M627.377 73.4118H630.138V54.1699H627.377V73.4118Z" fill="#313131"/>
            <path fill-rule="evenodd" clip-rule="evenodd" d="M623.236 83.8693H625.997V43.7124H623.236V83.8693Z" fill="#313131"/>
            <path fill-rule="evenodd" clip-rule="evenodd" d="M618.404 90.1439H621.165V37.438H618.404V90.1439Z" fill="#313131"/>
            <path fill-rule="evenodd" clip-rule="evenodd" d="M614.264 70.4838H617.024V57.0981H614.264V70.4838Z" fill="#313131"/>
            <path fill-rule="evenodd" clip-rule="evenodd" d="M609.432 72.5751H612.192V55.4248H609.432V72.5751Z" fill="#313131"/>
            <path fill-rule="evenodd" clip-rule="evenodd" d="M605.291 73.8301H608.052V54.1699H605.291V73.8301Z" fill="#313131"/>
            <path fill-rule="evenodd" clip-rule="evenodd" d="M601.15 80.5228H603.911V47.4771H601.15V80.5228Z" fill="#313131"/>
            <path fill-rule="evenodd" clip-rule="evenodd" d="M596.318 93.9083H599.079V34.0913H596.318V93.9083Z" fill="#313131"/>
            <path fill-rule="evenodd" clip-rule="evenodd" d="M592.178 72.9933H594.938V55.0063H592.178V72.9933Z" fill="#313131"/>
            <path fill-rule="evenodd" clip-rule="evenodd" d="M587.346 82.1959H590.106V45.8037H587.346V82.1959Z" fill="#313131"/>
            <path fill-rule="evenodd" clip-rule="evenodd" d="M632.207 73.4118H634.968V54.1699H632.207V73.4118Z" fill="#313131"/>
            <path fill-rule="evenodd" clip-rule="evenodd" d="M636.35 75.9216H639.11V51.6602H636.35V75.9216Z" fill="#313131"/>
            <path fill-rule="evenodd" clip-rule="evenodd" d="M641.18 78.4314H643.94V49.1504H641.18V78.4314Z" fill="#313131"/>
            <path fill-rule="evenodd" clip-rule="evenodd" d="M645.322 70.4838H648.083V57.0981H645.322V70.4838Z" fill="#313131"/>
            <path fill-rule="evenodd" clip-rule="evenodd" d="M649.463 83.4508H652.224V44.5488H649.463V83.4508Z" fill="#313131"/>
            <path fill-rule="evenodd" clip-rule="evenodd" d="M654.293 80.9413H657.054V46.6406H654.293V80.9413Z" fill="#313131"/>
            <path fill-rule="evenodd" clip-rule="evenodd" d="M658.436 71.7387H661.196V55.8433H658.436V71.7387Z" fill="#313131"/>
            <path fill-rule="evenodd" clip-rule="evenodd" d="M663.266 71.3202H666.026V56.6797H663.266V71.3202Z" fill="#313131"/>
            <path fill-rule="evenodd" clip-rule="evenodd" d="M667.408 80.9409H670.169V47.0586H667.408V80.9409Z" fill="#313131"/>
            <path fill-rule="evenodd" clip-rule="evenodd" d="M672.238 74.6667H674.999V52.915H672.238V74.6667Z" fill="#313131"/>
            <path fill-rule="evenodd" clip-rule="evenodd" d="M716.41 67.9741H719.171V60.0264H716.41V67.9741Z" fill="#313131"/>
            <path fill-rule="evenodd" clip-rule="evenodd" d="M712.27 75.9216H715.03V51.6602H712.27V75.9216Z" fill="#313131"/>
            <path fill-rule="evenodd" clip-rule="evenodd" d="M707.438 78.4314H710.198V49.1504H707.438V78.4314Z" fill="#313131"/>
            <path fill-rule="evenodd" clip-rule="evenodd" d="M703.297 74.6668H706.058V53.3335H703.297V74.6668Z" fill="#313131"/>
            <path fill-rule="evenodd" clip-rule="evenodd" d="M698.465 72.157H701.226V55.8433H698.465V72.157Z" fill="#313131"/>
            <path fill-rule="evenodd" clip-rule="evenodd" d="M694.324 82.1959H697.085V45.8037H694.324V82.1959Z" fill="#313131"/>
            <path fill-rule="evenodd" clip-rule="evenodd" d="M689.492 75.0848H692.253V52.4966H689.492V75.0848Z" fill="#313131"/>
            <path fill-rule="evenodd" clip-rule="evenodd" d="M685.352 73.8299H688.112V53.7515H685.352V73.8299Z" fill="#313131"/>
            <path fill-rule="evenodd" clip-rule="evenodd" d="M681.211 81.3596H683.972V46.6406H681.211V81.3596Z" fill="#313131"/>
            <path fill-rule="evenodd" clip-rule="evenodd" d="M676.379 70.0651H679.14V57.5161H676.379V70.0651Z" fill="#313131"/>
            <path fill-rule="evenodd" clip-rule="evenodd" d="M721.242 73.4118H724.003V54.1699H721.242V73.4118Z" fill="#313131"/>
            <path fill-rule="evenodd" clip-rule="evenodd" d="M725.383 67.1373H728.144V60.8628H725.383V67.1373Z" fill="#313131"/>
        </g>
    </g>
    <mask id="mask1" mask-type="alpha" maskUnits="userSpaceOnUse" x="0" y="0" width="728" height="64">
        <rect width="728" height="63.9225" fill="white"/>
    </mask>
    <g mask="url(#mask1)">
        <path fill-rule="evenodd" clip-rule="evenodd" d="M133.847 127.845H136.606V0H133.847V127.845ZM44.8455 122.832H47.6052V5.01353H44.8455V122.832ZM20.6979 119.489H17.9382V7.5203H20.6979V119.489ZM13.7986 97.7639H16.5583V29.2456H13.7986V97.7639ZM11.7288 83.5589H8.9691V43.4506H11.7288V83.5589ZM4.82952 76.8742H7.58924V50.9709H4.82952V76.8742ZM0 69.3539H2.75972V58.4912H0V69.3539ZM22.0778 89.408H24.8375V37.6015H22.0778V89.408ZM29.667 100.271H26.9073V27.5744H29.667V100.271ZM31.0469 101.106H33.8066V26.7388H31.0469V101.106ZM38.6361 111.133H35.8764V16.7118H38.6361V111.133ZM40.016 119.489H42.7757V7.5203H40.016V119.489ZM87.6212 82.7233H84.8615V44.2862H87.6212V82.7233ZM80.032 79.3809H82.7917V48.4641H80.032V79.3809ZM78.6521 84.3944H75.8924V43.4506H78.6521V84.3944ZM71.0629 86.0656H73.8226V41.7794H71.0629V86.0656ZM69.683 77.7097H66.9233V50.1353H69.683V77.7097ZM62.0938 71.8606H64.8535V55.9844H62.0938V71.8606ZM60.7139 80.2165H57.9542V47.6286H60.7139V80.2165ZM53.8146 88.5724H56.5743V39.2727H53.8146V88.5724ZM51.7448 115.311H48.9851V12.5338H51.7448V115.311ZM91.7608 82.7233H89.0011V44.2862H91.7608V82.7233ZM93.8306 107.791H96.5903V20.0541H93.8306V107.791ZM100.73 76.8742H97.9702V50.9709H100.73V76.8742ZM102.11 110.298H104.869V17.5474H102.11V110.298ZM109.699 118.654H106.939V8.35589H109.699V118.654ZM111.079 119.489H113.839V8.35589H111.079V119.489ZM118.668 117.818H115.908V10.0271H118.668V117.818ZM120.048 90.2436H122.808V37.6015H120.048V90.2436ZM127.637 94.4215H124.877V33.4235H127.637V94.4215ZM129.017 89.408H131.777V38.4371H129.017V89.408ZM176.622 68.5183H173.863V58.4912H176.622V68.5183ZM169.033 72.6962H171.793V55.1488H169.033V72.6962ZM167.653 81.0521H164.893V46.793H167.653V81.0521ZM160.064 97.7639H162.824V29.2456H160.064V97.7639ZM158.684 102.777H155.924V25.0677H158.684V102.777ZM151.095 107.791H153.855V20.0541H151.095V107.791ZM149.715 112.804H146.955V15.0406H149.715V112.804ZM142.816 97.7639H145.575V30.0812H142.816V97.7639ZM140.746 104.449H137.986V23.3965H140.746V104.449ZM180.762 67.6827H178.002V59.3268H180.762V67.6827ZM182.832 76.0386H185.591V51.8065H182.832V76.0386ZM189.731 83.5589H186.971V43.4506H189.731V83.5589ZM191.111 90.2436H193.871V36.7659H191.111V90.2436ZM198.7 95.2571H195.94V31.7524H198.7V95.2571ZM200.08 101.942H202.84V25.9032H200.08V101.942ZM207.669 86.9012H204.909V40.9438H207.669V86.9012ZM209.049 85.23H211.809V42.615H209.049V85.23ZM216.638 105.284H213.879V22.5609H216.638V105.284ZM218.018 111.133H220.778V15.8762H218.018V111.133ZM265.623 82.7233H262.864V44.2862H265.623V82.7233ZM258.034 103.613H260.794V23.3965H258.034V103.613ZM256.654 116.147H253.895V10.8627H256.654V116.147ZM249.065 76.8742H251.825V50.1353H249.065V76.8742ZM247.685 81.0521H244.925V46.793H247.685V81.0521ZM240.096 83.5589H242.856V44.2862H240.096V83.5589ZM238.716 96.9283H235.956V30.9168H238.716V96.9283ZM231.127 123.667H233.887V4.17794H231.127V123.667ZM229.747 105.284H226.987V21.7253H229.747V105.284ZM222.848 100.271H225.607V27.5744H222.848V100.271ZM269.763 82.7233H267.003V44.2862H269.763V82.7233ZM271.143 87.7368H273.903V39.2727H271.143V87.7368ZM278.732 92.7503H275.972V34.2591H278.732V92.7503ZM280.112 76.8742H282.872V50.1353H280.112V76.8742ZM287.701 102.777H284.941V25.0677H287.701V102.777ZM289.081 97.7639H291.841V29.2456H289.081V97.7639ZM296.67 79.3809H293.911V47.6286H296.67V79.3809ZM298.05 84.3944H300.81V42.615H298.05V84.3944ZM305.639 97.7639H302.88V30.0812H305.639V97.7639Z" fill="url(#paint1_radial)"/>
        <path fill-rule="evenodd" clip-rule="evenodd" d="M307.02 85.2299H309.779V41.7793H307.02V85.2299Z" fill="#313131"/>
        <path fill-rule="evenodd" clip-rule="evenodd" d="M351.865 71.8605H354.625V55.9844H351.865V71.8605Z" fill="#313131"/>
        <path fill-rule="evenodd" clip-rule="evenodd" d="M347.035 87.7366H349.795V39.2725H347.035V87.7366Z" fill="#313131"/>
        <path fill-rule="evenodd" clip-rule="evenodd" d="M342.896 92.7505H345.656V34.2593H342.896V92.7505Z" fill="#313131"/>
        <path fill-rule="evenodd" clip-rule="evenodd" d="M338.066 85.2303H340.826V42.6152H338.066V85.2303Z" fill="#313131"/>
        <path fill-rule="evenodd" clip-rule="evenodd" d="M333.926 102.778H336.686V25.0679H333.926V102.778Z" fill="#313131"/>
        <path fill-rule="evenodd" clip-rule="evenodd" d="M329.098 100.27H331.857V27.5742H329.098V100.27Z" fill="#313131"/>
        <path fill-rule="evenodd" clip-rule="evenodd" d="M324.957 86.0656H327.717V40.9438H324.957V86.0656Z" fill="#313131"/>
        <path fill-rule="evenodd" clip-rule="evenodd" d="M320.129 99.4348H322.889V27.5742H320.129V99.4348Z" fill="#313131"/>
        <path fill-rule="evenodd" clip-rule="evenodd" d="M315.988 98.5995H318.748V29.2456H315.988V98.5995Z" fill="#313131"/>
        <path fill-rule="evenodd" clip-rule="evenodd" d="M311.158 76.0384H313.918V50.9707H311.158V76.0384Z" fill="#313131"/>
        <path fill-rule="evenodd" clip-rule="evenodd" d="M356.004 82.7232H358.764V44.2861H356.004V82.7232Z" fill="#313131"/>
        <path fill-rule="evenodd" clip-rule="evenodd" d="M360.145 70.1896H362.904V57.6558H360.145V70.1896Z" fill="#313131"/>
        <path fill-rule="evenodd" clip-rule="evenodd" d="M364.973 69.3539H367.732V58.4912H364.973V69.3539Z" fill="#313131"/>
        <path fill-rule="evenodd" clip-rule="evenodd" d="M369.113 76.874H371.873V50.9707H369.113V76.874Z" fill="#313131"/>
        <path fill-rule="evenodd" clip-rule="evenodd" d="M373.943 83.5589H376.703V43.4507H373.943V83.5589Z" fill="#313131"/>
        <path fill-rule="evenodd" clip-rule="evenodd" d="M378.082 97.7639H380.842V29.2456H378.082V97.7639Z" fill="#313131"/>
        <path fill-rule="evenodd" clip-rule="evenodd" d="M382.912 119.489H385.672V7.52051H382.912V119.489Z" fill="#313131"/>
        <path fill-rule="evenodd" clip-rule="evenodd" d="M387.051 89.4081H389.811V37.6016H387.051V89.4081Z" fill="#313131"/>
        <path fill-rule="evenodd" clip-rule="evenodd" d="M391.881 100.27H394.641V27.5742H391.881V100.27Z" fill="#313131"/>
        <path fill-rule="evenodd" clip-rule="evenodd" d="M396.02 82.7231H398.779V45.1216H396.02V82.7231Z" fill="#313131"/>
        <path fill-rule="evenodd" clip-rule="evenodd" d="M400.16 111.133H402.92V16.7119H400.16V111.133Z" fill="#313131"/>
        <path fill-rule="evenodd" clip-rule="evenodd" d="M404.99 119.489H407.75V7.52051H404.99V119.489Z" fill="#313131"/>
        <path fill-rule="evenodd" clip-rule="evenodd" d="M449.145 82.7232H451.904V44.2861H449.145V82.7232Z" fill="#313131"/>
        <path fill-rule="evenodd" clip-rule="evenodd" d="M445.006 79.3811H447.766V48.4644H445.006V79.3811Z" fill="#313131"/>
        <path fill-rule="evenodd" clip-rule="evenodd" d="M440.176 84.3945H442.936V43.4507H440.176V84.3945Z" fill="#313131"/>
        <path fill-rule="evenodd" clip-rule="evenodd" d="M436.037 86.0655H438.797V41.7793H436.037V86.0655Z" fill="#313131"/>
        <path fill-rule="evenodd" clip-rule="evenodd" d="M431.896 77.7097H434.656V50.1353H431.896V77.7097Z" fill="#313131"/>
        <path fill-rule="evenodd" clip-rule="evenodd" d="M427.066 71.8605H429.826V55.9844H427.066V71.8605Z" fill="#313131"/>
        <path fill-rule="evenodd" clip-rule="evenodd" d="M422.928 80.2164H425.687V47.6284H422.928V80.2164Z" fill="#313131"/>
        <path fill-rule="evenodd" clip-rule="evenodd" d="M418.098 88.5722H420.857V39.2725H418.098V88.5722Z" fill="#313131"/>
        <path fill-rule="evenodd" clip-rule="evenodd" d="M413.959 115.311H416.719V12.5337H413.959V115.311Z" fill="#313131"/>
        <path fill-rule="evenodd" clip-rule="evenodd" d="M409.129 122.832H411.889V5.01367H409.129V122.832Z" fill="#313131"/>
        <path fill-rule="evenodd" clip-rule="evenodd" d="M453.975 82.7232H456.734V44.2861H453.975V82.7232Z" fill="#313131"/>
        <path fill-rule="evenodd" clip-rule="evenodd" d="M458.113 107.791H460.873V20.0542H458.113V107.791Z" fill="#313131"/>
        <path fill-rule="evenodd" clip-rule="evenodd" d="M462.943 76.874H465.703V50.9707H462.943V76.874Z" fill="#313131"/>
        <path fill-rule="evenodd" clip-rule="evenodd" d="M467.084 110.298H469.844V17.5474H467.084V110.298Z" fill="#313131"/>
        <path fill-rule="evenodd" clip-rule="evenodd" d="M471.912 118.654H474.672V8.35596H471.912V118.654Z" fill="#313131"/>
        <path fill-rule="evenodd" clip-rule="evenodd" d="M476.053 89.4081H478.812V37.6016H476.053V89.4081Z" fill="#313131"/>
        <path fill-rule="evenodd" clip-rule="evenodd" d="M480.191 117.818H482.951V10.0269H480.191V117.818Z" fill="#313131"/>
        <path fill-rule="evenodd" clip-rule="evenodd" d="M485.021 90.2436H487.781V37.6016H485.021V90.2436Z" fill="#313131"/>
        <path fill-rule="evenodd" clip-rule="evenodd" d="M489.16 94.4213H491.92V33.4233H489.16V94.4213Z" fill="#313131"/>
        <path fill-rule="evenodd" clip-rule="evenodd" d="M493.99 89.4079H496.75V38.437H493.99V89.4079Z" fill="#313131"/>
        <path fill-rule="evenodd" clip-rule="evenodd" d="M538.146 68.5183H540.906V58.4912H538.146V68.5183Z" fill="#313131"/>
        <path fill-rule="evenodd" clip-rule="evenodd" d="M534.006 72.6963H536.766V55.1489H534.006V72.6963Z" fill="#313131"/>
        <path fill-rule="evenodd" clip-rule="evenodd" d="M529.178 81.0521H531.937V46.793H529.178V81.0521Z" fill="#313131"/>
        <path fill-rule="evenodd" clip-rule="evenodd" d="M525.037 97.7639H527.797V29.2456H525.037V97.7639Z" fill="#313131"/>
        <path fill-rule="evenodd" clip-rule="evenodd" d="M520.207 102.778H522.967V25.0679H520.207V102.778Z" fill="#313131"/>
        <path fill-rule="evenodd" clip-rule="evenodd" d="M516.068 107.791H518.828V20.0542H516.068V107.791Z" fill="#313131"/>
        <path fill-rule="evenodd" clip-rule="evenodd" d="M511.93 112.804H514.689V15.0405H511.93V112.804Z" fill="#313131"/>
        <path fill-rule="evenodd" clip-rule="evenodd" d="M507.1 97.7637H509.859V30.0811H507.1V97.7637Z" fill="#313131"/>
        <path fill-rule="evenodd" clip-rule="evenodd" d="M502.959 104.449H505.719V23.3965H502.959V104.449Z" fill="#313131"/>
        <path fill-rule="evenodd" clip-rule="evenodd" d="M498.131 127.845H500.891V0H498.131V127.845Z" fill="#313131"/>
        <path fill-rule="evenodd" clip-rule="evenodd" d="M542.977 67.6825H545.736V59.3267H542.977V67.6825Z" fill="#313131"/>
        <path fill-rule="evenodd" clip-rule="evenodd" d="M547.115 76.0387H549.875V51.8066H547.115V76.0387Z" fill="#313131"/>
        <path fill-rule="evenodd" clip-rule="evenodd" d="M551.945 83.5589H554.705V43.4507H551.945V83.5589Z" fill="#313131"/>
        <path fill-rule="evenodd" clip-rule="evenodd" d="M556.084 90.2438H558.844V36.7661H556.084V90.2438Z" fill="#313131"/>
        <path fill-rule="evenodd" clip-rule="evenodd" d="M560.225 95.2572H562.984V31.7524H560.225V95.2572Z" fill="#313131"/>
        <path fill-rule="evenodd" clip-rule="evenodd" d="M565.053 101.942H567.812V25.9033H565.053V101.942Z" fill="#313131"/>
        <path fill-rule="evenodd" clip-rule="evenodd" d="M569.193 86.9012H571.953V40.9438H569.193V86.9012Z" fill="#313131"/>
        <path fill-rule="evenodd" clip-rule="evenodd" d="M574.023 85.2303H576.783V42.6152H574.023V85.2303Z" fill="#313131"/>
        <path fill-rule="evenodd" clip-rule="evenodd" d="M578.162 105.284H580.922V22.561H578.162V105.284Z" fill="#313131"/>
        <path fill-rule="evenodd" clip-rule="evenodd" d="M582.992 111.133H585.752V15.876H582.992V111.133Z" fill="#313131"/>
        <path fill-rule="evenodd" clip-rule="evenodd" d="M627.146 82.7232H629.906V44.2861H627.146V82.7232Z" fill="#313131"/>
        <path fill-rule="evenodd" clip-rule="evenodd" d="M623.008 103.613H625.768V23.3965H623.008V103.613Z" fill="#313131"/>
        <path fill-rule="evenodd" clip-rule="evenodd" d="M618.178 116.147H620.937V10.8628H618.178V116.147Z" fill="#313131"/>
        <path fill-rule="evenodd" clip-rule="evenodd" d="M614.039 76.8741H616.799V50.1353H614.039V76.8741Z" fill="#313131"/>
        <path fill-rule="evenodd" clip-rule="evenodd" d="M609.209 81.0521H611.969V46.793H609.209V81.0521Z" fill="#313131"/>
        <path fill-rule="evenodd" clip-rule="evenodd" d="M605.07 83.5588H607.83V44.2861H605.07V83.5588Z" fill="#313131"/>
        <path fill-rule="evenodd" clip-rule="evenodd" d="M600.93 96.9285H603.689V30.917H600.93V96.9285Z" fill="#313131"/>
        <path fill-rule="evenodd" clip-rule="evenodd" d="M596.1 123.667H598.859V4.17773H596.1V123.667Z" fill="#313131"/>
        <path fill-rule="evenodd" clip-rule="evenodd" d="M591.961 81.8878H594.721V45.9575H591.961V81.8878Z" fill="#313131"/>
        <path fill-rule="evenodd" clip-rule="evenodd" d="M587.131 100.27H589.891V27.5742H587.131V100.27Z" fill="#313131"/>
        <path fill-rule="evenodd" clip-rule="evenodd" d="M631.977 82.7232H634.736V44.2861H631.977V82.7232Z" fill="#313131"/>
        <path fill-rule="evenodd" clip-rule="evenodd" d="M636.117 87.7366H638.877V39.2725H636.117V87.7366Z" fill="#313131"/>
        <path fill-rule="evenodd" clip-rule="evenodd" d="M640.945 92.7505H643.705V34.2593H640.945V92.7505Z" fill="#313131"/>
        <path fill-rule="evenodd" clip-rule="evenodd" d="M645.086 76.8741H647.846V50.1353H645.086V76.8741Z" fill="#313131"/>
        <path fill-rule="evenodd" clip-rule="evenodd" d="M649.225 102.778H651.984V25.0679H649.225V102.778Z" fill="#313131"/>
        <path fill-rule="evenodd" clip-rule="evenodd" d="M654.055 97.7639H656.814V29.2456H654.055V97.7639Z" fill="#313131"/>
        <path fill-rule="evenodd" clip-rule="evenodd" d="M658.193 79.3808H660.953V47.6284H658.193V79.3808Z" fill="#313131"/>
        <path fill-rule="evenodd" clip-rule="evenodd" d="M663.023 78.5454H665.783V49.2998H663.023V78.5454Z" fill="#313131"/>
        <path fill-rule="evenodd" clip-rule="evenodd" d="M667.164 97.7637H669.924V30.0811H667.164V97.7637Z" fill="#313131"/>
        <path fill-rule="evenodd" clip-rule="evenodd" d="M671.992 85.2299H674.752V41.7793H671.992V85.2299Z" fill="#313131"/>
        <path fill-rule="evenodd" clip-rule="evenodd" d="M716.148 71.8605H718.908V55.9844H716.148V71.8605Z" fill="#313131"/>
        <path fill-rule="evenodd" clip-rule="evenodd" d="M712.008 87.7366H714.768V39.2725H712.008V87.7366Z" fill="#313131"/>
        <path fill-rule="evenodd" clip-rule="evenodd" d="M707.18 92.7505H709.939V34.2593H707.18V92.7505Z" fill="#313131"/>
        <path fill-rule="evenodd" clip-rule="evenodd" d="M703.039 85.2303H705.799V42.6152H703.039V85.2303Z" fill="#313131"/>
        <path fill-rule="evenodd" clip-rule="evenodd" d="M698.211 80.2164H700.971V47.6284H698.211V80.2164Z" fill="#313131"/>
        <path fill-rule="evenodd" clip-rule="evenodd" d="M694.07 100.27H696.83V27.5742H694.07V100.27Z" fill="#313131"/>
        <path fill-rule="evenodd" clip-rule="evenodd" d="M689.24 86.0656H692V40.9438H689.24V86.0656Z" fill="#313131"/>
        <path fill-rule="evenodd" clip-rule="evenodd" d="M685.102 83.5589H687.861V43.4507H685.102V83.5589Z" fill="#313131"/>
        <path fill-rule="evenodd" clip-rule="evenodd" d="M680.961 98.5995H683.721V29.2456H680.961V98.5995Z" fill="#313131"/>
        <path fill-rule="evenodd" clip-rule="evenodd" d="M676.133 76.0384H678.893V50.9707H676.133V76.0384Z" fill="#313131"/>
        <path fill-rule="evenodd" clip-rule="evenodd" d="M720.979 82.7232H723.738V44.2861H720.979V82.7232Z" fill="#313131"/>
        <path fill-rule="evenodd" clip-rule="evenodd" d="M725.117 70.1896H727.877V57.6558H725.117V70.1896Z" fill="#313131"/>
    </g>
    <defs>
        <radialGradient id="paint0_radial" cx="0" cy="0" r="1" gradientUnits="userSpaceOnUse" gradientTransform="translate(0 32) rotate(9.06445) scale(314.019 53.1968)">
            <stop stop-color="#4297FE"/>
            <stop offset="1" stop-color="#DD61B9"/>
        </radialGradient>
        <radialGradient id="paint1_radial" cx="0" cy="0" r="1" gradientUnits="userSpaceOnUse" gradientTransform="rotate(17.6826) scale(325.356 102.525)">
            <stop stop-color="#4297FE"/>
            <stop offset="1" stop-color="#DD61B9"/>
        </radialGradient>
    </defs>
</svg>
