<svg width="1800" height="96" viewBox="0 0 1800 96" fill="none" xmlns="http://www.w3.org/2000/svg">
    <g opacity="0.298363">
        <mask id="mask0" mask-type="alpha" maskUnits="userSpaceOnUse" x="0" y="64" width="1800" height="32">
            <rect y="64" width="1800" height="32" fill="white"/>
        </mask>
        <g mask="url(#mask0)">
            <path fill-rule="evenodd" clip-rule="evenodd" d="M133.896 96H136.656V32H133.896V96ZM44.8619 93.4902H47.6227V34.5098H44.8619V93.4902ZM20.7055 91.817H17.9448V35.7647H20.7055V91.817ZM13.8037 80.9412H16.5644V46.6405H13.8037V80.9412ZM11.7331 73.8301H8.97238V53.7516H11.7331V73.8301ZM4.83128 70.4837H7.59202V57.5163H4.83128V70.4837ZM0 66.7189H2.76073V61.281H0V66.7189ZM22.0859 76.7582H24.8466V50.8235H22.0859V76.7582ZM29.6779 82.1961H26.9171V45.8039H29.6779V82.1961ZM31.0583 82.6144H33.819V45.3856H31.0583V82.6144ZM38.6503 87.634H35.8895V40.366H38.6503V87.634ZM40.0306 91.817H42.7914V35.7647H40.0306V91.817ZM87.6533 73.4118H84.8925V54.1699H87.6533V73.4118ZM80.0613 71.7386H82.822V56.2614H80.0613V71.7386ZM78.6809 74.2484H75.9202V53.7516H78.6809V74.2484ZM71.0889 75.085H73.8496V52.915H71.0889V75.085ZM69.7085 70.902H66.9478V57.098H69.7085V70.902ZM62.1165 67.9739H64.8772V60.0261H62.1165V67.9739ZM60.7361 72.1569H57.9754V55.8431H60.7361V72.1569ZM53.8343 76.3399H56.595V51.6601H53.8343V76.3399ZM51.7638 89.7255H49.003V38.2745H51.7638V89.7255ZM91.7944 73.4118H89.0337V54.1699H91.7944V73.4118ZM93.8649 85.9608H96.6257V42.0392H93.8649V85.9608ZM100.767 70.4837H98.006V57.5163H100.767V70.4837ZM102.147 87.2157H104.908V40.7843H102.147V87.2157ZM109.739 91.3987H106.978V36.183H109.739V91.3987ZM111.12 91.817H113.88V36.183H111.12V91.817ZM118.712 90.9804H115.951V37.0196H118.712V90.9804ZM120.092 77.1765H122.853V50.8235H120.092V77.1765ZM127.684 79.268H124.923V48.732H127.684V79.268ZM129.064 76.7582H131.825V51.2418H129.064V76.7582ZM176.687 66.3006H173.926V61.281H176.687V66.3006ZM169.095 68.3922H171.856V59.6078H169.095V68.3922ZM167.715 72.5752H164.954V55.4248H167.715V72.5752ZM160.123 80.9412H162.883V46.6405H160.123V80.9412ZM158.742 83.451H155.981V44.549H158.742V83.451ZM151.15 85.9608H153.911V42.0392H151.15V85.9608ZM149.77 88.4706H147.009V39.5294H149.77V88.4706ZM142.868 80.9412H145.629V47.0588H142.868V80.9412ZM140.797 84.2876H138.037V43.7124H140.797V84.2876ZM180.828 65.8823H178.067V61.6993H180.828V65.8823ZM182.899 70.0654H185.659V57.9346H182.899V70.0654ZM189.8 73.8301H187.04V53.7516H189.8V73.8301ZM191.181 77.1765H193.942V50.4052H191.181V77.1765ZM198.773 79.6863H196.012V47.8954H198.773V79.6863ZM200.153 83.0327H202.914V44.9673H200.153V83.0327ZM207.745 75.5033H204.984V52.4967H207.745V75.5033ZM209.126 74.6667H211.886V53.3333H209.126V74.6667ZM216.718 84.7059H213.957V43.2941H216.718V84.7059ZM218.098 87.634H220.859V39.9477H218.098V87.634ZM265.721 73.4118H262.96V54.1699H265.721V73.4118ZM258.129 83.8693H260.889V43.7124H258.129V83.8693ZM256.748 90.1438H253.987V37.4379H256.748V90.1438ZM249.156 70.4837H251.917V57.098H249.156V70.4837ZM247.776 72.5752H245.015V55.4248H247.776V72.5752ZM240.184 73.8301H242.945V54.1699H240.184V73.8301ZM238.803 80.5229H236.043V47.4771H238.803V80.5229ZM231.211 93.9085H233.972V34.0915H231.211V93.9085ZM229.831 84.7059H227.07V42.8758H229.831V84.7059ZM222.929 82.1961H225.69V45.8039H222.929V82.1961ZM269.862 73.4118H267.101V54.1699H269.862V73.4118ZM271.242 75.9216H274.003V51.6601H271.242V75.9216ZM278.834 78.4314H276.073V49.1503H278.834V78.4314ZM280.214 70.4837H282.975V57.098H280.214V70.4837ZM287.806 83.451H285.046V44.549H287.806V83.451ZM289.187 80.9412H291.948V46.6405H289.187V80.9412ZM296.779 71.7386H294.018V55.8431H296.779V71.7386ZM298.159 74.2484H300.92V53.3333H298.159V74.2484ZM305.751 80.9412H302.99V47.0588H305.751V80.9412Z" fill="url(#paint0_radial)"/>
            <path fill-rule="evenodd" clip-rule="evenodd" d="M307.132 74.6667H309.893V52.915H307.132V74.6667Z" fill="#313131"/>
            <path fill-rule="evenodd" clip-rule="evenodd" d="M351.994 67.9739H354.754V60.0262H351.994V67.9739Z" fill="#313131"/>
            <path fill-rule="evenodd" clip-rule="evenodd" d="M347.162 75.9216H349.923V51.6601H347.162V75.9216Z" fill="#313131"/>
            <path fill-rule="evenodd" clip-rule="evenodd" d="M343.021 78.4314H345.782V49.1503H343.021V78.4314Z" fill="#313131"/>
            <path fill-rule="evenodd" clip-rule="evenodd" d="M338.19 74.6667H340.951V53.3333H338.19V74.6667Z" fill="#313131"/>
            <path fill-rule="evenodd" clip-rule="evenodd" d="M334.049 83.451H336.81V44.549H334.049V83.451Z" fill="#313131"/>
            <path fill-rule="evenodd" clip-rule="evenodd" d="M329.217 82.1961H331.978V45.8039H329.217V82.1961Z" fill="#313131"/>
            <path fill-rule="evenodd" clip-rule="evenodd" d="M325.076 75.085H327.837V52.4967H325.076V75.085Z" fill="#313131"/>
            <path fill-rule="evenodd" clip-rule="evenodd" d="M320.245 81.7778H323.006V45.8039H320.245V81.7778Z" fill="#313131"/>
            <path fill-rule="evenodd" clip-rule="evenodd" d="M316.104 81.3595H318.865V46.6405H316.104V81.3595Z" fill="#313131"/>
            <path fill-rule="evenodd" clip-rule="evenodd" d="M311.272 70.0654H314.033V57.5164H311.272V70.0654Z" fill="#313131"/>
            <path fill-rule="evenodd" clip-rule="evenodd" d="M356.135 73.4118H358.895V54.1699H356.135V73.4118Z" fill="#313131"/>
            <path fill-rule="evenodd" clip-rule="evenodd" d="M360.276 67.1372H363.037V60.8627H360.276V67.1372Z" fill="#313131"/>
            <path fill-rule="evenodd" clip-rule="evenodd" d="M365.107 66.7189H367.868V61.281H365.107V66.7189Z" fill="#313131"/>
            <path fill-rule="evenodd" clip-rule="evenodd" d="M369.248 70.4837H372.009V57.5164H369.248V70.4837Z" fill="#313131"/>
            <path fill-rule="evenodd" clip-rule="evenodd" d="M374.079 73.8301H376.84V53.7516H374.079V73.8301Z" fill="#313131"/>
            <path fill-rule="evenodd" clip-rule="evenodd" d="M378.221 80.9412H380.981V46.6405H378.221V80.9412Z" fill="#313131"/>
            <path fill-rule="evenodd" clip-rule="evenodd" d="M383.052 91.817H385.812V35.7647H383.052V91.817Z" fill="#313131"/>
            <path fill-rule="evenodd" clip-rule="evenodd" d="M387.193 76.7582H389.954V50.8235H387.193V76.7582Z" fill="#313131"/>
            <path fill-rule="evenodd" clip-rule="evenodd" d="M392.024 82.1961H394.785V45.8039H392.024V82.1961Z" fill="#313131"/>
            <path fill-rule="evenodd" clip-rule="evenodd" d="M396.165 73.4118H398.926V54.5882H396.165V73.4118Z" fill="#313131"/>
            <path fill-rule="evenodd" clip-rule="evenodd" d="M400.306 87.634H403.067V40.366H400.306V87.634Z" fill="#313131"/>
            <path fill-rule="evenodd" clip-rule="evenodd" d="M405.138 91.817H407.898V35.7647H405.138V91.817Z" fill="#313131"/>
            <path fill-rule="evenodd" clip-rule="evenodd" d="M449.31 73.4118H452.07V54.1699H449.31V73.4118Z" fill="#313131"/>
            <path fill-rule="evenodd" clip-rule="evenodd" d="M445.168 71.7386H447.929V56.2614H445.168V71.7386Z" fill="#313131"/>
            <path fill-rule="evenodd" clip-rule="evenodd" d="M440.337 74.2484H443.098V53.7516H440.337V74.2484Z" fill="#313131"/>
            <path fill-rule="evenodd" clip-rule="evenodd" d="M436.196 75.085H438.957V52.915H436.196V75.085Z" fill="#313131"/>
            <path fill-rule="evenodd" clip-rule="evenodd" d="M432.055 70.9019H434.815V57.098H432.055V70.9019Z" fill="#313131"/>
            <path fill-rule="evenodd" clip-rule="evenodd" d="M427.224 67.9739H429.984V60.0262H427.224V67.9739Z" fill="#313131"/>
            <path fill-rule="evenodd" clip-rule="evenodd" d="M423.083 72.1569H425.843V55.8431H423.083V72.1569Z" fill="#313131"/>
            <path fill-rule="evenodd" clip-rule="evenodd" d="M418.251 76.3399H421.012V51.6601H418.251V76.3399Z" fill="#313131"/>
            <path fill-rule="evenodd" clip-rule="evenodd" d="M414.11 89.7255H416.871V38.2745H414.11V89.7255Z" fill="#313131"/>
            <path fill-rule="evenodd" clip-rule="evenodd" d="M409.279 93.4902H412.04V34.5098H409.279V93.4902Z" fill="#313131"/>
            <path fill-rule="evenodd" clip-rule="evenodd" d="M454.141 73.4118H456.901V54.1699H454.141V73.4118Z" fill="#313131"/>
            <path fill-rule="evenodd" clip-rule="evenodd" d="M458.282 85.9608H461.042V42.0392H458.282V85.9608Z" fill="#313131"/>
            <path fill-rule="evenodd" clip-rule="evenodd" d="M463.113 70.4837H465.874V57.5164H463.113V70.4837Z" fill="#313131"/>
            <path fill-rule="evenodd" clip-rule="evenodd" d="M467.254 87.2157H470.015V40.7843H467.254V87.2157Z" fill="#313131"/>
            <path fill-rule="evenodd" clip-rule="evenodd" d="M472.085 91.3987H474.846V36.183H472.085V91.3987Z" fill="#313131"/>
            <path fill-rule="evenodd" clip-rule="evenodd" d="M476.227 76.7582H478.987V50.8235H476.227V76.7582Z" fill="#313131"/>
            <path fill-rule="evenodd" clip-rule="evenodd" d="M480.368 90.9804H483.128V37.0196H480.368V90.9804Z" fill="#313131"/>
            <path fill-rule="evenodd" clip-rule="evenodd" d="M485.199 77.1765H487.959V50.8235H485.199V77.1765Z" fill="#313131"/>
            <path fill-rule="evenodd" clip-rule="evenodd" d="M489.34 79.268H492.101V48.732H489.34V79.268Z" fill="#313131"/>
            <path fill-rule="evenodd" clip-rule="evenodd" d="M494.171 76.7582H496.932V51.2418H494.171V76.7582Z" fill="#313131"/>
            <path fill-rule="evenodd" clip-rule="evenodd" d="M538.343 66.3006H541.104V61.281H538.343V66.3006Z" fill="#313131"/>
            <path fill-rule="evenodd" clip-rule="evenodd" d="M534.202 68.3922H536.963V59.6078H534.202V68.3922Z" fill="#313131"/>
            <path fill-rule="evenodd" clip-rule="evenodd" d="M529.371 72.5752H532.131V55.4248H529.371V72.5752Z" fill="#313131"/>
            <path fill-rule="evenodd" clip-rule="evenodd" d="M525.229 80.9412H527.99V46.6405H525.229V80.9412Z" fill="#313131"/>
            <path fill-rule="evenodd" clip-rule="evenodd" d="M520.398 83.451H523.159V44.549H520.398V83.451Z" fill="#313131"/>
            <path fill-rule="evenodd" clip-rule="evenodd" d="M516.257 85.9608H519.018V42.0392H516.257V85.9608Z" fill="#313131"/>
            <path fill-rule="evenodd" clip-rule="evenodd" d="M512.116 88.4706H514.877V39.5294H512.116V88.4706Z" fill="#313131"/>
            <path fill-rule="evenodd" clip-rule="evenodd" d="M507.285 80.9412H510.045V47.0588H507.285V80.9412Z" fill="#313131"/>
            <path fill-rule="evenodd" clip-rule="evenodd" d="M503.144 84.2876H505.904V43.7124H503.144V84.2876Z" fill="#313131"/>
            <path fill-rule="evenodd" clip-rule="evenodd" d="M498.312 96H501.073V32H498.312V96Z" fill="#313131"/>
            <path fill-rule="evenodd" clip-rule="evenodd" d="M543.174 65.8823H545.935V61.6993H543.174V65.8823Z" fill="#313131"/>
            <path fill-rule="evenodd" clip-rule="evenodd" d="M547.315 70.0654H550.076V57.9346H547.315V70.0654Z" fill="#313131"/>
            <path fill-rule="evenodd" clip-rule="evenodd" d="M552.146 73.8301H554.907V53.7516H552.146V73.8301Z" fill="#313131"/>
            <path fill-rule="evenodd" clip-rule="evenodd" d="M556.288 77.1765H559.048V50.4052H556.288V77.1765Z" fill="#313131"/>
            <path fill-rule="evenodd" clip-rule="evenodd" d="M560.429 79.6863H563.19V47.8954H560.429V79.6863Z" fill="#313131"/>
            <path fill-rule="evenodd" clip-rule="evenodd" d="M565.26 83.0327H568.021V44.9673H565.26V83.0327Z" fill="#313131"/>
            <path fill-rule="evenodd" clip-rule="evenodd" d="M569.401 75.5033H572.162V52.4967H569.401V75.5033Z" fill="#313131"/>
            <path fill-rule="evenodd" clip-rule="evenodd" d="M574.232 74.6667H576.993V53.3333H574.232V74.6667Z" fill="#313131"/>
            <path fill-rule="evenodd" clip-rule="evenodd" d="M578.374 84.7059H581.134V43.2941H578.374V84.7059Z" fill="#313131"/>
            <path fill-rule="evenodd" clip-rule="evenodd" d="M583.205 87.634H585.966V39.9477H583.205V87.634Z" fill="#313131"/>
            <path fill-rule="evenodd" clip-rule="evenodd" d="M627.376 73.4118H630.137V54.1699H627.376V73.4118Z" fill="#313131"/>
            <path fill-rule="evenodd" clip-rule="evenodd" d="M623.235 83.8693H625.996V43.7124H623.235V83.8693Z" fill="#313131"/>
            <path fill-rule="evenodd" clip-rule="evenodd" d="M618.404 90.1438H621.165V37.4379H618.404V90.1438Z" fill="#313131"/>
            <path fill-rule="evenodd" clip-rule="evenodd" d="M614.263 70.4836H617.024V57.098H614.263V70.4836Z" fill="#313131"/>
            <path fill-rule="evenodd" clip-rule="evenodd" d="M609.432 72.5752H612.192V55.4248H609.432V72.5752Z" fill="#313131"/>
            <path fill-rule="evenodd" clip-rule="evenodd" d="M605.291 73.8301H608.052V54.1699H605.291V73.8301Z" fill="#313131"/>
            <path fill-rule="evenodd" clip-rule="evenodd" d="M601.149 80.5229H603.91V47.4771H601.149V80.5229Z" fill="#313131"/>
            <path fill-rule="evenodd" clip-rule="evenodd" d="M596.318 93.9085H599.079V34.0915H596.318V93.9085Z" fill="#313131"/>
            <path fill-rule="evenodd" clip-rule="evenodd" d="M592.177 72.9935H594.938V55.0065H592.177V72.9935Z" fill="#313131"/>
            <path fill-rule="evenodd" clip-rule="evenodd" d="M587.346 82.1961H590.107V45.8039H587.346V82.1961Z" fill="#313131"/>
            <path fill-rule="evenodd" clip-rule="evenodd" d="M632.208 73.4118H634.969V54.1699H632.208V73.4118Z" fill="#313131"/>
            <path fill-rule="evenodd" clip-rule="evenodd" d="M636.349 75.9216H639.11V51.6601H636.349V75.9216Z" fill="#313131"/>
            <path fill-rule="evenodd" clip-rule="evenodd" d="M641.18 78.4314H643.941V49.1503H641.18V78.4314Z" fill="#313131"/>
            <path fill-rule="evenodd" clip-rule="evenodd" d="M645.321 70.4836H648.082V57.098H645.321V70.4836Z" fill="#313131"/>
            <path fill-rule="evenodd" clip-rule="evenodd" d="M649.462 83.451H652.223V44.549H649.462V83.451Z" fill="#313131"/>
            <path fill-rule="evenodd" clip-rule="evenodd" d="M654.294 80.9412H657.055V46.6405H654.294V80.9412Z" fill="#313131"/>
            <path fill-rule="evenodd" clip-rule="evenodd" d="M658.435 71.7386H661.196V55.8431H658.435V71.7386Z" fill="#313131"/>
            <path fill-rule="evenodd" clip-rule="evenodd" d="M663.266 71.3203H666.027V56.6797H663.266V71.3203Z" fill="#313131"/>
            <path fill-rule="evenodd" clip-rule="evenodd" d="M667.407 80.9412H670.168V47.0588H667.407V80.9412Z" fill="#313131"/>
            <path fill-rule="evenodd" clip-rule="evenodd" d="M672.239 74.6667H675V52.915H672.239V74.6667Z" fill="#313131"/>
            <path fill-rule="evenodd" clip-rule="evenodd" d="M716.41 67.9739H719.171V60.0262H716.41V67.9739Z" fill="#313131"/>
            <path fill-rule="evenodd" clip-rule="evenodd" d="M712.269 75.9216H715.03V51.6601H712.269V75.9216Z" fill="#313131"/>
            <path fill-rule="evenodd" clip-rule="evenodd" d="M707.438 78.4314H710.199V49.1503H707.438V78.4314Z" fill="#313131"/>
            <path fill-rule="evenodd" clip-rule="evenodd" d="M703.297 74.6667H706.058V53.3333H703.297V74.6667Z" fill="#313131"/>
            <path fill-rule="evenodd" clip-rule="evenodd" d="M698.465 72.1569H701.226V55.8431H698.465V72.1569Z" fill="#313131"/>
            <path fill-rule="evenodd" clip-rule="evenodd" d="M694.324 82.1961H697.085V45.8039H694.324V82.1961Z" fill="#313131"/>
            <path fill-rule="evenodd" clip-rule="evenodd" d="M689.493 75.085H692.254V52.4967H689.493V75.085Z" fill="#313131"/>
            <path fill-rule="evenodd" clip-rule="evenodd" d="M685.352 73.8301H688.113V53.7516H685.352V73.8301Z" fill="#313131"/>
            <path fill-rule="evenodd" clip-rule="evenodd" d="M681.211 81.3595H683.972V46.6405H681.211V81.3595Z" fill="#313131"/>
            <path fill-rule="evenodd" clip-rule="evenodd" d="M676.38 70.0654H679.141V57.5164H676.38V70.0654Z" fill="#313131"/>
            <path fill-rule="evenodd" clip-rule="evenodd" d="M721.242 73.4118H724.003V54.1699H721.242V73.4118Z" fill="#313131"/>
            <path fill-rule="evenodd" clip-rule="evenodd" d="M725.383 67.1372H728.144V60.8627H725.383V67.1372Z" fill="#313131"/>
            <path fill-rule="evenodd" clip-rule="evenodd" d="M730 69.7189H732.761V64.281H730V69.7189Z" fill="#313131"/>
            <path fill-rule="evenodd" clip-rule="evenodd" d="M734.141 73.4836H736.902V60.5163H734.141V73.4836Z" fill="#313131"/>
            <path fill-rule="evenodd" clip-rule="evenodd" d="M738.972 76.8301H741.733V56.7516H738.972V76.8301Z" fill="#313131"/>
            <path fill-rule="evenodd" clip-rule="evenodd" d="M743.114 83.9412H745.874V49.6405H743.114V83.9412Z" fill="#313131"/>
            <path fill-rule="evenodd" clip-rule="evenodd" d="M747.945 94.817H750.706V38.7647H747.945V94.817Z" fill="#313131"/>
            <path fill-rule="evenodd" clip-rule="evenodd" d="M752.086 79.7582H754.847V53.8235H752.086V79.7582Z" fill="#313131"/>
            <path fill-rule="evenodd" clip-rule="evenodd" d="M756.917 85.1961H759.678V48.8039H756.917V85.1961Z" fill="#313131"/>
            <path fill-rule="evenodd" clip-rule="evenodd" d="M761.058 76.4118H763.819V57.5882H761.058V76.4118Z" fill="#313131"/>
            <path fill-rule="evenodd" clip-rule="evenodd" d="M765.199 90.634H767.96V43.366H765.199V90.634Z" fill="#313131"/>
            <path fill-rule="evenodd" clip-rule="evenodd" d="M770.031 94.817H772.792V38.7647H770.031V94.817Z" fill="#313131"/>
            <path fill-rule="evenodd" clip-rule="evenodd" d="M814.203 76.4118H816.963V57.1699H814.203V76.4118Z" fill="#313131"/>
            <path fill-rule="evenodd" clip-rule="evenodd" d="M810.062 74.7386H812.822V59.2614H810.062V74.7386Z" fill="#313131"/>
            <path fill-rule="evenodd" clip-rule="evenodd" d="M805.23 77.2484H807.991V56.7516H805.23V77.2484Z" fill="#313131"/>
            <path fill-rule="evenodd" clip-rule="evenodd" d="M801.089 78.085H803.85V55.915H801.089V78.085Z" fill="#313131"/>
            <path fill-rule="evenodd" clip-rule="evenodd" d="M796.948 73.902H799.708V60.0981H796.948V73.902Z" fill="#313131"/>
            <path fill-rule="evenodd" clip-rule="evenodd" d="M792.117 70.9739H794.877V63.0262H792.117V70.9739Z" fill="#313131"/>
            <path fill-rule="evenodd" clip-rule="evenodd" d="M787.976 75.1569H790.736V58.8431H787.976V75.1569Z" fill="#313131"/>
            <path fill-rule="evenodd" clip-rule="evenodd" d="M783.144 79.3399H785.905V54.6601H783.144V79.3399Z" fill="#313131"/>
            <path fill-rule="evenodd" clip-rule="evenodd" d="M779.003 92.7255H781.764V41.2745H779.003V92.7255Z" fill="#313131"/>
            <path fill-rule="evenodd" clip-rule="evenodd" d="M774.172 96.4902H776.933V37.5098H774.172V96.4902Z" fill="#313131"/>
            <path fill-rule="evenodd" clip-rule="evenodd" d="M819.034 76.4118H821.794V57.1699H819.034V76.4118Z" fill="#313131"/>
            <path fill-rule="evenodd" clip-rule="evenodd" d="M823.175 88.9608H825.936V45.0392H823.175V88.9608Z" fill="#313131"/>
            <path fill-rule="evenodd" clip-rule="evenodd" d="M828.006 73.4836H830.767V60.5163H828.006V73.4836Z" fill="#313131"/>
            <path fill-rule="evenodd" clip-rule="evenodd" d="M832.147 90.2157H834.908V43.7843H832.147V90.2157Z" fill="#313131"/>
            <path fill-rule="evenodd" clip-rule="evenodd" d="M836.979 94.3987H839.739V39.183H836.979V94.3987Z" fill="#313131"/>
            <path fill-rule="evenodd" clip-rule="evenodd" d="M841.12 79.7582H843.88V53.8235H841.12V79.7582Z" fill="#313131"/>
            <path fill-rule="evenodd" clip-rule="evenodd" d="M845.261 93.9804H848.021V40.0196H845.261V93.9804Z" fill="#313131"/>
            <path fill-rule="evenodd" clip-rule="evenodd" d="M850.092 80.1765H852.853V53.8235H850.092V80.1765Z" fill="#313131"/>
            <path fill-rule="evenodd" clip-rule="evenodd" d="M854.233 82.268H856.994V51.732H854.233V82.268Z" fill="#313131"/>
            <path fill-rule="evenodd" clip-rule="evenodd" d="M859.064 79.7582H861.825V54.2418H859.064V79.7582Z" fill="#313131"/>
            <path fill-rule="evenodd" clip-rule="evenodd" d="M903.236 67.3006H905.997V62.281H903.236V67.3006Z" fill="#313131"/>
            <path fill-rule="evenodd" clip-rule="evenodd" d="M899.095 71.3922H901.856V62.6078H899.095V71.3922Z" fill="#313131"/>
            <path fill-rule="evenodd" clip-rule="evenodd" d="M894.264 75.5752H897.024V58.4248H894.264V75.5752Z" fill="#313131"/>
            <path fill-rule="evenodd" clip-rule="evenodd" d="M890.123 83.9412H892.883V49.6405H890.123V83.9412Z" fill="#313131"/>
            <path fill-rule="evenodd" clip-rule="evenodd" d="M885.292 86.451H888.052V47.549H885.292V86.451Z" fill="#313131"/>
            <path fill-rule="evenodd" clip-rule="evenodd" d="M881.15 88.9608H883.911V45.0392H881.15V88.9608Z" fill="#313131"/>
            <path fill-rule="evenodd" clip-rule="evenodd" d="M877.009 91.4706H879.77V42.5294H877.009V91.4706Z" fill="#313131"/>
            <path fill-rule="evenodd" clip-rule="evenodd" d="M872.178 83.9412H874.939V50.0588H872.178V83.9412Z" fill="#313131"/>
            <path fill-rule="evenodd" clip-rule="evenodd" d="M868.037 87.2876H870.797V46.7124H868.037V87.2876Z" fill="#313131"/>
            <path fill-rule="evenodd" clip-rule="evenodd" d="M863.206 99H865.966V35H863.206V99Z" fill="#313131"/>
            <path fill-rule="evenodd" clip-rule="evenodd" d="M908.067 66.8823H910.828V62.6993H908.067V66.8823Z" fill="#313131"/>
            <path fill-rule="evenodd" clip-rule="evenodd" d="M912.208 73.0654H914.969V60.9346H912.208V73.0654Z" fill="#313131"/>
            <path fill-rule="evenodd" clip-rule="evenodd" d="M917.04 76.8301H919.8V56.7516H917.04V76.8301Z" fill="#313131"/>
            <path fill-rule="evenodd" clip-rule="evenodd" d="M921.181 80.1765H923.941V53.4052H921.181V80.1765Z" fill="#313131"/>
            <path fill-rule="evenodd" clip-rule="evenodd" d="M925.322 82.6863H928.083V50.8954H925.322V82.6863Z" fill="#313131"/>
            <path fill-rule="evenodd" clip-rule="evenodd" d="M930.153 86.0327H932.914V47.9673H930.153V86.0327Z" fill="#313131"/>
            <path fill-rule="evenodd" clip-rule="evenodd" d="M934.294 78.5033H937.055V55.4967H934.294V78.5033Z" fill="#313131"/>
            <path fill-rule="evenodd" clip-rule="evenodd" d="M939.125 77.6667H941.886V56.3333H939.125V77.6667Z" fill="#313131"/>
            <path fill-rule="evenodd" clip-rule="evenodd" d="M943.267 87.7059H946.027V46.2941H943.267V87.7059Z" fill="#313131"/>
            <path fill-rule="evenodd" clip-rule="evenodd" d="M948.098 90.634H950.859V42.9477H948.098V90.634Z" fill="#313131"/>
            <path fill-rule="evenodd" clip-rule="evenodd" d="M992.27 76.4118H995.03V57.1699H992.27V76.4118Z" fill="#313131"/>
            <path fill-rule="evenodd" clip-rule="evenodd" d="M988.128 86.8693H990.889V46.7124H988.128V86.8693Z" fill="#313131"/>
            <path fill-rule="evenodd" clip-rule="evenodd" d="M983.297 93.1438H986.058V40.4379H983.297V93.1438Z" fill="#313131"/>
            <path fill-rule="evenodd" clip-rule="evenodd" d="M979.156 73.4837H981.917V60.0981H979.156V73.4837Z" fill="#313131"/>
            <path fill-rule="evenodd" clip-rule="evenodd" d="M974.325 75.5752H977.086V58.4248H974.325V75.5752Z" fill="#313131"/>
            <path fill-rule="evenodd" clip-rule="evenodd" d="M970.184 76.8301H972.945V57.1699H970.184V76.8301Z" fill="#313131"/>
            <path fill-rule="evenodd" clip-rule="evenodd" d="M966.042 83.5229H968.803V50.4771H966.042V83.5229Z" fill="#313131"/>
            <path fill-rule="evenodd" clip-rule="evenodd" d="M961.211 96.9085H963.972V37.0915H961.211V96.9085Z" fill="#313131"/>
            <path fill-rule="evenodd" clip-rule="evenodd" d="M957.07 75.9935H959.831V58.0065H957.07V75.9935Z" fill="#313131"/>
            <path fill-rule="evenodd" clip-rule="evenodd" d="M952.239 85.1961H955V48.8039H952.239V85.1961Z" fill="#313131"/>
            <path fill-rule="evenodd" clip-rule="evenodd" d="M997.101 76.4118H999.862V57.1699H997.101V76.4118Z" fill="#313131"/>
            <path fill-rule="evenodd" clip-rule="evenodd" d="M1001.24 78.9216H1004V54.6601H1001.24V78.9216Z" fill="#313131"/>
            <path fill-rule="evenodd" clip-rule="evenodd" d="M1006.07 81.4314H1008.83V52.1503H1006.07V81.4314Z" fill="#313131"/>
            <path fill-rule="evenodd" clip-rule="evenodd" d="M1010.21 73.4837H1012.98V60.0981H1010.21V73.4837Z" fill="#313131"/>
            <path fill-rule="evenodd" clip-rule="evenodd" d="M1014.36 86.451H1017.12V47.549H1014.36V86.451Z" fill="#313131"/>
            <path fill-rule="evenodd" clip-rule="evenodd" d="M1019.19 83.9412H1021.95V49.6405H1019.19V83.9412Z" fill="#313131"/>
            <path fill-rule="evenodd" clip-rule="evenodd" d="M1023.33 74.7386H1026.09V58.8431H1023.33V74.7386Z" fill="#313131"/>
            <path fill-rule="evenodd" clip-rule="evenodd" d="M1028.16 74.3203H1030.92V59.6797H1028.16V74.3203Z" fill="#313131"/>
            <path fill-rule="evenodd" clip-rule="evenodd" d="M1032.3 83.9412H1035.06V50.0588H1032.3V83.9412Z" fill="#313131"/>
            <path fill-rule="evenodd" clip-rule="evenodd" d="M1037.13 77.6667H1039.89V55.915H1037.13V77.6667Z" fill="#313131"/>
            <path fill-rule="evenodd" clip-rule="evenodd" d="M1081.3 70.9739H1084.06V63.0262H1081.3V70.9739Z" fill="#313131"/>
            <path fill-rule="evenodd" clip-rule="evenodd" d="M1077.16 78.9216H1079.92V54.6601H1077.16V78.9216Z" fill="#313131"/>
            <path fill-rule="evenodd" clip-rule="evenodd" d="M1072.33 81.4314H1075.09V52.1503H1072.33V81.4314Z" fill="#313131"/>
            <path fill-rule="evenodd" clip-rule="evenodd" d="M1068.19 77.6667H1070.95V56.3333H1068.19V77.6667Z" fill="#313131"/>
            <path fill-rule="evenodd" clip-rule="evenodd" d="M1063.36 75.1569H1066.12V58.8431H1063.36V75.1569Z" fill="#313131"/>
            <path fill-rule="evenodd" clip-rule="evenodd" d="M1059.22 85.1961H1061.98V48.8039H1059.22V85.1961Z" fill="#313131"/>
            <path fill-rule="evenodd" clip-rule="evenodd" d="M1054.39 78.085H1057.15V55.4967H1054.39V78.085Z" fill="#313131"/>
            <path fill-rule="evenodd" clip-rule="evenodd" d="M1050.25 76.8301H1053.01V56.7516H1050.25V76.8301Z" fill="#313131"/>
            <path fill-rule="evenodd" clip-rule="evenodd" d="M1046.1 84.3595H1048.86V49.6405H1046.1V84.3595Z" fill="#313131"/>
            <path fill-rule="evenodd" clip-rule="evenodd" d="M1041.27 73.0653H1044.03V60.5163H1041.27V73.0653Z" fill="#313131"/>
            <path fill-rule="evenodd" clip-rule="evenodd" d="M1086.13 76.4118H1088.9V57.1699H1086.13V76.4118Z" fill="#313131"/>
            <path fill-rule="evenodd" clip-rule="evenodd" d="M1090.28 70.1372H1093.04V63.8627H1090.28V70.1372Z" fill="#313131"/>
            <path fill-rule="evenodd" clip-rule="evenodd" d="M1095 68.7189H1097.76V63.281H1095V68.7189Z" fill="#313131"/>
            <path fill-rule="evenodd" clip-rule="evenodd" d="M1099.14 72.4836H1101.9V59.5163H1099.14V72.4836Z" fill="#313131"/>
            <path fill-rule="evenodd" clip-rule="evenodd" d="M1103.97 75.8301H1106.73V55.7516H1103.97V75.8301Z" fill="#313131"/>
            <path fill-rule="evenodd" clip-rule="evenodd" d="M1108.11 82.9412H1110.87V48.6405H1108.11V82.9412Z" fill="#313131"/>
            <path fill-rule="evenodd" clip-rule="evenodd" d="M1112.94 93.817H1115.71V37.7647H1112.94V93.817Z" fill="#313131"/>
            <path fill-rule="evenodd" clip-rule="evenodd" d="M1117.09 78.7582H1119.85V52.8235H1117.09V78.7582Z" fill="#313131"/>
            <path fill-rule="evenodd" clip-rule="evenodd" d="M1121.92 84.1961H1124.68V47.8039H1121.92V84.1961Z" fill="#313131"/>
            <path fill-rule="evenodd" clip-rule="evenodd" d="M1126.06 75.4118H1128.82V56.5882H1126.06V75.4118Z" fill="#313131"/>
            <path fill-rule="evenodd" clip-rule="evenodd" d="M1130.2 89.634H1132.96V42.366H1130.2V89.634Z" fill="#313131"/>
            <path fill-rule="evenodd" clip-rule="evenodd" d="M1135.03 93.817H1137.79V37.7647H1135.03V93.817Z" fill="#313131"/>
            <path fill-rule="evenodd" clip-rule="evenodd" d="M1179.2 75.4118H1181.96V56.1699H1179.2V75.4118Z" fill="#313131"/>
            <path fill-rule="evenodd" clip-rule="evenodd" d="M1175.06 73.7386H1177.82V58.2614H1175.06V73.7386Z" fill="#313131"/>
            <path fill-rule="evenodd" clip-rule="evenodd" d="M1170.23 76.2484H1172.99V55.7516H1170.23V76.2484Z" fill="#313131"/>
            <path fill-rule="evenodd" clip-rule="evenodd" d="M1166.09 77.085H1168.85V54.915H1166.09V77.085Z" fill="#313131"/>
            <path fill-rule="evenodd" clip-rule="evenodd" d="M1161.95 72.902H1164.71V59.0981H1161.95V72.902Z" fill="#313131"/>
            <path fill-rule="evenodd" clip-rule="evenodd" d="M1157.12 69.9739H1159.88V62.0262H1157.12V69.9739Z" fill="#313131"/>
            <path fill-rule="evenodd" clip-rule="evenodd" d="M1152.98 74.1569H1155.74V57.8431H1152.98V74.1569Z" fill="#313131"/>
            <path fill-rule="evenodd" clip-rule="evenodd" d="M1148.14 78.3399H1150.9V53.6601H1148.14V78.3399Z" fill="#313131"/>
            <path fill-rule="evenodd" clip-rule="evenodd" d="M1144 91.7255H1146.76V40.2745H1144V91.7255Z" fill="#313131"/>
            <path fill-rule="evenodd" clip-rule="evenodd" d="M1139.17 95.4902H1141.93V36.5098H1139.17V95.4902Z" fill="#313131"/>
            <path fill-rule="evenodd" clip-rule="evenodd" d="M1184.03 75.4118H1186.79V56.1699H1184.03V75.4118Z" fill="#313131"/>
            <path fill-rule="evenodd" clip-rule="evenodd" d="M1188.17 87.9608H1190.94V44.0392H1188.17V87.9608Z" fill="#313131"/>
            <path fill-rule="evenodd" clip-rule="evenodd" d="M1193.01 72.4836H1195.77V59.5163H1193.01V72.4836Z" fill="#313131"/>
            <path fill-rule="evenodd" clip-rule="evenodd" d="M1197.15 89.2157H1199.91V42.7843H1197.15V89.2157Z" fill="#313131"/>
            <path fill-rule="evenodd" clip-rule="evenodd" d="M1201.98 93.3987H1204.74V38.183H1201.98V93.3987Z" fill="#313131"/>
            <path fill-rule="evenodd" clip-rule="evenodd" d="M1206.12 78.7582H1208.88V52.8235H1206.12V78.7582Z" fill="#313131"/>
            <path fill-rule="evenodd" clip-rule="evenodd" d="M1210.26 92.9804H1213.02V39.0196H1210.26V92.9804Z" fill="#313131"/>
            <path fill-rule="evenodd" clip-rule="evenodd" d="M1215.09 79.1765H1217.85V52.8235H1215.09V79.1765Z" fill="#313131"/>
            <path fill-rule="evenodd" clip-rule="evenodd" d="M1219.23 81.268H1221.99V50.732H1219.23V81.268Z" fill="#313131"/>
            <path fill-rule="evenodd" clip-rule="evenodd" d="M1224.06 78.7582H1226.83V53.2418H1224.06V78.7582Z" fill="#313131"/>
            <path fill-rule="evenodd" clip-rule="evenodd" d="M1268.24 68.3006H1271V63.281H1268.24V68.3006Z" fill="#313131"/>
            <path fill-rule="evenodd" clip-rule="evenodd" d="M1264.1 70.3922H1266.86V61.6078H1264.1V70.3922Z" fill="#313131"/>
            <path fill-rule="evenodd" clip-rule="evenodd" d="M1259.26 74.5752H1262.02V57.4248H1259.26V74.5752Z" fill="#313131"/>
            <path fill-rule="evenodd" clip-rule="evenodd" d="M1255.12 82.9412H1257.88V48.6405H1255.12V82.9412Z" fill="#313131"/>
            <path fill-rule="evenodd" clip-rule="evenodd" d="M1250.29 85.451H1253.05V46.549H1250.29V85.451Z" fill="#313131"/>
            <path fill-rule="evenodd" clip-rule="evenodd" d="M1246.15 87.9608H1248.91V44.0392H1246.15V87.9608Z" fill="#313131"/>
            <path fill-rule="evenodd" clip-rule="evenodd" d="M1242.01 90.4706H1244.77V41.5294H1242.01V90.4706Z" fill="#313131"/>
            <path fill-rule="evenodd" clip-rule="evenodd" d="M1237.18 82.9412H1239.94V49.0588H1237.18V82.9412Z" fill="#313131"/>
            <path fill-rule="evenodd" clip-rule="evenodd" d="M1233.04 86.2876H1235.8V45.7124H1233.04V86.2876Z" fill="#313131"/>
            <path fill-rule="evenodd" clip-rule="evenodd" d="M1228.21 98H1230.97V34H1228.21V98Z" fill="#313131"/>
            <path fill-rule="evenodd" clip-rule="evenodd" d="M1273.07 67.8823H1275.83V63.6993H1273.07V67.8823Z" fill="#313131"/>
            <path fill-rule="evenodd" clip-rule="evenodd" d="M1277.21 72.0654H1279.97V59.9346H1277.21V72.0654Z" fill="#313131"/>
            <path fill-rule="evenodd" clip-rule="evenodd" d="M1282.04 75.8301H1284.8V55.7516H1282.04V75.8301Z" fill="#313131"/>
            <path fill-rule="evenodd" clip-rule="evenodd" d="M1286.18 79.1765H1288.94V52.4052H1286.18V79.1765Z" fill="#313131"/>
            <path fill-rule="evenodd" clip-rule="evenodd" d="M1290.32 81.6863H1293.08V49.8954H1290.32V81.6863Z" fill="#313131"/>
            <path fill-rule="evenodd" clip-rule="evenodd" d="M1295.15 85.0327H1297.91V46.9673H1295.15V85.0327Z" fill="#313131"/>
            <path fill-rule="evenodd" clip-rule="evenodd" d="M1299.29 77.5033H1302.06V54.4967H1299.29V77.5033Z" fill="#313131"/>
            <path fill-rule="evenodd" clip-rule="evenodd" d="M1304.13 76.6667H1306.89V55.3333H1304.13V76.6667Z" fill="#313131"/>
            <path fill-rule="evenodd" clip-rule="evenodd" d="M1308.27 86.7059H1311.03V45.2941H1308.27V86.7059Z" fill="#313131"/>
            <path fill-rule="evenodd" clip-rule="evenodd" d="M1313.1 89.634H1315.86V41.9477H1313.1V89.634Z" fill="#313131"/>
            <path fill-rule="evenodd" clip-rule="evenodd" d="M1357.27 75.4118H1360.03V56.1699H1357.27V75.4118Z" fill="#313131"/>
            <path fill-rule="evenodd" clip-rule="evenodd" d="M1353.13 85.8693H1355.89V45.7124H1353.13V85.8693Z" fill="#313131"/>
            <path fill-rule="evenodd" clip-rule="evenodd" d="M1348.3 92.1438H1351.06V39.4379H1348.3V92.1438Z" fill="#313131"/>
            <path fill-rule="evenodd" clip-rule="evenodd" d="M1344.16 72.4837H1346.92V59.0981H1344.16V72.4837Z" fill="#313131"/>
            <path fill-rule="evenodd" clip-rule="evenodd" d="M1339.32 74.5752H1342.09V57.4248H1339.32V74.5752Z" fill="#313131"/>
            <path fill-rule="evenodd" clip-rule="evenodd" d="M1335.18 75.8301H1337.94V56.1699H1335.18V75.8301Z" fill="#313131"/>
            <path fill-rule="evenodd" clip-rule="evenodd" d="M1331.04 82.5229H1333.8V49.4771H1331.04V82.5229Z" fill="#313131"/>
            <path fill-rule="evenodd" clip-rule="evenodd" d="M1326.21 95.9085H1328.97V36.0915H1326.21V95.9085Z" fill="#313131"/>
            <path fill-rule="evenodd" clip-rule="evenodd" d="M1322.07 74.9935H1324.83V57.0065H1322.07V74.9935Z" fill="#313131"/>
            <path fill-rule="evenodd" clip-rule="evenodd" d="M1317.24 84.1961H1320V47.8039H1317.24V84.1961Z" fill="#313131"/>
            <path fill-rule="evenodd" clip-rule="evenodd" d="M1362.1 75.4118H1364.86V56.1699H1362.1V75.4118Z" fill="#313131"/>
            <path fill-rule="evenodd" clip-rule="evenodd" d="M1366.24 77.9216H1369V53.6601H1366.24V77.9216Z" fill="#313131"/>
            <path fill-rule="evenodd" clip-rule="evenodd" d="M1371.07 80.4314H1373.83V51.1503H1371.07V80.4314Z" fill="#313131"/>
            <path fill-rule="evenodd" clip-rule="evenodd" d="M1375.21 72.4837H1377.98V59.0981H1375.21V72.4837Z" fill="#313131"/>
            <path fill-rule="evenodd" clip-rule="evenodd" d="M1379.36 85.451H1382.12V46.549H1379.36V85.451Z" fill="#313131"/>
            <path fill-rule="evenodd" clip-rule="evenodd" d="M1384.19 82.9412H1386.95V48.6405H1384.19V82.9412Z" fill="#313131"/>
            <path fill-rule="evenodd" clip-rule="evenodd" d="M1388.33 73.7386H1391.09V57.8431H1388.33V73.7386Z" fill="#313131"/>
            <path fill-rule="evenodd" clip-rule="evenodd" d="M1393.16 73.3203H1395.92V58.6797H1393.16V73.3203Z" fill="#313131"/>
            <path fill-rule="evenodd" clip-rule="evenodd" d="M1397.3 82.9412H1400.06V49.0588H1397.3V82.9412Z" fill="#313131"/>
            <path fill-rule="evenodd" clip-rule="evenodd" d="M1402.13 76.6667H1404.89V54.915H1402.13V76.6667Z" fill="#313131"/>
            <path fill-rule="evenodd" clip-rule="evenodd" d="M1446.3 69.9739H1449.06V62.0262H1446.3V69.9739Z" fill="#313131"/>
            <path fill-rule="evenodd" clip-rule="evenodd" d="M1442.16 77.9216H1444.92V53.6601H1442.16V77.9216Z" fill="#313131"/>
            <path fill-rule="evenodd" clip-rule="evenodd" d="M1437.33 80.4314H1440.09V51.1503H1437.33V80.4314Z" fill="#313131"/>
            <path fill-rule="evenodd" clip-rule="evenodd" d="M1433.19 76.6667H1435.95V55.3333H1433.19V76.6667Z" fill="#313131"/>
            <path fill-rule="evenodd" clip-rule="evenodd" d="M1428.36 74.1569H1431.12V57.8431H1428.36V74.1569Z" fill="#313131"/>
            <path fill-rule="evenodd" clip-rule="evenodd" d="M1424.22 84.1961H1426.98V47.8039H1424.22V84.1961Z" fill="#313131"/>
            <path fill-rule="evenodd" clip-rule="evenodd" d="M1419.39 77.085H1422.15V54.4967H1419.39V77.085Z" fill="#313131"/>
            <path fill-rule="evenodd" clip-rule="evenodd" d="M1415.25 75.8301H1418.01V55.7516H1415.25V75.8301Z" fill="#313131"/>
            <path fill-rule="evenodd" clip-rule="evenodd" d="M1411.1 83.3595H1413.86V48.6405H1411.1V83.3595Z" fill="#313131"/>
            <path fill-rule="evenodd" clip-rule="evenodd" d="M1406.27 72.0653H1409.03V59.5163H1406.27V72.0653Z" fill="#313131"/>
            <path fill-rule="evenodd" clip-rule="evenodd" d="M1451.13 75.4118H1453.9V56.1699H1451.13V75.4118Z" fill="#313131"/>
            <path fill-rule="evenodd" clip-rule="evenodd" d="M1455.28 69.1372H1458.04V62.8627H1455.28V69.1372Z" fill="#313131"/>
            <path fill-rule="evenodd" clip-rule="evenodd" d="M1460 66.7189H1462.76V61.281H1460V66.7189Z" fill="#313131"/>
            <path fill-rule="evenodd" clip-rule="evenodd" d="M1464.14 70.4836H1466.9V57.5163H1464.14V70.4836Z" fill="#313131"/>
            <path fill-rule="evenodd" clip-rule="evenodd" d="M1468.97 73.8301H1471.73V53.7516H1468.97V73.8301Z" fill="#313131"/>
            <path fill-rule="evenodd" clip-rule="evenodd" d="M1473.11 80.9412H1475.87V46.6405H1473.11V80.9412Z" fill="#313131"/>
            <path fill-rule="evenodd" clip-rule="evenodd" d="M1477.94 91.817H1480.71V35.7647H1477.94V91.817Z" fill="#313131"/>
            <path fill-rule="evenodd" clip-rule="evenodd" d="M1482.09 76.7582H1484.85V50.8235H1482.09V76.7582Z" fill="#313131"/>
            <path fill-rule="evenodd" clip-rule="evenodd" d="M1486.92 82.1961H1489.68V45.8039H1486.92V82.1961Z" fill="#313131"/>
            <path fill-rule="evenodd" clip-rule="evenodd" d="M1491.06 73.4118H1493.82V54.5882H1491.06V73.4118Z" fill="#313131"/>
            <path fill-rule="evenodd" clip-rule="evenodd" d="M1495.2 87.634H1497.96V40.366H1495.2V87.634Z" fill="#313131"/>
            <path fill-rule="evenodd" clip-rule="evenodd" d="M1500.03 91.817H1502.79V35.7647H1500.03V91.817Z" fill="#313131"/>
            <path fill-rule="evenodd" clip-rule="evenodd" d="M1544.2 73.4118H1546.96V54.1699H1544.2V73.4118Z" fill="#313131"/>
            <path fill-rule="evenodd" clip-rule="evenodd" d="M1540.06 71.7386H1542.82V56.2614H1540.06V71.7386Z" fill="#313131"/>
            <path fill-rule="evenodd" clip-rule="evenodd" d="M1535.23 74.2484H1537.99V53.7516H1535.23V74.2484Z" fill="#313131"/>
            <path fill-rule="evenodd" clip-rule="evenodd" d="M1531.09 75.085H1533.85V52.915H1531.09V75.085Z" fill="#313131"/>
            <path fill-rule="evenodd" clip-rule="evenodd" d="M1526.95 70.902H1529.71V57.0981H1526.95V70.902Z" fill="#313131"/>
            <path fill-rule="evenodd" clip-rule="evenodd" d="M1522.12 67.9739H1524.88V60.0262H1522.12V67.9739Z" fill="#313131"/>
            <path fill-rule="evenodd" clip-rule="evenodd" d="M1517.98 72.1569H1520.74V55.8431H1517.98V72.1569Z" fill="#313131"/>
            <path fill-rule="evenodd" clip-rule="evenodd" d="M1513.14 76.3399H1515.9V51.6601H1513.14V76.3399Z" fill="#313131"/>
            <path fill-rule="evenodd" clip-rule="evenodd" d="M1509 89.7255H1511.76V38.2745H1509V89.7255Z" fill="#313131"/>
            <path fill-rule="evenodd" clip-rule="evenodd" d="M1504.17 93.4902H1506.93V34.5098H1504.17V93.4902Z" fill="#313131"/>
            <path fill-rule="evenodd" clip-rule="evenodd" d="M1549.03 73.4118H1551.79V54.1699H1549.03V73.4118Z" fill="#313131"/>
            <path fill-rule="evenodd" clip-rule="evenodd" d="M1553.17 85.9608H1555.94V42.0392H1553.17V85.9608Z" fill="#313131"/>
            <path fill-rule="evenodd" clip-rule="evenodd" d="M1558.01 70.4836H1560.77V57.5163H1558.01V70.4836Z" fill="#313131"/>
            <path fill-rule="evenodd" clip-rule="evenodd" d="M1562.15 87.2157H1564.91V40.7843H1562.15V87.2157Z" fill="#313131"/>
            <path fill-rule="evenodd" clip-rule="evenodd" d="M1566.98 91.3987H1569.74V36.183H1566.98V91.3987Z" fill="#313131"/>
            <path fill-rule="evenodd" clip-rule="evenodd" d="M1571.12 76.7582H1573.88V50.8235H1571.12V76.7582Z" fill="#313131"/>
            <path fill-rule="evenodd" clip-rule="evenodd" d="M1575.26 90.9804H1578.02V37.0196H1575.26V90.9804Z" fill="#313131"/>
            <path fill-rule="evenodd" clip-rule="evenodd" d="M1580.09 77.1765H1582.85V50.8235H1580.09V77.1765Z" fill="#313131"/>
            <path fill-rule="evenodd" clip-rule="evenodd" d="M1584.23 79.268H1586.99V48.732H1584.23V79.268Z" fill="#313131"/>
            <path fill-rule="evenodd" clip-rule="evenodd" d="M1589.06 76.7582H1591.83V51.2418H1589.06V76.7582Z" fill="#313131"/>
            <path fill-rule="evenodd" clip-rule="evenodd" d="M1633.24 66.3006H1636V61.281H1633.24V66.3006Z" fill="#313131"/>
            <path fill-rule="evenodd" clip-rule="evenodd" d="M1629.1 68.3922H1631.86V59.6078H1629.1V68.3922Z" fill="#313131"/>
            <path fill-rule="evenodd" clip-rule="evenodd" d="M1624.26 72.5752H1627.02V55.4248H1624.26V72.5752Z" fill="#313131"/>
            <path fill-rule="evenodd" clip-rule="evenodd" d="M1620.12 80.9412H1622.88V46.6405H1620.12V80.9412Z" fill="#313131"/>
            <path fill-rule="evenodd" clip-rule="evenodd" d="M1615.29 83.451H1618.05V44.549H1615.29V83.451Z" fill="#313131"/>
            <path fill-rule="evenodd" clip-rule="evenodd" d="M1611.15 85.9608H1613.91V42.0392H1611.15V85.9608Z" fill="#313131"/>
            <path fill-rule="evenodd" clip-rule="evenodd" d="M1607.01 88.4706H1609.77V39.5294H1607.01V88.4706Z" fill="#313131"/>
            <path fill-rule="evenodd" clip-rule="evenodd" d="M1602.18 80.9412H1604.94V47.0588H1602.18V80.9412Z" fill="#313131"/>
            <path fill-rule="evenodd" clip-rule="evenodd" d="M1598.04 84.2876H1600.8V43.7124H1598.04V84.2876Z" fill="#313131"/>
            <path fill-rule="evenodd" clip-rule="evenodd" d="M1593.21 96H1595.97V32H1593.21V96Z" fill="#313131"/>
            <path fill-rule="evenodd" clip-rule="evenodd" d="M1638.07 65.8823H1640.83V61.6993H1638.07V65.8823Z" fill="#313131"/>
            <path fill-rule="evenodd" clip-rule="evenodd" d="M1642.21 70.0654H1644.97V57.9346H1642.21V70.0654Z" fill="#313131"/>
            <path fill-rule="evenodd" clip-rule="evenodd" d="M1647.04 73.8301H1649.8V53.7516H1647.04V73.8301Z" fill="#313131"/>
            <path fill-rule="evenodd" clip-rule="evenodd" d="M1651.18 77.1765H1653.94V50.4052H1651.18V77.1765Z" fill="#313131"/>
            <path fill-rule="evenodd" clip-rule="evenodd" d="M1655.32 79.6863H1658.08V47.8954H1655.32V79.6863Z" fill="#313131"/>
            <path fill-rule="evenodd" clip-rule="evenodd" d="M1660.15 83.0327H1662.91V44.9673H1660.15V83.0327Z" fill="#313131"/>
            <path fill-rule="evenodd" clip-rule="evenodd" d="M1664.29 75.5033H1667.06V52.4967H1664.29V75.5033Z" fill="#313131"/>
            <path fill-rule="evenodd" clip-rule="evenodd" d="M1669.12 74.6667H1671.89V53.3333H1669.12V74.6667Z" fill="#313131"/>
            <path fill-rule="evenodd" clip-rule="evenodd" d="M1673.27 84.7059H1676.03V43.2941H1673.27V84.7059Z" fill="#313131"/>
            <path fill-rule="evenodd" clip-rule="evenodd" d="M1678.1 87.634H1680.86V39.9477H1678.1V87.634Z" fill="#313131"/>
            <path fill-rule="evenodd" clip-rule="evenodd" d="M1722.27 73.4118H1725.03V54.1699H1722.27V73.4118Z" fill="#313131"/>
            <path fill-rule="evenodd" clip-rule="evenodd" d="M1718.13 83.8693H1720.89V43.7124H1718.13V83.8693Z" fill="#313131"/>
            <path fill-rule="evenodd" clip-rule="evenodd" d="M1713.3 90.1438H1716.06V37.4379H1713.3V90.1438Z" fill="#313131"/>
            <path fill-rule="evenodd" clip-rule="evenodd" d="M1709.16 70.4837H1711.92V57.0981H1709.16V70.4837Z" fill="#313131"/>
            <path fill-rule="evenodd" clip-rule="evenodd" d="M1704.32 72.5752H1707.09V55.4248H1704.32V72.5752Z" fill="#313131"/>
            <path fill-rule="evenodd" clip-rule="evenodd" d="M1700.18 73.8301H1702.94V54.1699H1700.18V73.8301Z" fill="#313131"/>
            <path fill-rule="evenodd" clip-rule="evenodd" d="M1696.04 80.5229H1698.8V47.4771H1696.04V80.5229Z" fill="#313131"/>
            <path fill-rule="evenodd" clip-rule="evenodd" d="M1691.21 93.9085H1693.97V34.0915H1691.21V93.9085Z" fill="#313131"/>
            <path fill-rule="evenodd" clip-rule="evenodd" d="M1687.07 72.9935H1689.83V55.0065H1687.07V72.9935Z" fill="#313131"/>
            <path fill-rule="evenodd" clip-rule="evenodd" d="M1682.24 82.1961H1685V45.8039H1682.24V82.1961Z" fill="#313131"/>
            <path fill-rule="evenodd" clip-rule="evenodd" d="M1727.1 73.4118H1729.86V54.1699H1727.1V73.4118Z" fill="#313131"/>
            <path fill-rule="evenodd" clip-rule="evenodd" d="M1731.24 75.9216H1734V51.6601H1731.24V75.9216Z" fill="#313131"/>
            <path fill-rule="evenodd" clip-rule="evenodd" d="M1736.07 78.4314H1738.83V49.1503H1736.07V78.4314Z" fill="#313131"/>
            <path fill-rule="evenodd" clip-rule="evenodd" d="M1740.21 70.4837H1742.98V57.0981H1740.21V70.4837Z" fill="#313131"/>
            <path fill-rule="evenodd" clip-rule="evenodd" d="M1744.36 83.451H1747.12V44.549H1744.36V83.451Z" fill="#313131"/>
            <path fill-rule="evenodd" clip-rule="evenodd" d="M1749.19 80.9412H1751.95V46.6405H1749.19V80.9412Z" fill="#313131"/>
            <path fill-rule="evenodd" clip-rule="evenodd" d="M1753.33 71.7386H1756.09V55.8431H1753.33V71.7386Z" fill="#313131"/>
            <path fill-rule="evenodd" clip-rule="evenodd" d="M1758.16 71.3203H1760.92V56.6797H1758.16V71.3203Z" fill="#313131"/>
            <path fill-rule="evenodd" clip-rule="evenodd" d="M1762.3 80.9412H1765.06V47.0588H1762.3V80.9412Z" fill="#313131"/>
            <path fill-rule="evenodd" clip-rule="evenodd" d="M1767.13 74.6667H1769.89V52.915H1767.13V74.6667Z" fill="#313131"/>
            <path fill-rule="evenodd" clip-rule="evenodd" d="M1798.19 74.6667H1800.95V53.3333H1798.19V74.6667Z" fill="#313131"/>
            <path fill-rule="evenodd" clip-rule="evenodd" d="M1793.36 72.1569H1796.12V55.8431H1793.36V72.1569Z" fill="#313131"/>
            <path fill-rule="evenodd" clip-rule="evenodd" d="M1789.22 82.1961H1791.98V45.8039H1789.22V82.1961Z" fill="#313131"/>
            <path fill-rule="evenodd" clip-rule="evenodd" d="M1784.39 75.085H1787.15V52.4967H1784.39V75.085Z" fill="#313131"/>
            <path fill-rule="evenodd" clip-rule="evenodd" d="M1780.25 73.8301H1783.01V53.7516H1780.25V73.8301Z" fill="#313131"/>
            <path fill-rule="evenodd" clip-rule="evenodd" d="M1776.1 81.3595H1778.86V46.6405H1776.1V81.3595Z" fill="#313131"/>
            <path fill-rule="evenodd" clip-rule="evenodd" d="M1771.27 70.0653H1774.03V57.5163H1771.27V70.0653Z" fill="#313131"/>
        </g>
    </g>
    <mask id="mask1" mask-type="alpha" maskUnits="userSpaceOnUse" x="0" y="0" width="1800" height="64">
        <rect width="1800" height="64" fill="white"/>
    </mask>
    <g mask="url(#mask1)">
        <path fill-rule="evenodd" clip-rule="evenodd" d="M133.847 127.845H136.606V0H133.847V127.845ZM44.8455 122.832H47.6052V5.01353H44.8455V122.832ZM20.6979 119.489H17.9382V7.5203H20.6979V119.489ZM13.7986 97.7639H16.5583V29.2456H13.7986V97.7639ZM11.7288 83.5589H8.9691V43.4506H11.7288V83.5589ZM4.82952 76.8742H7.58924V50.9709H4.82952V76.8742ZM0 69.3539H2.75972V58.4912H0V69.3539ZM22.0778 89.408H24.8375V37.6015H22.0778V89.408ZM29.667 100.271H26.9073V27.5744H29.667V100.271ZM31.0469 101.106H33.8066V26.7388H31.0469V101.106ZM38.6361 111.133H35.8764V16.7118H38.6361V111.133ZM40.016 119.489H42.7757V7.5203H40.016V119.489ZM87.6212 82.7233H84.8615V44.2862H87.6212V82.7233ZM80.032 79.3809H82.7917V48.4641H80.032V79.3809ZM78.6521 84.3944H75.8924V43.4506H78.6521V84.3944ZM71.0629 86.0656H73.8226V41.7794H71.0629V86.0656ZM69.683 77.7097H66.9233V50.1353H69.683V77.7097ZM62.0938 71.8606H64.8535V55.9844H62.0938V71.8606ZM60.7139 80.2165H57.9542V47.6286H60.7139V80.2165ZM53.8146 88.5724H56.5743V39.2727H53.8146V88.5724ZM51.7448 115.311H48.9851V12.5338H51.7448V115.311ZM91.7608 82.7233H89.0011V44.2862H91.7608V82.7233ZM93.8306 107.791H96.5903V20.0541H93.8306V107.791ZM100.73 76.8742H97.9702V50.9709H100.73V76.8742ZM102.11 110.298H104.869V17.5474H102.11V110.298ZM109.699 118.654H106.939V8.35589H109.699V118.654ZM111.079 119.489H113.839V8.35589H111.079V119.489ZM118.668 117.818H115.908V10.0271H118.668V117.818ZM120.048 90.2436H122.808V37.6015H120.048V90.2436ZM127.637 94.4215H124.877V33.4235H127.637V94.4215ZM129.017 89.408H131.777V38.4371H129.017V89.408ZM176.622 68.5183H173.863V58.4912H176.622V68.5183ZM169.033 72.6962H171.793V55.1488H169.033V72.6962ZM167.653 81.0521H164.893V46.793H167.653V81.0521ZM160.064 97.7639H162.824V29.2456H160.064V97.7639ZM158.684 102.777H155.924V25.0677H158.684V102.777ZM151.095 107.791H153.855V20.0541H151.095V107.791ZM149.715 112.804H146.955V15.0406H149.715V112.804ZM142.816 97.7639H145.575V30.0812H142.816V97.7639ZM140.746 104.449H137.986V23.3965H140.746V104.449ZM180.762 67.6827H178.002V59.3268H180.762V67.6827ZM182.832 76.0386H185.591V51.8065H182.832V76.0386ZM189.731 83.5589H186.971V43.4506H189.731V83.5589ZM191.111 90.2436H193.871V36.7659H191.111V90.2436ZM198.7 95.2571H195.94V31.7524H198.7V95.2571ZM200.08 101.942H202.84V25.9032H200.08V101.942ZM207.669 86.9012H204.909V40.9438H207.669V86.9012ZM209.049 85.23H211.809V42.615H209.049V85.23ZM216.638 105.284H213.879V22.5609H216.638V105.284ZM218.018 111.133H220.778V15.8762H218.018V111.133ZM265.623 82.7233H262.864V44.2862H265.623V82.7233ZM258.034 103.613H260.794V23.3965H258.034V103.613ZM256.654 116.147H253.895V10.8627H256.654V116.147ZM249.065 76.8742H251.825V50.1353H249.065V76.8742ZM247.685 81.0521H244.925V46.793H247.685V81.0521ZM240.096 83.5589H242.856V44.2862H240.096V83.5589ZM238.716 96.9283H235.956V30.9168H238.716V96.9283ZM231.127 123.667H233.887V4.17794H231.127V123.667ZM229.747 105.284H226.987V21.7253H229.747V105.284ZM222.848 100.271H225.607V27.5744H222.848V100.271ZM269.763 82.7233H267.003V44.2862H269.763V82.7233ZM271.143 87.7368H273.903V39.2727H271.143V87.7368ZM278.732 92.7503H275.972V34.2591H278.732V92.7503ZM280.112 76.8742H282.872V50.1353H280.112V76.8742ZM287.701 102.777H284.941V25.0677H287.701V102.777ZM289.081 97.7639H291.841V29.2456H289.081V97.7639ZM296.67 79.3809H293.911V47.6286H296.67V79.3809ZM298.05 84.3944H300.81V42.615H298.05V84.3944ZM305.639 97.7639H302.88V30.0812H305.639V97.7639Z" fill="url(#paint1_radial)"/>
        <path fill-rule="evenodd" clip-rule="evenodd" d="M307.019 85.23H309.779V41.7794H307.019V85.23Z" fill="#313131"/>
        <path fill-rule="evenodd" clip-rule="evenodd" d="M351.865 71.8606H354.624V55.9844H351.865V71.8606Z" fill="#313131"/>
        <path fill-rule="evenodd" clip-rule="evenodd" d="M347.035 87.7368H349.795V39.2727H347.035V87.7368Z" fill="#313131"/>
        <path fill-rule="evenodd" clip-rule="evenodd" d="M342.896 92.7503H345.655V34.2591H342.896V92.7503Z" fill="#313131"/>
        <path fill-rule="evenodd" clip-rule="evenodd" d="M338.066 85.23H340.826V42.615H338.066V85.23Z" fill="#313131"/>
        <path fill-rule="evenodd" clip-rule="evenodd" d="M333.927 102.777H336.686V25.0677H333.927V102.777Z" fill="#313131"/>
        <path fill-rule="evenodd" clip-rule="evenodd" d="M329.097 100.271H331.857V27.5744H329.097V100.271Z" fill="#313131"/>
        <path fill-rule="evenodd" clip-rule="evenodd" d="M324.958 86.0656H327.717V40.9438H324.958V86.0656Z" fill="#313131"/>
        <path fill-rule="evenodd" clip-rule="evenodd" d="M320.128 99.4351H322.888V27.5744H320.128V99.4351Z" fill="#313131"/>
        <path fill-rule="evenodd" clip-rule="evenodd" d="M315.988 98.5995H318.748V29.2456H315.988V98.5995Z" fill="#313131"/>
        <path fill-rule="evenodd" clip-rule="evenodd" d="M311.159 76.0385H313.918V50.9709H311.159V76.0385Z" fill="#313131"/>
        <path fill-rule="evenodd" clip-rule="evenodd" d="M356.004 82.7233H358.764V44.2862H356.004V82.7233Z" fill="#313131"/>
        <path fill-rule="evenodd" clip-rule="evenodd" d="M360.144 70.1894H362.904V57.6556H360.144V70.1894Z" fill="#313131"/>
        <path fill-rule="evenodd" clip-rule="evenodd" d="M364.974 69.3539H367.733V58.4912H364.974V69.3539Z" fill="#313131"/>
        <path fill-rule="evenodd" clip-rule="evenodd" d="M369.113 76.8741H371.873V50.9709H369.113V76.8741Z" fill="#313131"/>
        <path fill-rule="evenodd" clip-rule="evenodd" d="M373.942 83.5589H376.702V43.4506H373.942V83.5589Z" fill="#313131"/>
        <path fill-rule="evenodd" clip-rule="evenodd" d="M378.082 97.7639H380.842V29.2456H378.082V97.7639Z" fill="#313131"/>
        <path fill-rule="evenodd" clip-rule="evenodd" d="M382.912 119.489H385.671V7.52029H382.912V119.489Z" fill="#313131"/>
        <path fill-rule="evenodd" clip-rule="evenodd" d="M387.051 89.408H389.811V37.6015H387.051V89.408Z" fill="#313131"/>
        <path fill-rule="evenodd" clip-rule="evenodd" d="M391.881 100.271H394.641V27.5744H391.881V100.271Z" fill="#313131"/>
        <path fill-rule="evenodd" clip-rule="evenodd" d="M396.021 82.7233H398.78V45.1218H396.021V82.7233Z" fill="#313131"/>
        <path fill-rule="evenodd" clip-rule="evenodd" d="M400.16 111.133H402.92V16.7118H400.16V111.133Z" fill="#313131"/>
        <path fill-rule="evenodd" clip-rule="evenodd" d="M404.989 119.489H407.749V7.52029H404.989V119.489Z" fill="#313131"/>
        <path fill-rule="evenodd" clip-rule="evenodd" d="M449.145 82.7233H451.905V44.2862H449.145V82.7233Z" fill="#313131"/>
        <path fill-rule="evenodd" clip-rule="evenodd" d="M445.005 79.3809H447.765V48.4641H445.005V79.3809Z" fill="#313131"/>
        <path fill-rule="evenodd" clip-rule="evenodd" d="M440.176 84.3945H442.936V43.4506H440.176V84.3945Z" fill="#313131"/>
        <path fill-rule="evenodd" clip-rule="evenodd" d="M436.036 86.0656H438.796V41.7794H436.036V86.0656Z" fill="#313131"/>
        <path fill-rule="evenodd" clip-rule="evenodd" d="M431.897 77.7097H434.657V50.1353H431.897V77.7097Z" fill="#313131"/>
        <path fill-rule="evenodd" clip-rule="evenodd" d="M427.067 71.8606H429.827V55.9844H427.067V71.8606Z" fill="#313131"/>
        <path fill-rule="evenodd" clip-rule="evenodd" d="M422.928 80.2165H425.687V47.6285H422.928V80.2165Z" fill="#313131"/>
        <path fill-rule="evenodd" clip-rule="evenodd" d="M418.098 88.5724H420.858V39.2727H418.098V88.5724Z" fill="#313131"/>
        <path fill-rule="evenodd" clip-rule="evenodd" d="M413.958 115.311H416.718V12.5338H413.958V115.311Z" fill="#313131"/>
        <path fill-rule="evenodd" clip-rule="evenodd" d="M409.129 122.832H411.889V5.01355H409.129V122.832Z" fill="#313131"/>
        <path fill-rule="evenodd" clip-rule="evenodd" d="M453.975 82.7233H456.734V44.2862H453.975V82.7233Z" fill="#313131"/>
        <path fill-rule="evenodd" clip-rule="evenodd" d="M458.114 107.791H460.874V20.0541H458.114V107.791Z" fill="#313131"/>
        <path fill-rule="evenodd" clip-rule="evenodd" d="M462.943 76.8741H465.703V50.9709H462.943V76.8741Z" fill="#313131"/>
        <path fill-rule="evenodd" clip-rule="evenodd" d="M467.083 110.298H469.843V17.5474H467.083V110.298Z" fill="#313131"/>
        <path fill-rule="evenodd" clip-rule="evenodd" d="M471.913 118.654H474.672V8.3559H471.913V118.654Z" fill="#313131"/>
        <path fill-rule="evenodd" clip-rule="evenodd" d="M476.052 89.408H478.812V37.6015H476.052V89.408Z" fill="#313131"/>
        <path fill-rule="evenodd" clip-rule="evenodd" d="M480.192 117.818H482.952V10.0271H480.192V117.818Z" fill="#313131"/>
        <path fill-rule="evenodd" clip-rule="evenodd" d="M485.021 90.2436H487.781V37.6015H485.021V90.2436Z" fill="#313131"/>
        <path fill-rule="evenodd" clip-rule="evenodd" d="M489.161 94.4215H491.921V33.4235H489.161V94.4215Z" fill="#313131"/>
        <path fill-rule="evenodd" clip-rule="evenodd" d="M493.991 89.408H496.75V38.4371H493.991V89.408Z" fill="#313131"/>
        <path fill-rule="evenodd" clip-rule="evenodd" d="M538.146 68.5183H540.906V58.4912H538.146V68.5183Z" fill="#313131"/>
        <path fill-rule="evenodd" clip-rule="evenodd" d="M534.006 72.6962H536.766V55.1489H534.006V72.6962Z" fill="#313131"/>
        <path fill-rule="evenodd" clip-rule="evenodd" d="M529.177 81.0521H531.936V46.793H529.177V81.0521Z" fill="#313131"/>
        <path fill-rule="evenodd" clip-rule="evenodd" d="M525.038 97.7639H527.797V29.2456H525.038V97.7639Z" fill="#313131"/>
        <path fill-rule="evenodd" clip-rule="evenodd" d="M520.208 102.777H522.968V25.0677H520.208V102.777Z" fill="#313131"/>
        <path fill-rule="evenodd" clip-rule="evenodd" d="M516.068 107.791H518.828V20.0541H516.068V107.791Z" fill="#313131"/>
        <path fill-rule="evenodd" clip-rule="evenodd" d="M511.929 112.804H514.688V15.0406H511.929V112.804Z" fill="#313131"/>
        <path fill-rule="evenodd" clip-rule="evenodd" d="M507.099 97.7639H509.859V30.0812H507.099V97.7639Z" fill="#313131"/>
        <path fill-rule="evenodd" clip-rule="evenodd" d="M502.959 104.449H505.719V23.3965H502.959V104.449Z" fill="#313131"/>
        <path fill-rule="evenodd" clip-rule="evenodd" d="M498.13 127.845H500.89V0H498.13V127.845Z" fill="#313131"/>
        <path fill-rule="evenodd" clip-rule="evenodd" d="M542.976 67.6827H545.735V59.3268H542.976V67.6827Z" fill="#313131"/>
        <path fill-rule="evenodd" clip-rule="evenodd" d="M547.115 76.0386H549.875V51.8065H547.115V76.0386Z" fill="#313131"/>
        <path fill-rule="evenodd" clip-rule="evenodd" d="M551.945 83.5589H554.705V43.4506H551.945V83.5589Z" fill="#313131"/>
        <path fill-rule="evenodd" clip-rule="evenodd" d="M556.084 90.2436H558.844V36.7659H556.084V90.2436Z" fill="#313131"/>
        <path fill-rule="evenodd" clip-rule="evenodd" d="M560.224 95.2571H562.983V31.7524H560.224V95.2571Z" fill="#313131"/>
        <path fill-rule="evenodd" clip-rule="evenodd" d="M565.053 101.942H567.813V25.9033H565.053V101.942Z" fill="#313131"/>
        <path fill-rule="evenodd" clip-rule="evenodd" d="M569.193 86.9012H571.953V40.9438H569.193V86.9012Z" fill="#313131"/>
        <path fill-rule="evenodd" clip-rule="evenodd" d="M574.022 85.23H576.782V42.615H574.022V85.23Z" fill="#313131"/>
        <path fill-rule="evenodd" clip-rule="evenodd" d="M578.162 105.284H580.922V22.5609H578.162V105.284Z" fill="#313131"/>
        <path fill-rule="evenodd" clip-rule="evenodd" d="M582.992 111.133H585.751V15.8762H582.992V111.133Z" fill="#313131"/>
        <path fill-rule="evenodd" clip-rule="evenodd" d="M627.147 82.7233H629.907V44.2862H627.147V82.7233Z" fill="#313131"/>
        <path fill-rule="evenodd" clip-rule="evenodd" d="M623.008 103.613H625.768V23.3965H623.008V103.613Z" fill="#313131"/>
        <path fill-rule="evenodd" clip-rule="evenodd" d="M618.178 116.147H620.938V10.8627H618.178V116.147Z" fill="#313131"/>
        <path fill-rule="evenodd" clip-rule="evenodd" d="M614.039 76.8742H616.798V50.1353H614.039V76.8742Z" fill="#313131"/>
        <path fill-rule="evenodd" clip-rule="evenodd" d="M609.209 81.0521H611.969V46.793H609.209V81.0521Z" fill="#313131"/>
        <path fill-rule="evenodd" clip-rule="evenodd" d="M605.069 83.5589H607.829V44.2862H605.069V83.5589Z" fill="#313131"/>
        <path fill-rule="evenodd" clip-rule="evenodd" d="M600.93 96.9283H603.689V30.9168H600.93V96.9283Z" fill="#313131"/>
        <path fill-rule="evenodd" clip-rule="evenodd" d="M596.1 123.667H598.86V4.17795H596.1V123.667Z" fill="#313131"/>
        <path fill-rule="evenodd" clip-rule="evenodd" d="M591.961 81.8877H594.721V45.9574H591.961V81.8877Z" fill="#313131"/>
        <path fill-rule="evenodd" clip-rule="evenodd" d="M587.131 100.271H589.891V27.5744H587.131V100.271Z" fill="#313131"/>
        <path fill-rule="evenodd" clip-rule="evenodd" d="M631.977 82.7233H634.736V44.2862H631.977V82.7233Z" fill="#313131"/>
        <path fill-rule="evenodd" clip-rule="evenodd" d="M636.116 87.7368H638.876V39.2727H636.116V87.7368Z" fill="#313131"/>
        <path fill-rule="evenodd" clip-rule="evenodd" d="M640.946 92.7503H643.706V34.2591H640.946V92.7503Z" fill="#313131"/>
        <path fill-rule="evenodd" clip-rule="evenodd" d="M645.085 76.8742H647.845V50.1353H645.085V76.8742Z" fill="#313131"/>
        <path fill-rule="evenodd" clip-rule="evenodd" d="M649.225 102.777H651.985V25.0677H649.225V102.777Z" fill="#313131"/>
        <path fill-rule="evenodd" clip-rule="evenodd" d="M654.055 97.7639H656.814V29.2456H654.055V97.7639Z" fill="#313131"/>
        <path fill-rule="evenodd" clip-rule="evenodd" d="M658.194 79.3809H660.954V47.6285H658.194V79.3809Z" fill="#313131"/>
        <path fill-rule="evenodd" clip-rule="evenodd" d="M663.023 78.5453H665.783V49.2997H663.023V78.5453Z" fill="#313131"/>
        <path fill-rule="evenodd" clip-rule="evenodd" d="M667.163 97.7639H669.923V30.0812H667.163V97.7639Z" fill="#313131"/>
        <path fill-rule="evenodd" clip-rule="evenodd" d="M671.993 85.23H674.752V41.7794H671.993V85.23Z" fill="#313131"/>
        <path fill-rule="evenodd" clip-rule="evenodd" d="M716.148 71.8606H718.908V55.9844H716.148V71.8606Z" fill="#313131"/>
        <path fill-rule="evenodd" clip-rule="evenodd" d="M712.009 87.7368H714.768V39.2727H712.009V87.7368Z" fill="#313131"/>
        <path fill-rule="evenodd" clip-rule="evenodd" d="M707.179 92.7503H709.939V34.2591H707.179V92.7503Z" fill="#313131"/>
        <path fill-rule="evenodd" clip-rule="evenodd" d="M703.04 85.23H705.799V42.615H703.04V85.23Z" fill="#313131"/>
        <path fill-rule="evenodd" clip-rule="evenodd" d="M698.21 80.2165H700.97V47.6285H698.21V80.2165Z" fill="#313131"/>
        <path fill-rule="evenodd" clip-rule="evenodd" d="M694.07 100.271H696.83V27.5744H694.07V100.271Z" fill="#313131"/>
        <path fill-rule="evenodd" clip-rule="evenodd" d="M689.241 86.0656H692.001V40.9438H689.241V86.0656Z" fill="#313131"/>
        <path fill-rule="evenodd" clip-rule="evenodd" d="M685.102 83.5589H687.861V43.4506H685.102V83.5589Z" fill="#313131"/>
        <path fill-rule="evenodd" clip-rule="evenodd" d="M680.962 98.5995H683.722V29.2456H680.962V98.5995Z" fill="#313131"/>
        <path fill-rule="evenodd" clip-rule="evenodd" d="M676.132 76.0385H678.892V50.9709H676.132V76.0385Z" fill="#313131"/>
        <path fill-rule="evenodd" clip-rule="evenodd" d="M720.978 82.7233H723.737V44.2862H720.978V82.7233Z" fill="#313131"/>
        <path fill-rule="evenodd" clip-rule="evenodd" d="M725.117 70.1894H727.877V57.6556H725.117V70.1894Z" fill="#313131"/>
        <path fill-rule="evenodd" clip-rule="evenodd" d="M730 64.3539H732.76V53.4912H730V64.3539Z" fill="#313131"/>
        <path fill-rule="evenodd" clip-rule="evenodd" d="M734.139 70.8742H736.899V44.9709H734.139V70.8742Z" fill="#313131"/>
        <path fill-rule="evenodd" clip-rule="evenodd" d="M738.969 77.5589H741.728V37.4506H738.969V77.5589Z" fill="#313131"/>
        <path fill-rule="evenodd" clip-rule="evenodd" d="M743.108 91.7639H745.868V23.2456H743.108V91.7639Z" fill="#313131"/>
        <path fill-rule="evenodd" clip-rule="evenodd" d="M747.938 113.489H750.698V1.52029H747.938V113.489Z" fill="#313131"/>
        <path fill-rule="evenodd" clip-rule="evenodd" d="M752.078 83.408H754.837V31.6015H752.078V83.408Z" fill="#313131"/>
        <path fill-rule="evenodd" clip-rule="evenodd" d="M756.907 94.2706H759.667V21.5744H756.907V94.2706Z" fill="#313131"/>
        <path fill-rule="evenodd" clip-rule="evenodd" d="M761.047 76.7233H763.807V39.1218H761.047V76.7233Z" fill="#313131"/>
        <path fill-rule="evenodd" clip-rule="evenodd" d="M765.187 105.133H767.946V10.7118H765.187V105.133Z" fill="#313131"/>
        <path fill-rule="evenodd" clip-rule="evenodd" d="M770.016 113.489H772.775V1.52029H770.016V113.489Z" fill="#313131"/>
        <path fill-rule="evenodd" clip-rule="evenodd" d="M814.171 76.7233H816.931V38.2862H814.171V76.7233Z" fill="#313131"/>
        <path fill-rule="evenodd" clip-rule="evenodd" d="M810.032 73.3809H812.791V42.4641H810.032V73.3809Z" fill="#313131"/>
        <path fill-rule="evenodd" clip-rule="evenodd" d="M805.202 78.3945H807.962V37.4506H805.202V78.3945Z" fill="#313131"/>
        <path fill-rule="evenodd" clip-rule="evenodd" d="M801.062 80.0656H803.822V35.7794H801.062V80.0656Z" fill="#313131"/>
        <path fill-rule="evenodd" clip-rule="evenodd" d="M796.923 71.7097H799.683V44.1353H796.923V71.7097Z" fill="#313131"/>
        <path fill-rule="evenodd" clip-rule="evenodd" d="M792.094 65.8606H794.853V49.9844H792.094V65.8606Z" fill="#313131"/>
        <path fill-rule="evenodd" clip-rule="evenodd" d="M787.954 74.2165H790.714V41.6285H787.954V74.2165Z" fill="#313131"/>
        <path fill-rule="evenodd" clip-rule="evenodd" d="M783.125 82.5724H785.884V33.2727H783.125V82.5724Z" fill="#313131"/>
        <path fill-rule="evenodd" clip-rule="evenodd" d="M778.985 109.311H781.745V6.53381H778.985V109.311Z" fill="#313131"/>
        <path fill-rule="evenodd" clip-rule="evenodd" d="M774.155 116.832H776.915V-0.986481H774.155V116.832Z" fill="#313131"/>
        <path fill-rule="evenodd" clip-rule="evenodd" d="M819.001 76.7233H821.761V38.2862H819.001V76.7233Z" fill="#313131"/>
        <path fill-rule="evenodd" clip-rule="evenodd" d="M823.141 101.791H825.9V14.0541H823.141V101.791Z" fill="#313131"/>
        <path fill-rule="evenodd" clip-rule="evenodd" d="M827.97 70.8742H830.729V44.9709H827.97V70.8742Z" fill="#313131"/>
        <path fill-rule="evenodd" clip-rule="evenodd" d="M832.109 104.298H834.869V11.5474H832.109V104.298Z" fill="#313131"/>
        <path fill-rule="evenodd" clip-rule="evenodd" d="M836.939 112.654H839.699V2.3559H836.939V112.654Z" fill="#313131"/>
        <path fill-rule="evenodd" clip-rule="evenodd" d="M841.079 83.408H843.838V31.6015H841.079V83.408Z" fill="#313131"/>
        <path fill-rule="evenodd" clip-rule="evenodd" d="M845.218 111.818H847.978V4.02707H845.218V111.818Z" fill="#313131"/>
        <path fill-rule="evenodd" clip-rule="evenodd" d="M850.048 84.2436H852.808V31.6015H850.048V84.2436Z" fill="#313131"/>
        <path fill-rule="evenodd" clip-rule="evenodd" d="M854.188 88.4215H856.947V27.4236H854.188V88.4215Z" fill="#313131"/>
        <path fill-rule="evenodd" clip-rule="evenodd" d="M859.017 83.408H861.777V32.4371H859.017V83.408Z" fill="#313131"/>
        <path fill-rule="evenodd" clip-rule="evenodd" d="M903.172 65.5183H905.932V55.4912H903.172V65.5183Z" fill="#313131"/>
        <path fill-rule="evenodd" clip-rule="evenodd" d="M899.033 66.6962H901.792V49.1489H899.033V66.6962Z" fill="#313131"/>
        <path fill-rule="evenodd" clip-rule="evenodd" d="M894.203 75.0521H896.963V40.793H894.203V75.0521Z" fill="#313131"/>
        <path fill-rule="evenodd" clip-rule="evenodd" d="M890.064 91.7639H892.824V23.2456H890.064V91.7639Z" fill="#313131"/>
        <path fill-rule="evenodd" clip-rule="evenodd" d="M885.234 96.7774H887.994V19.0677H885.234V96.7774Z" fill="#313131"/>
        <path fill-rule="evenodd" clip-rule="evenodd" d="M881.095 101.791H883.854V14.0541H881.095V101.791Z" fill="#313131"/>
        <path fill-rule="evenodd" clip-rule="evenodd" d="M876.955 106.804H879.715V9.04059H876.955V106.804Z" fill="#313131"/>
        <path fill-rule="evenodd" clip-rule="evenodd" d="M872.125 91.7639H874.885V24.0812H872.125V91.7639Z" fill="#313131"/>
        <path fill-rule="evenodd" clip-rule="evenodd" d="M867.986 98.4486H870.746V17.3965H867.986V98.4486Z" fill="#313131"/>
        <path fill-rule="evenodd" clip-rule="evenodd" d="M863.156 121.845H865.916V-6H863.156V121.845Z" fill="#313131"/>
        <path fill-rule="evenodd" clip-rule="evenodd" d="M908.002 64.6827H910.762V56.3268H908.002V64.6827Z" fill="#313131"/>
        <path fill-rule="evenodd" clip-rule="evenodd" d="M912.142 70.0386H914.901V45.8065H912.142V70.0386Z" fill="#313131"/>
        <path fill-rule="evenodd" clip-rule="evenodd" d="M916.971 77.5589H919.731V37.4506H916.971V77.5589Z" fill="#313131"/>
        <path fill-rule="evenodd" clip-rule="evenodd" d="M921.111 84.2436H923.871V30.7659H921.111V84.2436Z" fill="#313131"/>
        <path fill-rule="evenodd" clip-rule="evenodd" d="M925.25 89.2571H928.01V25.7524H925.25V89.2571Z" fill="#313131"/>
        <path fill-rule="evenodd" clip-rule="evenodd" d="M930.08 95.9418H932.839V19.9033H930.08V95.9418Z" fill="#313131"/>
        <path fill-rule="evenodd" clip-rule="evenodd" d="M934.219 80.9012H936.979V34.9438H934.219V80.9012Z" fill="#313131"/>
        <path fill-rule="evenodd" clip-rule="evenodd" d="M939.049 79.23H941.809V36.615H939.049V79.23Z" fill="#313131"/>
        <path fill-rule="evenodd" clip-rule="evenodd" d="M943.188 99.2842H945.948V16.5609H943.188V99.2842Z" fill="#313131"/>
        <path fill-rule="evenodd" clip-rule="evenodd" d="M948.018 105.133H950.778V9.87619H948.018V105.133Z" fill="#313131"/>
        <path fill-rule="evenodd" clip-rule="evenodd" d="M992.173 76.7233H994.933V38.2862H992.173V76.7233Z" fill="#313131"/>
        <path fill-rule="evenodd" clip-rule="evenodd" d="M988.034 97.613H990.794V17.3965H988.034V97.613Z" fill="#313131"/>
        <path fill-rule="evenodd" clip-rule="evenodd" d="M983.205 110.147H985.964V4.86264H983.205V110.147Z" fill="#313131"/>
        <path fill-rule="evenodd" clip-rule="evenodd" d="M979.065 70.8742H981.825V44.1353H979.065V70.8742Z" fill="#313131"/>
        <path fill-rule="evenodd" clip-rule="evenodd" d="M974.235 75.0521H976.995V40.793H974.235V75.0521Z" fill="#313131"/>
        <path fill-rule="evenodd" clip-rule="evenodd" d="M970.096 77.5589H972.855V38.2862H970.096V77.5589Z" fill="#313131"/>
        <path fill-rule="evenodd" clip-rule="evenodd" d="M965.956 90.9283H968.716V24.9168H965.956V90.9283Z" fill="#313131"/>
        <path fill-rule="evenodd" clip-rule="evenodd" d="M961.126 117.667H963.886V-1.82205H961.126V117.667Z" fill="#313131"/>
        <path fill-rule="evenodd" clip-rule="evenodd" d="M956.987 75.8877H959.747V39.9574H956.987V75.8877Z" fill="#313131"/>
        <path fill-rule="evenodd" clip-rule="evenodd" d="M952.158 94.2706H954.917V21.5744H952.158V94.2706Z" fill="#313131"/>
        <path fill-rule="evenodd" clip-rule="evenodd" d="M997.003 76.7233H999.763V38.2862H997.003V76.7233Z" fill="#313131"/>
        <path fill-rule="evenodd" clip-rule="evenodd" d="M1001.14 81.7368H1003.9V33.2727H1001.14V81.7368Z" fill="#313131"/>
        <path fill-rule="evenodd" clip-rule="evenodd" d="M1005.97 86.7503H1008.73V28.2591H1005.97V86.7503Z" fill="#313131"/>
        <path fill-rule="evenodd" clip-rule="evenodd" d="M1010.11 70.8742H1012.87V44.1353H1010.11V70.8742Z" fill="#313131"/>
        <path fill-rule="evenodd" clip-rule="evenodd" d="M1014.25 96.7774H1017.01V19.0677H1014.25V96.7774Z" fill="#313131"/>
        <path fill-rule="evenodd" clip-rule="evenodd" d="M1019.08 91.7639H1021.84V23.2456H1019.08V91.7639Z" fill="#313131"/>
        <path fill-rule="evenodd" clip-rule="evenodd" d="M1023.22 73.3809H1025.98V41.6285H1023.22V73.3809Z" fill="#313131"/>
        <path fill-rule="evenodd" clip-rule="evenodd" d="M1028.05 72.5453H1030.81V43.2997H1028.05V72.5453Z" fill="#313131"/>
        <path fill-rule="evenodd" clip-rule="evenodd" d="M1032.19 91.7639H1034.95V24.0812H1032.19V91.7639Z" fill="#313131"/>
        <path fill-rule="evenodd" clip-rule="evenodd" d="M1037.02 79.23H1039.78V35.7794H1037.02V79.23Z" fill="#313131"/>
        <path fill-rule="evenodd" clip-rule="evenodd" d="M1081.17 65.8606H1083.93V49.9844H1081.17V65.8606Z" fill="#313131"/>
        <path fill-rule="evenodd" clip-rule="evenodd" d="M1077.04 81.7368H1079.79V33.2727H1077.04V81.7368Z" fill="#313131"/>
        <path fill-rule="evenodd" clip-rule="evenodd" d="M1072.21 86.7503H1074.97V28.2591H1072.21V86.7503Z" fill="#313131"/>
        <path fill-rule="evenodd" clip-rule="evenodd" d="M1068.07 79.23H1070.83V36.615H1068.07V79.23Z" fill="#313131"/>
        <path fill-rule="evenodd" clip-rule="evenodd" d="M1063.24 74.2165H1066V41.6285H1063.24V74.2165Z" fill="#313131"/>
        <path fill-rule="evenodd" clip-rule="evenodd" d="M1059.1 94.2706H1061.86V21.5744H1059.1V94.2706Z" fill="#313131"/>
        <path fill-rule="evenodd" clip-rule="evenodd" d="M1054.27 80.0656H1057.03V34.9438H1054.27V80.0656Z" fill="#313131"/>
        <path fill-rule="evenodd" clip-rule="evenodd" d="M1050.13 77.5589H1052.89V37.4506H1050.13V77.5589Z" fill="#313131"/>
        <path fill-rule="evenodd" clip-rule="evenodd" d="M1045.99 92.5995H1048.75V23.2456H1045.99V92.5995Z" fill="#313131"/>
        <path fill-rule="evenodd" clip-rule="evenodd" d="M1041.16 70.0386H1043.92V44.9709H1041.16V70.0386Z" fill="#313131"/>
        <path fill-rule="evenodd" clip-rule="evenodd" d="M1086 76.7233H1088.76V38.2862H1086V76.7233Z" fill="#313131"/>
        <path fill-rule="evenodd" clip-rule="evenodd" d="M1090.14 65.1894H1092.9V52.6556H1090.14V65.1894Z" fill="#313131"/>
        <path fill-rule="evenodd" clip-rule="evenodd" d="M1095 67.3539H1097.76V56.4912H1095V67.3539Z" fill="#313131"/>
        <path fill-rule="evenodd" clip-rule="evenodd" d="M1099.14 73.8742H1101.9V47.9709H1099.14V73.8742Z" fill="#313131"/>
        <path fill-rule="evenodd" clip-rule="evenodd" d="M1103.97 80.5589H1106.73V40.4506H1103.97V80.5589Z" fill="#313131"/>
        <path fill-rule="evenodd" clip-rule="evenodd" d="M1108.11 94.7639H1110.87V26.2456H1108.11V94.7639Z" fill="#313131"/>
        <path fill-rule="evenodd" clip-rule="evenodd" d="M1112.94 116.489H1115.7V4.52029H1112.94V116.489Z" fill="#313131"/>
        <path fill-rule="evenodd" clip-rule="evenodd" d="M1117.08 86.408H1119.84V34.6015H1117.08V86.408Z" fill="#313131"/>
        <path fill-rule="evenodd" clip-rule="evenodd" d="M1121.91 97.2706H1124.67V24.5744H1121.91V97.2706Z" fill="#313131"/>
        <path fill-rule="evenodd" clip-rule="evenodd" d="M1126.05 79.7233H1128.81V42.1218H1126.05V79.7233Z" fill="#313131"/>
        <path fill-rule="evenodd" clip-rule="evenodd" d="M1130.19 108.133H1132.95V13.7118H1130.19V108.133Z" fill="#313131"/>
        <path fill-rule="evenodd" clip-rule="evenodd" d="M1135.02 116.489H1137.78V4.52029H1135.02V116.489Z" fill="#313131"/>
        <path fill-rule="evenodd" clip-rule="evenodd" d="M1179.17 79.7233H1181.93V41.2862H1179.17V79.7233Z" fill="#313131"/>
        <path fill-rule="evenodd" clip-rule="evenodd" d="M1175.03 76.3809H1177.79V45.4641H1175.03V76.3809Z" fill="#313131"/>
        <path fill-rule="evenodd" clip-rule="evenodd" d="M1170.2 81.3945H1172.96V40.4506H1170.2V81.3945Z" fill="#313131"/>
        <path fill-rule="evenodd" clip-rule="evenodd" d="M1166.06 83.0656H1168.82V38.7794H1166.06V83.0656Z" fill="#313131"/>
        <path fill-rule="evenodd" clip-rule="evenodd" d="M1161.92 74.7097H1164.68V47.1353H1161.92V74.7097Z" fill="#313131"/>
        <path fill-rule="evenodd" clip-rule="evenodd" d="M1157.09 68.8606H1159.85V52.9844H1157.09V68.8606Z" fill="#313131"/>
        <path fill-rule="evenodd" clip-rule="evenodd" d="M1152.95 77.2165H1155.71V44.6285H1152.95V77.2165Z" fill="#313131"/>
        <path fill-rule="evenodd" clip-rule="evenodd" d="M1148.12 85.5724H1150.88V36.2727H1148.12V85.5724Z" fill="#313131"/>
        <path fill-rule="evenodd" clip-rule="evenodd" d="M1143.98 112.311H1146.74V9.53381H1143.98V112.311Z" fill="#313131"/>
        <path fill-rule="evenodd" clip-rule="evenodd" d="M1139.16 119.832H1141.91V2.01352H1139.16V119.832Z" fill="#313131"/>
        <path fill-rule="evenodd" clip-rule="evenodd" d="M1184 79.7233H1186.76V41.2862H1184V79.7233Z" fill="#313131"/>
        <path fill-rule="evenodd" clip-rule="evenodd" d="M1188.14 104.791H1190.9V17.0541H1188.14V104.791Z" fill="#313131"/>
        <path fill-rule="evenodd" clip-rule="evenodd" d="M1192.97 73.8742H1195.73V47.9709H1192.97V73.8742Z" fill="#313131"/>
        <path fill-rule="evenodd" clip-rule="evenodd" d="M1197.11 107.298H1199.87V14.5474H1197.11V107.298Z" fill="#313131"/>
        <path fill-rule="evenodd" clip-rule="evenodd" d="M1201.94 115.654H1204.7V5.3559H1201.94V115.654Z" fill="#313131"/>
        <path fill-rule="evenodd" clip-rule="evenodd" d="M1206.08 86.408H1208.84V34.6015H1206.08V86.408Z" fill="#313131"/>
        <path fill-rule="evenodd" clip-rule="evenodd" d="M1210.22 114.818H1212.98V7.02707H1210.22V114.818Z" fill="#313131"/>
        <path fill-rule="evenodd" clip-rule="evenodd" d="M1215.05 87.2436H1217.81V34.6015H1215.05V87.2436Z" fill="#313131"/>
        <path fill-rule="evenodd" clip-rule="evenodd" d="M1219.19 91.4215H1221.95V30.4236H1219.19V91.4215Z" fill="#313131"/>
        <path fill-rule="evenodd" clip-rule="evenodd" d="M1224.02 86.408H1226.78V35.4371H1224.02V86.408Z" fill="#313131"/>
        <path fill-rule="evenodd" clip-rule="evenodd" d="M1268.17 65.5183H1270.93V55.4912H1268.17V65.5183Z" fill="#313131"/>
        <path fill-rule="evenodd" clip-rule="evenodd" d="M1264.03 69.6962H1266.79V52.1489H1264.03V69.6962Z" fill="#313131"/>
        <path fill-rule="evenodd" clip-rule="evenodd" d="M1259.2 78.0521H1261.96V43.793H1259.2V78.0521Z" fill="#313131"/>
        <path fill-rule="evenodd" clip-rule="evenodd" d="M1255.06 94.7639H1257.82V26.2456H1255.06V94.7639Z" fill="#313131"/>
        <path fill-rule="evenodd" clip-rule="evenodd" d="M1250.23 99.7774H1252.99V22.0677H1250.23V99.7774Z" fill="#313131"/>
        <path fill-rule="evenodd" clip-rule="evenodd" d="M1246.09 104.791H1248.85V17.0541H1246.09V104.791Z" fill="#313131"/>
        <path fill-rule="evenodd" clip-rule="evenodd" d="M1241.96 109.804H1244.71V12.0406H1241.96V109.804Z" fill="#313131"/>
        <path fill-rule="evenodd" clip-rule="evenodd" d="M1237.13 94.7639H1239.89V27.0812H1237.13V94.7639Z" fill="#313131"/>
        <path fill-rule="evenodd" clip-rule="evenodd" d="M1232.99 101.449H1235.75V20.3965H1232.99V101.449Z" fill="#313131"/>
        <path fill-rule="evenodd" clip-rule="evenodd" d="M1228.16 124.845H1230.92V-3H1228.16V124.845Z" fill="#313131"/>
        <path fill-rule="evenodd" clip-rule="evenodd" d="M1273 64.6827H1275.76V56.3268H1273V64.6827Z" fill="#313131"/>
        <path fill-rule="evenodd" clip-rule="evenodd" d="M1277.14 73.0386H1279.9V48.8065H1277.14V73.0386Z" fill="#313131"/>
        <path fill-rule="evenodd" clip-rule="evenodd" d="M1281.97 80.5589H1284.73V40.4506H1281.97V80.5589Z" fill="#313131"/>
        <path fill-rule="evenodd" clip-rule="evenodd" d="M1286.11 87.2436H1288.87V33.7659H1286.11V87.2436Z" fill="#313131"/>
        <path fill-rule="evenodd" clip-rule="evenodd" d="M1290.25 92.2571H1293.01V28.7524H1290.25V92.2571Z" fill="#313131"/>
        <path fill-rule="evenodd" clip-rule="evenodd" d="M1295.08 98.9418H1297.84V22.9033H1295.08V98.9418Z" fill="#313131"/>
        <path fill-rule="evenodd" clip-rule="evenodd" d="M1299.22 83.9012H1301.98V37.9438H1299.22V83.9012Z" fill="#313131"/>
        <path fill-rule="evenodd" clip-rule="evenodd" d="M1304.05 82.23H1306.81V39.615H1304.05V82.23Z" fill="#313131"/>
        <path fill-rule="evenodd" clip-rule="evenodd" d="M1308.19 102.284H1310.95V19.5609H1308.19V102.284Z" fill="#313131"/>
        <path fill-rule="evenodd" clip-rule="evenodd" d="M1313.02 108.133H1315.78V12.8762H1313.02V108.133Z" fill="#313131"/>
        <path fill-rule="evenodd" clip-rule="evenodd" d="M1357.17 79.7233H1359.93V41.2862H1357.17V79.7233Z" fill="#313131"/>
        <path fill-rule="evenodd" clip-rule="evenodd" d="M1353.03 100.613H1355.79V20.3965H1353.03V100.613Z" fill="#313131"/>
        <path fill-rule="evenodd" clip-rule="evenodd" d="M1348.2 113.147H1350.96V7.86264H1348.2V113.147Z" fill="#313131"/>
        <path fill-rule="evenodd" clip-rule="evenodd" d="M1344.06 73.8742H1346.82V47.1353H1344.06V73.8742Z" fill="#313131"/>
        <path fill-rule="evenodd" clip-rule="evenodd" d="M1339.24 78.0521H1342V43.793H1339.24V78.0521Z" fill="#313131"/>
        <path fill-rule="evenodd" clip-rule="evenodd" d="M1335.1 80.5589H1337.86V41.2862H1335.1V80.5589Z" fill="#313131"/>
        <path fill-rule="evenodd" clip-rule="evenodd" d="M1330.96 93.9283H1333.72V27.9168H1330.96V93.9283Z" fill="#313131"/>
        <path fill-rule="evenodd" clip-rule="evenodd" d="M1326.13 120.667H1328.89V1.17795H1326.13V120.667Z" fill="#313131"/>
        <path fill-rule="evenodd" clip-rule="evenodd" d="M1321.99 78.8877H1324.75V42.9574H1321.99V78.8877Z" fill="#313131"/>
        <path fill-rule="evenodd" clip-rule="evenodd" d="M1317.16 97.2706H1319.92V24.5744H1317.16V97.2706Z" fill="#313131"/>
        <path fill-rule="evenodd" clip-rule="evenodd" d="M1362 79.7233H1364.76V41.2862H1362V79.7233Z" fill="#313131"/>
        <path fill-rule="evenodd" clip-rule="evenodd" d="M1366.14 84.7368H1368.9V36.2727H1366.14V84.7368Z" fill="#313131"/>
        <path fill-rule="evenodd" clip-rule="evenodd" d="M1370.97 89.7503H1373.73V31.2591H1370.97V89.7503Z" fill="#313131"/>
        <path fill-rule="evenodd" clip-rule="evenodd" d="M1375.11 73.8742H1377.87V47.1353H1375.11V73.8742Z" fill="#313131"/>
        <path fill-rule="evenodd" clip-rule="evenodd" d="M1379.25 99.7774H1382.01V22.0677H1379.25V99.7774Z" fill="#313131"/>
        <path fill-rule="evenodd" clip-rule="evenodd" d="M1384.08 94.7639H1386.84V26.2456H1384.08V94.7639Z" fill="#313131"/>
        <path fill-rule="evenodd" clip-rule="evenodd" d="M1388.22 76.3809H1390.98V44.6285H1388.22V76.3809Z" fill="#313131"/>
        <path fill-rule="evenodd" clip-rule="evenodd" d="M1393.05 75.5453H1395.81V46.2997H1393.05V75.5453Z" fill="#313131"/>
        <path fill-rule="evenodd" clip-rule="evenodd" d="M1397.19 94.7639H1399.95V27.0812H1397.19V94.7639Z" fill="#313131"/>
        <path fill-rule="evenodd" clip-rule="evenodd" d="M1402.02 82.23H1404.78V38.7794H1402.02V82.23Z" fill="#313131"/>
        <path fill-rule="evenodd" clip-rule="evenodd" d="M1446.17 68.8606H1448.93V52.9844H1446.17V68.8606Z" fill="#313131"/>
        <path fill-rule="evenodd" clip-rule="evenodd" d="M1442.04 84.7368H1444.79V36.2727H1442.04V84.7368Z" fill="#313131"/>
        <path fill-rule="evenodd" clip-rule="evenodd" d="M1437.21 89.7503H1439.97V31.2591H1437.21V89.7503Z" fill="#313131"/>
        <path fill-rule="evenodd" clip-rule="evenodd" d="M1433.07 82.23H1435.83V39.615H1433.07V82.23Z" fill="#313131"/>
        <path fill-rule="evenodd" clip-rule="evenodd" d="M1428.24 77.2165H1431V44.6285H1428.24V77.2165Z" fill="#313131"/>
        <path fill-rule="evenodd" clip-rule="evenodd" d="M1424.1 97.2706H1426.86V24.5744H1424.1V97.2706Z" fill="#313131"/>
        <path fill-rule="evenodd" clip-rule="evenodd" d="M1419.27 83.0656H1422.03V37.9438H1419.27V83.0656Z" fill="#313131"/>
        <path fill-rule="evenodd" clip-rule="evenodd" d="M1415.13 80.5589H1417.89V40.4506H1415.13V80.5589Z" fill="#313131"/>
        <path fill-rule="evenodd" clip-rule="evenodd" d="M1410.99 95.5995H1413.75V26.2456H1410.99V95.5995Z" fill="#313131"/>
        <path fill-rule="evenodd" clip-rule="evenodd" d="M1406.16 73.0386H1408.92V47.9709H1406.16V73.0386Z" fill="#313131"/>
        <path fill-rule="evenodd" clip-rule="evenodd" d="M1451 79.7233H1453.76V41.2862H1451V79.7233Z" fill="#313131"/>
        <path fill-rule="evenodd" clip-rule="evenodd" d="M1455.14 68.1894H1457.9V55.6556H1455.14V68.1894Z" fill="#313131"/>
        <path fill-rule="evenodd" clip-rule="evenodd" d="M1460 70.3539H1462.76V59.4912H1460V70.3539Z" fill="#313131"/>
        <path fill-rule="evenodd" clip-rule="evenodd" d="M1464.14 76.8742H1466.9V50.9709H1464.14V76.8742Z" fill="#313131"/>
        <path fill-rule="evenodd" clip-rule="evenodd" d="M1468.97 83.5589H1471.73V43.4506H1468.97V83.5589Z" fill="#313131"/>
        <path fill-rule="evenodd" clip-rule="evenodd" d="M1473.11 97.7639H1475.87V29.2456H1473.11V97.7639Z" fill="#313131"/>
        <path fill-rule="evenodd" clip-rule="evenodd" d="M1477.94 119.489H1480.7V7.52029H1477.94V119.489Z" fill="#313131"/>
        <path fill-rule="evenodd" clip-rule="evenodd" d="M1482.08 89.408H1484.84V37.6015H1482.08V89.408Z" fill="#313131"/>
        <path fill-rule="evenodd" clip-rule="evenodd" d="M1486.91 100.271H1489.67V27.5744H1486.91V100.271Z" fill="#313131"/>
        <path fill-rule="evenodd" clip-rule="evenodd" d="M1491.05 82.7233H1493.81V45.1218H1491.05V82.7233Z" fill="#313131"/>
        <path fill-rule="evenodd" clip-rule="evenodd" d="M1495.19 111.133H1497.95V16.7118H1495.19V111.133Z" fill="#313131"/>
        <path fill-rule="evenodd" clip-rule="evenodd" d="M1500.02 119.489H1502.78V7.52029H1500.02V119.489Z" fill="#313131"/>
        <path fill-rule="evenodd" clip-rule="evenodd" d="M1544.17 82.7233H1546.93V44.2862H1544.17V82.7233Z" fill="#313131"/>
        <path fill-rule="evenodd" clip-rule="evenodd" d="M1540.03 79.3809H1542.79V48.4641H1540.03V79.3809Z" fill="#313131"/>
        <path fill-rule="evenodd" clip-rule="evenodd" d="M1535.2 84.3945H1537.96V43.4506H1535.2V84.3945Z" fill="#313131"/>
        <path fill-rule="evenodd" clip-rule="evenodd" d="M1531.06 86.0656H1533.82V41.7794H1531.06V86.0656Z" fill="#313131"/>
        <path fill-rule="evenodd" clip-rule="evenodd" d="M1526.92 77.7097H1529.68V50.1353H1526.92V77.7097Z" fill="#313131"/>
        <path fill-rule="evenodd" clip-rule="evenodd" d="M1522.09 71.8606H1524.85V55.9844H1522.09V71.8606Z" fill="#313131"/>
        <path fill-rule="evenodd" clip-rule="evenodd" d="M1517.95 80.2165H1520.71V47.6285H1517.95V80.2165Z" fill="#313131"/>
        <path fill-rule="evenodd" clip-rule="evenodd" d="M1513.12 88.5724H1515.88V39.2727H1513.12V88.5724Z" fill="#313131"/>
        <path fill-rule="evenodd" clip-rule="evenodd" d="M1508.98 115.311H1511.74V12.5338H1508.98V115.311Z" fill="#313131"/>
        <path fill-rule="evenodd" clip-rule="evenodd" d="M1504.16 122.832H1506.91V5.01352H1504.16V122.832Z" fill="#313131"/>
        <path fill-rule="evenodd" clip-rule="evenodd" d="M1549 82.7233H1551.76V44.2862H1549V82.7233Z" fill="#313131"/>
        <path fill-rule="evenodd" clip-rule="evenodd" d="M1553.14 107.791H1555.9V20.0541H1553.14V107.791Z" fill="#313131"/>
        <path fill-rule="evenodd" clip-rule="evenodd" d="M1557.97 76.8742H1560.73V50.9709H1557.97V76.8742Z" fill="#313131"/>
        <path fill-rule="evenodd" clip-rule="evenodd" d="M1562.11 110.298H1564.87V17.5474H1562.11V110.298Z" fill="#313131"/>
        <path fill-rule="evenodd" clip-rule="evenodd" d="M1566.94 118.654H1569.7V8.3559H1566.94V118.654Z" fill="#313131"/>
        <path fill-rule="evenodd" clip-rule="evenodd" d="M1571.08 89.408H1573.84V37.6015H1571.08V89.408Z" fill="#313131"/>
        <path fill-rule="evenodd" clip-rule="evenodd" d="M1575.22 117.818H1577.98V10.0271H1575.22V117.818Z" fill="#313131"/>
        <path fill-rule="evenodd" clip-rule="evenodd" d="M1580.05 90.2436H1582.81V37.6015H1580.05V90.2436Z" fill="#313131"/>
        <path fill-rule="evenodd" clip-rule="evenodd" d="M1584.19 94.4215H1586.95V33.4236H1584.19V94.4215Z" fill="#313131"/>
        <path fill-rule="evenodd" clip-rule="evenodd" d="M1589.02 89.408H1591.78V38.4371H1589.02V89.408Z" fill="#313131"/>
        <path fill-rule="evenodd" clip-rule="evenodd" d="M1633.17 68.5183H1635.93V58.4912H1633.17V68.5183Z" fill="#313131"/>
        <path fill-rule="evenodd" clip-rule="evenodd" d="M1629.03 72.6962H1631.79V55.1489H1629.03V72.6962Z" fill="#313131"/>
        <path fill-rule="evenodd" clip-rule="evenodd" d="M1624.2 81.0521H1626.96V46.793H1624.2V81.0521Z" fill="#313131"/>
        <path fill-rule="evenodd" clip-rule="evenodd" d="M1620.06 97.7639H1622.82V29.2456H1620.06V97.7639Z" fill="#313131"/>
        <path fill-rule="evenodd" clip-rule="evenodd" d="M1615.23 102.777H1617.99V25.0677H1615.23V102.777Z" fill="#313131"/>
        <path fill-rule="evenodd" clip-rule="evenodd" d="M1611.09 107.791H1613.85V20.0541H1611.09V107.791Z" fill="#313131"/>
        <path fill-rule="evenodd" clip-rule="evenodd" d="M1606.96 112.804H1609.71V15.0406H1606.96V112.804Z" fill="#313131"/>
        <path fill-rule="evenodd" clip-rule="evenodd" d="M1602.13 97.7639H1604.89V30.0812H1602.13V97.7639Z" fill="#313131"/>
        <path fill-rule="evenodd" clip-rule="evenodd" d="M1597.99 104.449H1600.75V23.3965H1597.99V104.449Z" fill="#313131"/>
        <path fill-rule="evenodd" clip-rule="evenodd" d="M1593.16 127.845H1595.92V0H1593.16V127.845Z" fill="#313131"/>
        <path fill-rule="evenodd" clip-rule="evenodd" d="M1638 67.6827H1640.76V59.3268H1638V67.6827Z" fill="#313131"/>
        <path fill-rule="evenodd" clip-rule="evenodd" d="M1642.14 76.0386H1644.9V51.8065H1642.14V76.0386Z" fill="#313131"/>
        <path fill-rule="evenodd" clip-rule="evenodd" d="M1646.97 83.5589H1649.73V43.4506H1646.97V83.5589Z" fill="#313131"/>
        <path fill-rule="evenodd" clip-rule="evenodd" d="M1651.11 90.2436H1653.87V36.7659H1651.11V90.2436Z" fill="#313131"/>
        <path fill-rule="evenodd" clip-rule="evenodd" d="M1655.25 95.2571H1658.01V31.7524H1655.25V95.2571Z" fill="#313131"/>
        <path fill-rule="evenodd" clip-rule="evenodd" d="M1660.08 101.942H1662.84V25.9033H1660.08V101.942Z" fill="#313131"/>
        <path fill-rule="evenodd" clip-rule="evenodd" d="M1664.22 86.9012H1666.98V40.9438H1664.22V86.9012Z" fill="#313131"/>
        <path fill-rule="evenodd" clip-rule="evenodd" d="M1669.05 85.23H1671.81V42.615H1669.05V85.23Z" fill="#313131"/>
        <path fill-rule="evenodd" clip-rule="evenodd" d="M1673.19 105.284H1675.95V22.5609H1673.19V105.284Z" fill="#313131"/>
        <path fill-rule="evenodd" clip-rule="evenodd" d="M1678.02 111.133H1680.78V15.8762H1678.02V111.133Z" fill="#313131"/>
        <path fill-rule="evenodd" clip-rule="evenodd" d="M1722.17 82.7233H1724.93V44.2862H1722.17V82.7233Z" fill="#313131"/>
        <path fill-rule="evenodd" clip-rule="evenodd" d="M1718.03 103.613H1720.79V23.3965H1718.03V103.613Z" fill="#313131"/>
        <path fill-rule="evenodd" clip-rule="evenodd" d="M1713.21 116.147H1715.96V10.8626H1713.21V116.147Z" fill="#313131"/>
        <path fill-rule="evenodd" clip-rule="evenodd" d="M1709.06 76.8742H1711.82V50.1353H1709.06V76.8742Z" fill="#313131"/>
        <path fill-rule="evenodd" clip-rule="evenodd" d="M1704.24 81.0521H1707V46.793H1704.24V81.0521Z" fill="#313131"/>
        <path fill-rule="evenodd" clip-rule="evenodd" d="M1700.1 83.5589H1702.86V44.2862H1700.1V83.5589Z" fill="#313131"/>
        <path fill-rule="evenodd" clip-rule="evenodd" d="M1695.96 96.9283H1698.72V30.9168H1695.96V96.9283Z" fill="#313131"/>
        <path fill-rule="evenodd" clip-rule="evenodd" d="M1691.13 123.667H1693.89V4.17795H1691.13V123.667Z" fill="#313131"/>
        <path fill-rule="evenodd" clip-rule="evenodd" d="M1686.99 81.8877H1689.75V45.9574H1686.99V81.8877Z" fill="#313131"/>
        <path fill-rule="evenodd" clip-rule="evenodd" d="M1682.16 100.271H1684.92V27.5744H1682.16V100.271Z" fill="#313131"/>
        <path fill-rule="evenodd" clip-rule="evenodd" d="M1727 82.7233H1729.76V44.2862H1727V82.7233Z" fill="#313131"/>
        <path fill-rule="evenodd" clip-rule="evenodd" d="M1731.14 87.7368H1733.9V39.2727H1731.14V87.7368Z" fill="#313131"/>
        <path fill-rule="evenodd" clip-rule="evenodd" d="M1735.97 92.7503H1738.73V34.2591H1735.97V92.7503Z" fill="#313131"/>
        <path fill-rule="evenodd" clip-rule="evenodd" d="M1740.11 76.8742H1742.87V50.1353H1740.11V76.8742Z" fill="#313131"/>
        <path fill-rule="evenodd" clip-rule="evenodd" d="M1744.25 102.777H1747.01V25.0677H1744.25V102.777Z" fill="#313131"/>
        <path fill-rule="evenodd" clip-rule="evenodd" d="M1749.08 97.7639H1751.84V29.2456H1749.08V97.7639Z" fill="#313131"/>
        <path fill-rule="evenodd" clip-rule="evenodd" d="M1753.22 79.3809H1755.98V47.6285H1753.22V79.3809Z" fill="#313131"/>
        <path fill-rule="evenodd" clip-rule="evenodd" d="M1758.05 78.5453H1760.81V49.2997H1758.05V78.5453Z" fill="#313131"/>
        <path fill-rule="evenodd" clip-rule="evenodd" d="M1762.19 97.7639H1764.95V30.0812H1762.19V97.7639Z" fill="#313131"/>
        <path fill-rule="evenodd" clip-rule="evenodd" d="M1767.02 85.23H1769.78V41.7794H1767.02V85.23Z" fill="#313131"/>
        <path fill-rule="evenodd" clip-rule="evenodd" d="M1798.07 85.23H1800.83V42.615H1798.07V85.23Z" fill="#313131"/>
        <path fill-rule="evenodd" clip-rule="evenodd" d="M1793.24 80.2165H1796V47.6285H1793.24V80.2165Z" fill="#313131"/>
        <path fill-rule="evenodd" clip-rule="evenodd" d="M1789.1 100.271H1791.86V27.5744H1789.1V100.271Z" fill="#313131"/>
        <path fill-rule="evenodd" clip-rule="evenodd" d="M1784.27 86.0656H1787.03V40.9438H1784.27V86.0656Z" fill="#313131"/>
        <path fill-rule="evenodd" clip-rule="evenodd" d="M1780.13 83.5589H1782.89V43.4506H1780.13V83.5589Z" fill="#313131"/>
        <path fill-rule="evenodd" clip-rule="evenodd" d="M1775.99 98.5995H1778.75V29.2456H1775.99V98.5995Z" fill="#313131"/>
        <path fill-rule="evenodd" clip-rule="evenodd" d="M1771.16 76.0386H1773.92V50.9709H1771.16V76.0386Z" fill="#313131"/>
    </g>
    <defs>
        <radialGradient id="paint0_radial" cx="0" cy="0" r="1" gradientUnits="userSpaceOnUse" gradientTransform="translate(0 32) rotate(9.06445) scale(314.019 53.1968)">
            <stop stop-color="#4297FE"/>
            <stop offset="1" stop-color="#DD61B9"/>
        </radialGradient>
        <radialGradient id="paint1_radial" cx="0" cy="0" r="1" gradientUnits="userSpaceOnUse" gradientTransform="rotate(17.6826) scale(325.356 102.525)">
            <stop stop-color="#4297FE"/>
            <stop offset="1" stop-color="#DD61B9"/>
        </radialGradient>
    </defs>
</svg>
