<svg width="29" height="43" viewBox="0 0 29 43" fill="none" xmlns="http://www.w3.org/2000/svg">
    <path fill-rule="evenodd" clip-rule="evenodd" d="M21.0005 8.37318C21.0005 6.24601 22.7949 4.5158 25.0003 4.5158C27.2059 4.5158 29 6.24601 29 8.37318V29.4027L24.3424 38.1742V43H8.02158V37.9928L0.711277 30.5188L0.0346741 23.2932C-0.149699 21.6332 0.407163 19.9689 1.56307 18.7259C2.42745 17.7965 3.57042 17.1633 4.81579 16.9009V3.85738C4.81579 1.73021 6.6102 0 8.81554 0C11.0209 0 12.8149 1.73021 12.8149 3.85738V11.2313C13.2497 11.0745 13.7198 10.9885 14.2103 10.9885C15.7816 10.9885 17.1433 11.8671 17.7971 13.1413C18.3407 12.8742 18.9547 12.7226 19.6055 12.7226C20.096 12.7226 20.5661 12.8089 21.0005 12.9654V8.37318ZM21.7383 37.5686L26.3956 28.7971H26.396V8.37318C26.396 7.6311 25.7701 7.02746 25.0006 7.02746C24.2311 7.02746 23.6052 7.6311 23.6052 8.37318V20.3859H21.0009V16.58C21.0009 15.8379 20.3749 15.2343 19.6055 15.2343C18.836 15.2343 18.2101 15.8383 18.2101 16.58V20.3859H15.6061V14.8459C15.6061 14.1038 14.9798 13.5002 14.2107 13.5002C13.4412 13.5002 12.8153 14.1038 12.8153 14.8459V21.9944H10.2109V3.85738C10.2109 3.1153 9.58501 2.51166 8.81554 2.51166C8.04607 2.51166 7.42015 3.1153 7.42015 3.85738V24.5274H4.81579V19.5146C4.3205 19.7042 3.87284 20.004 3.50205 20.4026C2.82681 21.1293 2.51521 22.063 2.62509 23.033L2.62747 23.056L3.22413 29.4273L10.6259 36.9948V40.4883H21.7383V37.5686Z" fill="#E4E4E4"/>
</svg>
