<svg width="38" height="37" viewBox="0 0 38 37" fill="none" xmlns="http://www.w3.org/2000/svg">
<path d="M37.8874 13.6903C37.7628 13.3088 37.4358 13.0362 37.0386 12.9739L25.2026 11.292L19.8763 0.584993C19.6972 0.226796 19.3312 0.000976562 18.9341 0.000976562C18.537 0.000976562 18.171 0.226796 17.9919 0.59278L12.7358 11.3309L0.899692 13.0907C0.50256 13.153 0.175511 13.4256 0.0509212 13.8071C-0.073669 14.1887 0.0353474 14.6092 0.323462 14.8817L8.9124 23.2059L6.92674 34.9952C6.85666 35.3924 7.02018 35.7895 7.34723 36.0231C7.52633 36.1555 7.74436 36.2256 7.9624 36.2256C8.13371 36.2256 8.29723 36.1866 8.45297 36.101L19.0198 30.5022L29.6177 36.0387C29.7735 36.1166 29.937 36.1555 30.1005 36.1555C30.6767 36.1555 31.1517 35.6805 31.1517 35.1043C31.1517 35.0186 31.144 34.9407 31.1206 34.8629L29.0726 23.1436L37.6071 14.7727C37.9108 14.4924 38.012 14.0719 37.8874 13.6903Z" fill="#FFD300"/>
</svg>
