<svg xmlns="http://www.w3.org/2000/svg" xmlns:xlink="http://www.w3.org/1999/xlink" width="22" height="13" viewBox="0 0 22 13"><defs><path id="70t7a" d="M574.764 188.282h1.315s.397-.043.6-.258c.186-.197.18-.567.18-.567s-.025-1.734.794-1.99c.807-.251 1.844 1.676 2.942 2.417.831.561 1.463.438 1.463.438l2.938-.04s1.537-.093.808-1.28c-.06-.098-.425-.879-2.185-2.484-1.842-1.68-1.595-1.409.624-4.315 1.352-1.77 1.892-2.851 1.723-3.314-.16-.441-1.155-.324-1.155-.324l-3.308.02s-.245-.033-.427.074c-.178.105-.292.349-.292.349s-.524 1.37-1.222 2.534c-1.473 2.459-2.062 2.588-2.303 2.436-.56-.356-.42-1.43-.42-2.192 0-2.382.368-3.375-.716-3.632-.36-.086-.624-.142-1.544-.151-1.18-.012-2.179.003-2.745.276-.376.18-.666.584-.49.608.22.028.714.13.977.482.339.453.327 1.471.327 1.471s.195 2.804-.455 3.153c-.446.239-1.057-.25-2.37-2.48-.674-1.142-1.182-2.404-1.182-2.404s-.098-.236-.272-.362c-.212-.153-.509-.202-.509-.202l-3.143.02s-.472.013-.645.215c-.154.179-.012.55-.012.55s2.46 5.658 5.247 8.51c2.555 2.614 5.457 2.442 5.457 2.442z"/></defs><g><g transform="translate(-564 -176)"><use fill="#4d76a1" xlink:href="#70t7a"/></g></g></svg>
