<svg width="44" height="44" viewBox="0 0 44 44" fill="none" xmlns="http://www.w3.org/2000/svg">
    <path d="M22 44C9.84974 44 0 34.1503 0 22C0 9.84974 9.84974 0 22 0C34.1503 0 44 9.84974 44 22C44 34.1503 34.1503 44 22 44Z" fill="url(#paint0_radial)"/>
    <path fill-rule="evenodd" clip-rule="evenodd" d="M7 22C7 29.0778 12.3793 35 19.5045 35C24.0817 35 27.0073 32.9778 29.461 30.1852L27.0544 27.9222C25.1198 30.0407 22.8076 31.6778 19.6933 31.6778C14.5971 31.6778 10.7278 27.3926 10.7278 22C10.7278 16.5593 14.5027 12.2741 19.4573 12.2741C22.7604 12.2741 25.0254 13.863 26.9601 15.9333L29.2722 13.4296C27.0073 10.9741 24.1289 9 19.5045 9C12.3793 9 7 14.9704 7 22ZM33 16.8V20.2667H36.4667V22.8667H33V26.3333H30.4V22.8667H26.9333V20.2667H30.4V16.8H33Z" fill="white"/>
    <defs>
        <radialGradient id="paint0_radial" cx="0" cy="0" r="1" gradientUnits="userSpaceOnUse" gradientTransform="translate(-2.33822) rotate(34.9673) scale(56.546 33.6455)">
            <stop stop-color="#4297FE"/>
            <stop offset="1" stop-color="#DD61B9"/>
        </radialGradient>
    </defs>
</svg>
