<svg width="44" height="44" viewBox="0 0 44 44" fill="none" xmlns="http://www.w3.org/2000/svg">
    <path fill-rule="evenodd" clip-rule="evenodd" d="M0 22C0 34.1503 9.84974 44 22 44C34.1503 44 44 34.1503 44 22C44 9.84974 34.1503 0 22 0C9.84974 0 0 9.84974 0 22ZM41.8 22C41.8 32.9352 32.9352 41.8 22 41.8C11.0648 41.8 2.2 32.9352 2.2 22C2.2 11.0648 11.0648 2.2 22 2.2C32.9352 2.2 41.8 11.0648 41.8 22Z" fill="#E4E4E4"/>
    <path d="M22.417 31.7212C17.2233 31.7212 13.3022 27.2927 13.3022 22.0002C13.3022 16.7437 17.2233 12.2793 22.417 12.2793C25.7877 12.2793 27.8858 13.7554 29.5368 15.5916L27.8514 17.4638C26.4412 15.9156 24.7902 14.7275 22.3826 14.7275C18.7711 14.7275 16.0195 17.9318 16.0195 22.0002C16.0195 26.0326 18.8399 29.2369 22.5545 29.2369C24.8246 29.2369 26.51 28.0128 27.9202 26.4287L29.6743 28.1208C27.8858 30.209 25.7533 31.7212 22.417 31.7212Z" fill="#E4E4E4"/>
</svg>
