<svg width="44" height="44" viewBox="0 0 44 44" fill="none" xmlns="http://www.w3.org/2000/svg">
<path fill-rule="evenodd" clip-rule="evenodd" d="M0 22C0 34.1503 9.84974 44 22 44C34.1503 44 44 34.1503 44 22C44 9.84974 34.1503 0 22 0C9.84974 0 0 9.84974 0 22ZM41.8 22C41.8 32.9352 32.9352 41.8 22 41.8C11.0648 41.8 2.2 32.9352 2.2 22C2.2 11.0648 11.0648 2.2 22 2.2C32.9352 2.2 41.8 11.0648 41.8 22Z" fill="#E4E4E4"/>
<mask id="mask0" mask-type="alpha" maskUnits="userSpaceOnUse" x="0" y="0" width="44" height="44">
<rect width="44" height="44" rx="22" fill="white"/>
</mask>
<g mask="url(#mask0)">
<path fill-rule="evenodd" clip-rule="evenodd" d="M15.1133 18.8723C15.1133 22.6678 18.1901 25.7447 21.9856 25.7447C25.7811 25.7447 28.858 22.6678 28.858 18.8723C28.858 15.0769 25.7811 12 21.9856 12C18.1901 12 15.1133 15.0769 15.1133 18.8723ZM27.4112 18.8723C27.4112 21.8688 24.9821 24.2979 21.9856 24.2979C18.9892 24.2979 16.5601 21.8688 16.5601 18.8723C16.5601 15.8759 18.9892 13.4468 21.9856 13.4468C24.9821 13.4468 27.4112 15.8759 27.4112 18.8723Z" fill="#E4E4E4"/>
<path d="M21.9856 25.2447C18.4663 25.2447 15.6133 22.3917 15.6133 18.8723H14.6133C14.6133 22.944 17.914 26.2447 21.9856 26.2447V25.2447ZM28.358 18.8723C28.358 22.3917 25.505 25.2447 21.9856 25.2447V26.2447C26.0573 26.2447 29.358 22.944 29.358 18.8723H28.358ZM21.9856 12.5C25.505 12.5 28.358 15.353 28.358 18.8723H29.358C29.358 14.8007 26.0573 11.5 21.9856 11.5V12.5ZM15.6133 18.8723C15.6133 15.353 18.4663 12.5 21.9856 12.5V11.5C17.914 11.5 14.6133 14.8007 14.6133 18.8723H15.6133ZM21.9856 24.7979C25.2582 24.7979 27.9112 22.1449 27.9112 18.8723H26.9112C26.9112 21.5926 24.7059 23.7979 21.9856 23.7979V24.7979ZM16.0601 18.8723C16.0601 22.1449 18.713 24.7979 21.9856 24.7979V23.7979C19.2653 23.7979 17.0601 21.5926 17.0601 18.8723H16.0601ZM21.9856 12.9468C18.713 12.9468 16.0601 15.5998 16.0601 18.8723H17.0601C17.0601 16.152 19.2653 13.9468 21.9856 13.9468V12.9468ZM27.9112 18.8723C27.9112 15.5998 25.2582 12.9468 21.9856 12.9468V13.9468C24.7059 13.9468 26.9112 16.152 26.9112 18.8723H27.9112Z" fill="#E4E4E4"/>
<path fill-rule="evenodd" clip-rule="evenodd" d="M38.971 45.2765C38.5997 36.0234 31.1371 28.6382 21.9855 28.6382C12.8339 28.6382 5.37135 36.0234 5 45.2765L38.971 45.2765ZM21.9855 30.085C29.8286 30.085 36.3595 36.0422 37.3955 43.8297L6.57547 43.8297C7.61149 36.0422 14.1424 30.085 21.9855 30.085Z" fill="#E4E4E4"/>
<path d="M38.971 45.2765V45.7765H39.4915L39.4706 45.2564L38.971 45.2765ZM5 45.2765L4.5004 45.2564L4.47953 45.7765H5L5 45.2765ZM37.3955 43.8297V44.3297H37.9665L37.8912 43.7637L37.3955 43.8297ZM6.57547 43.8297L6.07984 43.7637L6.00455 44.3297H6.57547L6.57547 43.8297ZM21.9855 29.1382C30.8583 29.1382 38.1104 36.301 38.4714 45.2965L39.4706 45.2564C39.0889 35.7457 31.4158 28.1382 21.9855 28.1382V29.1382ZM5.4996 45.2965C5.86061 36.301 13.1127 29.1382 21.9855 29.1382V28.1382C12.5552 28.1382 4.88209 35.7457 4.5004 45.2564L5.4996 45.2965ZM38.971 44.7765L5 44.7765L5 45.7765L38.971 45.7765V44.7765ZM37.8912 43.7637C36.8236 35.7388 30.0902 29.585 21.9855 29.585V30.585C29.567 30.585 35.8955 36.3457 36.8999 43.8956L37.8912 43.7637ZM6.57547 44.3297L37.3955 44.3297V43.3297L6.57547 43.3297L6.57547 44.3297ZM21.9855 29.585C13.8808 29.585 7.14746 35.7388 6.07984 43.7637L7.07111 43.8956C8.07553 36.3457 14.404 30.585 21.9855 30.585V29.585Z" fill="#E4E4E4"/>
</g>
</svg>
