<svg width="55" height="48" viewBox="0 0 55 48" fill="none" xmlns="http://www.w3.org/2000/svg">
<path fill-rule="evenodd" clip-rule="evenodd" d="M22.7053 0.632974C20.6968 -0.697741 18.1426 0.900831 18.1426 3.48812V5.79983L37.7266 17.8688C39.5091 18.9673 40.5955 20.8928 40.6334 23.0203C40.6713 25.152 39.6511 27.1191 37.9039 28.2823L30.4038 33.2764L28.7324 34.392V37.3615C28.7324 40.2475 26.3736 42.5961 23.4749 42.5961H22.8396C21.3434 42.5961 20.0012 41.8808 19.1537 40.7678L18.1426 41.4411V44.571C18.1426 47.1947 20.7614 48.7873 22.7677 47.3833L52.9261 26.2813C54.8209 24.9553 54.7873 21.8884 52.8632 20.6138L22.7053 0.632974Z" fill="url(#paint0_radial)"/>
<path fill-rule="evenodd" clip-rule="evenodd" d="M23.4757 38.7305C24.235 38.7305 24.8505 38.1177 24.8505 37.3617V34.9201L23.1339 36.0661C22.4796 36.5028 22.0901 37.24 22.1008 38.0255C22.1064 38.4198 22.4448 38.7305 22.8408 38.7305H23.4757ZM6.49113 0.634796L36.8217 19.3269C39.5554 21.0117 39.6226 25.0762 36.9478 26.8574L27.0118 33.4775V37.3617C27.0118 39.3057 25.4286 40.8819 23.4757 40.8819H22.8408C21.5055 40.8819 20.441 40.0218 20.1277 38.7935C20.0145 38.3504 20.0222 37.4165 20.0222 37.4165C20.0222 36.2452 20.6093 35.1511 21.5873 34.5001L24.3994 32.6281L24.4029 32.6289L24.8505 32.3298V32.0847C24.1558 32.4404 23.3384 32.5921 22.4783 32.4605C20.5826 32.1712 19.2323 30.4617 19.2323 28.5524V25.7924H21.3067V28.5961C21.3067 29.4318 21.8529 30.2101 22.6716 30.3948C23.74 30.6365 24.6973 29.9221 24.8505 28.9424V25.7924H27.0118V30.8855L28.5709 29.8467L35.7464 25.0689C37.1157 24.1574 37.0804 22.0167 35.684 21.1561L5.35346 2.46394C3.94977 1.59908 2.16084 2.66708 2.16084 4.44008V11.4061V14.1854H5.22346V10.5459H7.38431V20.8728H5.22346V15.9065H2.16084V20.8728V43.3295C2.16084 45.1381 4.01305 46.2001 5.41587 45.2658L18.1433 36.7929V39.3789L6.61725 47.0542C3.74488 48.9669 0 46.8189 0 43.3295V4.44008C0 1.01922 3.6136 -1.13863 6.49113 0.634796ZM9.71883 10.579C10.4824 10.396 11.1531 11.0637 10.9689 11.824C10.8823 12.1814 10.5879 12.4746 10.2289 12.5607C9.4653 12.7437 8.79467 12.076 8.9789 11.3157C9.06542 10.9583 9.35984 10.6651 9.71883 10.579ZM18.1632 32.5155C15.9007 32.5155 14.0563 30.6829 14.0515 28.4308L14.046 22.1693L16.1207 22.1638L16.1259 28.4265C16.1285 29.542 17.0423 30.4502 18.1632 30.4502V32.5155ZM14.0461 10.5486V17.0573C14.0461 19.1744 15.7765 20.8973 17.9033 20.8973V18.832C16.9202 18.832 16.1204 18.0357 16.1204 17.0573V15.7094H17.4264V13.9883H16.1204V10.5486H14.0461ZM11.0112 17.0594C11.0112 18.0455 11.7843 18.8345 12.7261 18.8345V20.8998C10.6277 20.8998 8.93648 19.1752 8.93648 17.0594V13.9882H11.0112V17.0594ZM12.7171 24.2321V22.1668C10.5903 22.1668 8.85988 23.8897 8.85988 26.0072V32.5155H10.9342V27.7579H12.3172V26.0364H10.9342V26.0072C10.9342 25.0284 11.734 24.2321 12.7171 24.2321Z" fill="url(#paint1_radial)"/>
<defs>
<radialGradient id="paint0_radial" cx="0" cy="0" r="1" gradientUnits="userSpaceOnUse" gradientTransform="translate(16.2197 0.153806) rotate(42.7047) scale(51.8566 32.7437)">
<stop stop-color="#4297FE"/>
<stop offset="1" stop-color="#DD61B9"/>
</radialGradient>
<radialGradient id="paint1_radial" cx="0" cy="0" r="1" gradientUnits="userSpaceOnUse" gradientTransform="translate(-2.06792) rotate(40.6473) scale(54.013 33.8209)">
<stop stop-color="#4297FE"/>
<stop offset="1" stop-color="#DD61B9"/>
</radialGradient>
</defs>
</svg>
