<svg id="Слой_1" xmlns="http://www.w3.org/2000/svg" viewBox="0 0 120 120"><style>.st1{fill:#979797}</style><path fill="#f7f7f7" d="M0 0h120v120H0z"/><path class="st1" d="M101 48c0-9.7-2.6-17.1-7.8-22-6.8-6.4-15.5-6-15.8-6-9 0-14.9 6.1-17.4 9.3-2.4-3.2-8.3-9.3-17.3-9.3-.4 0-9-.4-15.9 6-5.1 4.9-7.8 12.3-7.8 22 0 .7-1.3 17.5 22.2 37.7l14.1 12.2s.1.1.3.2l.7.6.2.2.8.7c.4.4.8.7 1.3 1.1.5.5 1 .9 1.5 1.3l1.5-1.3 1.1-1 .3-.3 15.9-13.8c23-19.8 22.2-36.3 22.1-37.6zM77.5 84.1L60 99.3 42.5 84.1C19.9 64.7 21 48.3 21 48.1c0-9.2 2.5-16.1 7.2-20.6 5.5-5.2 12.5-5.5 14.1-5.5h.3c9.4 0 15 7.3 16.5 9.6l.8 1.3.8-1.3C62.3 29.4 68 22 77.4 22c.1 0 8.2-.4 14.4 5.5C96.5 32 99 38.9 99 48.1v.1c0 .1 1.2 16.4-21.5 35.9z"/><path class="st1" d="M54.6 63.9c-.7-.4-1.4-.6-2.2-.6-2.4 0-4.4 1.9-4.4 4.3s2 4.4 4.4 4.4 4.4-2 4.4-4.3V54l11-3.1v10.9c-.7-.4-1.4-.6-2.2-.6-2.4 0-4.4 2-4.4 4.4s2 4.3 4.4 4.3 4.4-2 4.4-4.3V45.9l-15.4 4.4v13.6z"/></svg>