<svg id="Слой_1" xmlns="http://www.w3.org/2000/svg" viewBox="0 0 120 120"><style>.st1{fill:#979797}</style><path fill="#f7f7f7" d="M0 0h120v120H0z"/><path class="st1" d="M87 27H25c-3.3 0-6 2.7-6 6v62c0 3.3 2.7 6 6 6h62c3.3 0 6-2.7 6-6V33c0-3.3-2.7-6-6-6zm4 68c0 2.2-1.8 4-4 4H25c-2.2 0-4-1.8-4-4V33c0-2.2 1.8-4 4-4h62c2.2 0 4 1.8 4 4v62z"/><path class="st1" d="M95 19H33v2h62c2.2 0 4 1.8 4 4v62h2V25c0-3.3-2.7-6-6-6z"/><path class="st1" d="M50.6 68.9c-.7-.4-1.4-.6-2.2-.6-2.4 0-4.4 1.9-4.4 4.3s2 4.4 4.4 4.4 4.4-2 4.4-4.3V59l11-3.1v10.9c-.7-.4-1.4-.6-2.2-.6-2.4 0-4.4 2-4.4 4.4s2 4.3 4.4 4.3 4.4-2 4.4-4.3V50.9l-15.4 4.4v13.6z"/></svg>