<svg width="800" height="800" viewBox="0 0 800 800" fill="none" xmlns="http://www.w3.org/2000/svg">
<rect width="800" height="800" rx="4" fill="#F7F7F7"/>
<mask id="mask0" mask-type="alpha" maskUnits="userSpaceOnUse" x="0" y="0" width="800" height="800">
<rect width="800" height="800" rx="4" fill="white"/>
</mask>
<g mask="url(#mask0)">
</g>
<g clip-path="url(#clip0)">
<path d="M656.001 318.83C656.001 258.264 639.767 212.059 607.299 181.464C564.84 141.503 510.519 144 508.645 144C452.45 144 415.611 182.088 400.001 202.069C385.016 182.088 348.177 144 291.982 144C289.484 144 235.787 141.503 192.704 181.464C160.86 212.059 144.001 258.264 144.001 318.83C144.001 323.2 135.884 428.098 282.616 554.225L370.655 630.4C370.655 630.4 371.279 631.025 372.528 631.649L376.899 635.395C377.523 636.02 377.523 636.02 378.148 636.644L383.143 641.015C385.64 643.512 388.138 645.386 391.26 647.883C394.382 651.005 397.504 653.503 400.626 656L409.992 647.883L416.86 641.639L418.733 639.766L518.011 553.6C661.621 429.971 656.626 326.947 656.001 318.83ZM509.27 544.234L400.001 639.142L290.733 544.234C149.621 423.103 156.489 320.703 156.489 319.454C156.489 262.01 172.099 218.927 201.445 190.83C235.787 158.361 279.494 156.488 289.484 156.488H291.358C350.05 156.488 385.016 202.069 394.382 216.43L399.377 224.547L404.372 216.43C414.362 202.693 449.953 156.488 508.645 156.488C509.27 156.488 559.845 153.991 598.558 190.83C627.904 218.927 643.514 262.01 643.514 319.454V320.078C643.514 320.703 651.006 422.478 509.27 544.234Z" fill="#979797"/>
<path d="M366.283 418.108C361.912 415.611 357.542 414.362 352.546 414.362C337.561 414.362 325.073 426.225 325.073 441.211C325.073 456.196 337.561 468.684 352.546 468.684C367.532 468.684 380.02 456.196 380.02 441.835V356.294L448.703 336.937V404.996C444.332 402.498 439.961 401.25 434.966 401.25C419.981 401.25 407.493 413.737 407.493 428.723C407.493 443.708 419.981 455.572 434.966 455.572C449.951 455.572 462.439 443.084 462.439 428.723V305.718L366.283 333.191V418.108Z" fill="#979797"/>
</g>
<defs>
<clipPath id="clip0">
<rect width="512" height="512" fill="white" transform="translate(144 144)"/>
</clipPath>
</defs>
</svg>
