<svg id="Слой_1" xmlns="http://www.w3.org/2000/svg" viewBox="0 0 120 120"><style>.st1{fill:#979797}</style><path fill="#f7f7f7" d="M0 0h120v120H0z"/><path class="st1" d="M54.6 64.9c-.7-.4-1.4-.6-2.2-.6-2.4 0-4.4 1.9-4.4 4.3s2 4.4 4.4 4.4 4.4-2 4.4-4.3V55l11-3.1v10.9c-.7-.4-1.4-.6-2.2-.6-2.4 0-4.4 2-4.4 4.4s2 4.3 4.4 4.3 4.4-2 4.4-4.3V46.9l-15.4 4.4v13.6z"/><path class="st1" d="M60 19c-22.6 0-41 18.4-41 41s18.4 41 41 41 41-18.4 41-41-18.4-41-41-41zm0 80c-21.5 0-39-17.5-39-39s17.5-39 39-39 39 17.5 39 39-17.5 39-39 39z"/></svg>